<svg width="48" height="51" viewBox="0 0 48 51" fill="none" xmlns="http://www.w3.org/2000/svg">
<path d="M28.697 6.37671C31.2558 3.6064 32.5352 2.22125 34.1908 2.15555C35.8463 2.08985 37.2315 3.36927 40.0018 5.9281L41.9085 7.68927C44.6788 10.2481 46.064 11.5275 46.1297 13.1831C46.1954 14.8386 44.916 16.2238 42.3571 18.9941L38.4931 23.1775C35.9342 25.9478 34.6548 27.333 32.9993 27.3986C31.3437 27.4643 29.9586 26.1849 27.1883 23.6261L25.2815 21.8649C22.5112 19.3061 21.1261 18.0267 21.0604 16.3711C20.9947 14.7156 22.2741 13.3304 24.8329 10.5601L28.697 6.37671Z" fill="url(#paint0_linear_379_12068)"/>
<g filter="url(#filter0_b_379_12068)">
<mask id="path-2-inside-1_379_12068" fill="white">
<path d="M25.714 9.6068C26.8754 8.34942 28.8362 8.27161 30.0936 9.43301L39.2004 17.8446C40.4577 19.006 40.5356 20.9668 39.3742 22.2242L21.6131 41.4532C20.8508 42.2784 19.8786 42.881 18.8003 43.1965L13.5106 44.7442L5.31458 37.1738L6.43795 31.7778C6.66699 30.678 7.19065 29.6611 7.95292 28.8358L25.714 9.6068Z"/>
</mask>
<path d="M25.714 9.6068C26.8754 8.34942 28.8362 8.27161 30.0936 9.43301L39.2004 17.8446C40.4577 19.006 40.5356 20.9668 39.3742 22.2242L21.6131 41.4532C20.8508 42.2784 19.8786 42.881 18.8003 43.1965L13.5106 44.7442L5.31458 37.1738L6.43795 31.7778C6.66699 30.678 7.19065 29.6611 7.95292 28.8358L25.714 9.6068Z" fill="#92D5BD" fill-opacity="0.6"/>
<path d="M30.0936 9.43301L29.6784 9.8825L30.0936 9.43301ZM25.714 9.6068L25.2645 9.19163V9.19163L25.714 9.6068ZM39.2004 17.8446L38.7852 18.2941L39.2004 17.8446ZM39.3742 22.2242L39.8237 22.6393L39.3742 22.2242ZM21.6131 41.4532L21.1636 41.038L21.6131 41.4532ZM18.8003 43.1965L18.9721 43.7838L18.8003 43.1965ZM13.5106 44.7442L13.0954 45.1937L13.3499 45.4288L13.6824 45.3315L13.5106 44.7442ZM5.31458 37.1738L4.71552 37.0491L4.64492 37.3883L4.8994 37.6233L5.31458 37.1738ZM6.43795 31.7778L5.83891 31.6531L5.8389 31.6531L6.43795 31.7778ZM7.95292 28.8358L7.50343 28.4206H7.50343L7.95292 28.8358ZM30.5088 8.98352C29.0032 7.59282 26.6552 7.686 25.2645 9.19163L26.1635 10.022C27.0956 9.01285 28.6693 8.9504 29.6784 9.8825L30.5088 8.98352ZM39.6155 17.3951L30.5088 8.98352L29.6784 9.8825L38.7852 18.2941L39.6155 17.3951ZM39.8237 22.6393C41.2143 21.1337 41.1212 18.7858 39.6155 17.3951L38.7852 18.2941C39.7943 19.2262 39.8568 20.7999 38.9247 21.809L39.8237 22.6393ZM22.0626 41.8683L39.8237 22.6393L38.9247 21.809L21.1636 41.038L22.0626 41.8683ZM18.9721 43.7838C20.1568 43.4372 21.225 42.7751 22.0626 41.8683L21.1636 41.038C20.4765 41.7818 19.6003 42.3249 18.6285 42.6092L18.9721 43.7838ZM13.6824 45.3315L18.9721 43.7838L18.6285 42.6092L13.3388 44.1569L13.6824 45.3315ZM13.9258 44.2947L5.72975 36.7244L4.8994 37.6233L13.0954 45.1937L13.9258 44.2947ZM7.50343 28.4206C6.66591 29.3274 6.09056 30.4447 5.83891 31.6531L7.03699 31.9026C7.24343 30.9113 7.71539 29.9948 8.40241 29.251L7.50343 28.4206ZM25.2645 9.19163L7.50343 28.4206L8.40241 29.251L26.1635 10.022L25.2645 9.19163ZM5.91363 37.2986L7.037 31.9026L5.8389 31.6531L4.71552 37.0491L5.91363 37.2986Z" fill="url(#paint1_linear_379_12068)" mask="url(#path-2-inside-1_379_12068)"/>
</g>
<g filter="url(#filter1_b_379_12068)">
<rect width="12.3971" height="3.09927" rx="1.54964" transform="matrix(-0.734589 -0.678512 -0.678513 0.734589 37.0993 20.1212)" fill="url(#paint2_linear_379_12068)" fill-opacity="0.9"/>
<rect x="-0.28262" y="0.0112153" width="11.9971" height="2.69927" rx="1.34964" transform="matrix(-0.734589 -0.678512 -0.678513 0.734589 36.6167 19.9324)" stroke="url(#paint3_linear_379_12068)" stroke-width="0.4"/>
</g>
<path d="M13.5124 44.7442L5.31635 37.1737L3.63226 45.2605C3.39376 46.4058 4.46173 47.3923 5.58451 47.0638L13.5124 44.7442Z" fill="url(#paint4_linear_379_12068)"/>
<defs>
<filter id="filter0_b_379_12068" x="-7.74801" y="-4.45218" width="61.0074" height="62.259" filterUnits="userSpaceOnUse" color-interpolation-filters="sRGB">
<feFlood flood-opacity="0" result="BackgroundImageFix"/>
<feGaussianBlur in="BackgroundImageFix" stdDeviation="6.53129"/>
<feComposite in2="SourceAlpha" operator="in" result="effect1_backgroundBlur_379_12068"/>
<feBlend mode="normal" in="SourceGraphic" in2="effect1_backgroundBlur_379_12068" result="shape"/>
</filter>
<filter id="filter1_b_379_12068" x="0.404636" y="-13.7754" width="62.1797" height="61.6583" filterUnits="userSpaceOnUse" color-interpolation-filters="sRGB">
<feFlood flood-opacity="0" result="BackgroundImageFix"/>
<feGaussianBlur in="BackgroundImageFix" stdDeviation="13.0626"/>
<feComposite in2="SourceAlpha" operator="in" result="effect1_backgroundBlur_379_12068"/>
<feBlend mode="normal" in="SourceGraphic" in2="effect1_backgroundBlur_379_12068" result="shape"/>
</filter>
<linearGradient id="paint0_linear_379_12068" x1="34.8455" y1="7.62581" x2="42.6933" y2="20.7652" gradientUnits="userSpaceOnUse">
<stop stop-color="#92D5BD"/>
<stop offset="1" stop-color="#289A71"/>
</linearGradient>
<linearGradient id="paint1_linear_379_12068" x1="2.02654" y1="9.23768" x2="27.2447" y2="43.2316" gradientUnits="userSpaceOnUse">
<stop stop-color="white"/>
<stop offset="0.765625" stop-color="white" stop-opacity="0"/>
</linearGradient>
<linearGradient id="paint2_linear_379_12068" x1="12.6338" y1="1.72814" x2="-5.2599" y2="1.27241" gradientUnits="userSpaceOnUse">
<stop stop-color="#FCFDFE"/>
<stop offset="1" stop-color="#FCFDFE" stop-opacity="0"/>
</linearGradient>
<linearGradient id="paint3_linear_379_12068" x1="12.2612" y1="2.13152" x2="6.19854" y2="3.09927" gradientUnits="userSpaceOnUse">
<stop stop-color="white"/>
<stop offset="1" stop-color="white" stop-opacity="0"/>
</linearGradient>
<linearGradient id="paint4_linear_379_12068" x1="6.51762" y1="40.6166" x2="9.62433" y2="48.6336" gradientUnits="userSpaceOnUse">
<stop stop-color="#92D5BD"/>
<stop offset="1" stop-color="#289A71"/>
</linearGradient>
</defs>
</svg>
