<svg width="21" height="18" viewBox="0 0 21 18" fill="none" xmlns="http://www.w3.org/2000/svg">
<path d="M11 15C11 15.34 11.04 15.67 11.09 16H2C0.9 16 0 15.11 0 14V2C0 0.89 0.89 0 2 0H8L10 2H18C19.1 2 20 2.89 20 4V9.81C19.12 9.3 18.1 9 17 9C13.69 9 11 11.69 11 15ZM21 15L18 12V14H14V16H18V18L21 15Z" fill="url(#paint0_linear_424_4504)"/>
<defs>
<linearGradient id="paint0_linear_424_4504" x1="-6.59302" y1="16.7442" x2="21.9405" y2="1.71037" gradientUnits="userSpaceOnUse">
<stop stop-color="#6D8FFF"/>
<stop offset="1" stop-color="#92D5BD"/>
</linearGradient>
</defs>
</svg>
