<svg width="52" height="51" viewBox="0 0 52 51" fill="none" xmlns="http://www.w3.org/2000/svg">
<path fill-rule="evenodd" clip-rule="evenodd" d="M7.40582 0.5C8.93994 0.5 10.1836 1.74365 10.1836 3.27778L10.1836 47.7222C10.1836 49.2563 8.93994 50.5 7.40581 50.5C5.87169 50.5 4.62804 49.2563 4.62804 47.7222L4.62804 3.27778C4.62804 1.74365 5.87169 0.5 7.40582 0.5Z" fill="url(#paint0_linear_264_7026)"/>
<path fill-rule="evenodd" clip-rule="evenodd" d="M25.9234 0.5C27.4575 0.5 28.7012 1.74365 28.7012 3.27778L28.7012 47.7222C28.7012 49.2563 27.4575 50.5 25.9234 50.5C24.3893 50.5 23.1456 49.2563 23.1456 47.7222L23.1456 3.27778C23.1456 1.74365 24.3893 0.5 25.9234 0.5Z" fill="url(#paint1_linear_264_7026)"/>
<path fill-rule="evenodd" clip-rule="evenodd" d="M44.4439 0.5C45.978 0.5 47.2217 1.74365 47.2217 3.27778L47.2217 47.7222C47.2217 49.2563 45.978 50.5 44.4439 50.5C42.9098 50.5 41.6661 49.2563 41.6661 47.7222L41.6661 3.27778C41.6661 1.74365 42.9098 0.5 44.4439 0.5Z" fill="url(#paint2_linear_264_7026)"/>
<g filter="url(#filter0_b_264_7026)">
<circle cx="7.40705" cy="36.6114" r="7.40741" transform="rotate(90 7.40705 36.6114)" fill="#FFE344" fill-opacity="0.6"/>
<circle cx="7.40705" cy="36.6114" r="7.20741" transform="rotate(90 7.40705 36.6114)" stroke="url(#paint3_linear_264_7026)" stroke-width="0.4"/>
</g>
<g filter="url(#filter1_b_264_7026)">
<circle cx="25.9246" cy="14.3887" r="7.40741" transform="rotate(90 25.9246 14.3887)" fill="#FFE344" fill-opacity="0.6"/>
<circle cx="25.9246" cy="14.3887" r="7.20741" transform="rotate(90 25.9246 14.3887)" stroke="url(#paint4_linear_264_7026)" stroke-width="0.4"/>
</g>
<g filter="url(#filter2_b_264_7026)">
<circle cx="44.4422" cy="36.6114" r="7.40741" transform="rotate(90 44.4422 36.6114)" fill="#FFE344" fill-opacity="0.6"/>
<circle cx="44.4422" cy="36.6114" r="7.20741" transform="rotate(90 44.4422 36.6114)" stroke="url(#paint5_linear_264_7026)" stroke-width="0.4"/>
</g>
<defs>
<filter id="filter0_b_264_7026" x="-12.3076" y="16.8963" width="39.4297" height="39.4301" filterUnits="userSpaceOnUse" color-interpolation-filters="sRGB">
<feFlood flood-opacity="0" result="BackgroundImageFix"/>
<feGaussianBlur in="BackgroundImageFix" stdDeviation="6.15382"/>
<feComposite in2="SourceAlpha" operator="in" result="effect1_backgroundBlur_264_7026"/>
<feBlend mode="normal" in="SourceGraphic" in2="effect1_backgroundBlur_264_7026" result="shape"/>
</filter>
<filter id="filter1_b_264_7026" x="6.20994" y="-5.32631" width="39.4297" height="39.4301" filterUnits="userSpaceOnUse" color-interpolation-filters="sRGB">
<feFlood flood-opacity="0" result="BackgroundImageFix"/>
<feGaussianBlur in="BackgroundImageFix" stdDeviation="6.15382"/>
<feComposite in2="SourceAlpha" operator="in" result="effect1_backgroundBlur_264_7026"/>
<feBlend mode="normal" in="SourceGraphic" in2="effect1_backgroundBlur_264_7026" result="shape"/>
</filter>
<filter id="filter2_b_264_7026" x="24.7275" y="16.8963" width="39.4297" height="39.4301" filterUnits="userSpaceOnUse" color-interpolation-filters="sRGB">
<feFlood flood-opacity="0" result="BackgroundImageFix"/>
<feGaussianBlur in="BackgroundImageFix" stdDeviation="6.15382"/>
<feComposite in2="SourceAlpha" operator="in" result="effect1_backgroundBlur_264_7026"/>
<feBlend mode="normal" in="SourceGraphic" in2="effect1_backgroundBlur_264_7026" result="shape"/>
</filter>
<linearGradient id="paint0_linear_264_7026" x1="8.96832" y1="14.9231" x2="-3.5829" y2="18.9784" gradientUnits="userSpaceOnUse">
<stop stop-color="#FFE344"/>
<stop offset="1" stop-color="#E2C51E"/>
</linearGradient>
<linearGradient id="paint1_linear_264_7026" x1="27.4859" y1="14.9231" x2="14.9347" y2="18.9784" gradientUnits="userSpaceOnUse">
<stop stop-color="#FFE344"/>
<stop offset="1" stop-color="#E2C51E"/>
</linearGradient>
<linearGradient id="paint2_linear_264_7026" x1="46.0064" y1="14.9231" x2="33.4552" y2="18.9784" gradientUnits="userSpaceOnUse">
<stop stop-color="#FFE344"/>
<stop offset="1" stop-color="#E2C51E"/>
</linearGradient>
<linearGradient id="paint3_linear_264_7026" x1="-1.85221" y1="47.7225" x2="12.9626" y2="31.0558" gradientUnits="userSpaceOnUse">
<stop stop-color="white"/>
<stop offset="1" stop-color="white" stop-opacity="0"/>
</linearGradient>
<linearGradient id="paint4_linear_264_7026" x1="16.6654" y1="25.4998" x2="31.4802" y2="8.83317" gradientUnits="userSpaceOnUse">
<stop stop-color="white"/>
<stop offset="1" stop-color="white" stop-opacity="0"/>
</linearGradient>
<linearGradient id="paint5_linear_264_7026" x1="35.1829" y1="47.7225" x2="49.9978" y2="31.0558" gradientUnits="userSpaceOnUse">
<stop stop-color="white"/>
<stop offset="1" stop-color="white" stop-opacity="0"/>
</linearGradient>
</defs>
</svg>
