<svg width="54" height="51" viewBox="0 0 54 51" fill="none" xmlns="http://www.w3.org/2000/svg">
<g filter="url(#filter0_b_379_12047)">
<path d="M0 16.5C0 8.95753 0 5.18629 2.34315 2.84315C4.68629 0.5 8.45753 0.5 16 0.5L26.8571 0.5C34.3996 0.5 38.1708 0.5 40.514 2.84315C42.8571 5.18629 42.8571 8.95753 42.8571 16.5V30.9286C42.8571 38.471 42.8571 42.2423 40.514 44.5854C38.1708 46.9286 34.3996 46.9286 26.8571 46.9286H16C8.45752 46.9286 4.68629 46.9286 2.34315 44.5854C0 42.2423 0 38.471 0 30.9286L0 16.5Z" fill="url(#paint0_linear_379_12047)"/>
</g>
<g filter="url(#filter1_b_379_12047)">
<path d="M0 30.8572C0 21.7761 0 17.2355 2.7334 14.3443C2.86187 14.2084 2.99414 14.0762 3.13003 13.9477C6.02124 11.2143 10.5618 11.2143 19.6429 11.2143H30.3571C39.4382 11.2143 43.9788 11.2143 46.87 13.9477C47.0059 14.0762 47.1381 14.2084 47.2666 14.3443C50 17.2355 50 21.7761 50 30.8572C50 39.9382 50 44.4788 47.2666 47.37C47.1381 47.5059 47.0059 47.6381 46.87 47.7666C43.9788 50.5 39.4382 50.5 30.3571 50.5H19.6429C10.5618 50.5 6.02124 50.5 3.13003 47.7666C2.99414 47.6381 2.86187 47.5059 2.7334 47.37C0 44.4788 0 39.9382 0 30.8572Z" fill="#89A3F8"/>
<path d="M0.2 30.8572C0.2 26.3112 0.200396 22.9211 0.54001 20.3053C0.878931 17.6948 1.55267 15.8844 2.87873 14.4817C3.00464 14.3486 3.13425 14.2189 3.26743 14.093C4.67005 12.767 6.48053 12.0932 9.09099 11.7543C11.7068 11.4147 15.0969 11.4143 19.6429 11.4143H30.3571C34.9031 11.4143 38.2932 11.4147 40.909 11.7543C43.5195 12.0932 45.3299 12.767 46.7326 14.093C46.8657 14.2189 46.9954 14.3486 47.1213 14.4817C48.4473 15.8844 49.1211 17.6948 49.46 20.3053C49.7996 22.9211 49.8 26.3112 49.8 30.8572C49.8 35.4031 49.7996 38.7932 49.46 41.409C49.1211 44.0195 48.4473 45.83 47.1213 47.2326C46.9954 47.3658 46.8657 47.4954 46.7326 47.6213C45.3299 48.9473 43.5195 49.6211 40.909 49.96C38.2932 50.2996 34.9031 50.3 30.3571 50.3H19.6429C15.0969 50.3 11.7068 50.2996 9.09099 49.96C6.48053 49.6211 4.67005 48.9473 3.26743 47.6213C3.13425 47.4954 3.00464 47.3658 2.87873 47.2326C1.55267 45.83 0.878931 44.0195 0.54001 41.409C0.200396 38.7932 0.2 35.4031 0.2 30.8572Z" stroke="url(#paint1_linear_379_12047)" stroke-width="0.4"/>
</g>
<g filter="url(#filter2_b_379_12047)">
<path d="M32.1429 29.0712C32.1429 26.1261 32.1429 24.6535 32.8807 23.6137C33.141 23.2468 33.4613 22.9265 33.8282 22.6661C34.868 21.9284 36.3406 21.9284 39.2858 21.9284H46.4286C49.3738 21.9284 50.8464 21.9284 51.8862 22.6661C52.2531 22.9265 52.5734 23.2468 52.8337 23.6137C53.5715 24.6535 53.5715 26.1261 53.5715 29.0712C53.5715 32.0164 53.5715 33.489 52.8337 34.5288C52.5734 34.8957 52.2531 35.216 51.8862 35.4763C50.8464 36.2141 49.3738 36.2141 46.4286 36.2141H39.2858C36.3406 36.2141 34.868 36.2141 33.8282 35.4763C33.4613 35.216 33.141 34.8957 32.8807 34.5288C32.1429 33.489 32.1429 32.0164 32.1429 29.0712Z" fill="url(#paint2_linear_379_12047)"/>
</g>
<g filter="url(#filter3_b_379_12047)">
<rect x="42.8581" y="25.4998" width="7.14286" height="7.14286" rx="3.57143" transform="rotate(90 42.8581 25.4998)" fill="white"/>
</g>
<defs>
<filter id="filter0_b_379_12047" x="-13.0567" y="-12.5567" width="68.9706" height="72.542" filterUnits="userSpaceOnUse" color-interpolation-filters="sRGB">
<feFlood flood-opacity="0" result="BackgroundImageFix"/>
<feGaussianBlur in="BackgroundImageFix" stdDeviation="6.52837"/>
<feComposite in2="SourceAlpha" operator="in" result="effect1_backgroundBlur_379_12047"/>
<feBlend mode="normal" in="SourceGraphic" in2="effect1_backgroundBlur_379_12047" result="shape"/>
</filter>
<filter id="filter1_b_379_12047" x="-13.0567" y="-1.84243" width="76.1135" height="65.3992" filterUnits="userSpaceOnUse" color-interpolation-filters="sRGB">
<feFlood flood-opacity="0" result="BackgroundImageFix"/>
<feGaussianBlur in="BackgroundImageFix" stdDeviation="6.52837"/>
<feComposite in2="SourceAlpha" operator="in" result="effect1_backgroundBlur_379_12047"/>
<feBlend mode="normal" in="SourceGraphic" in2="effect1_backgroundBlur_379_12047" result="shape"/>
</filter>
<filter id="filter2_b_379_12047" x="26.7026" y="16.4881" width="32.3092" height="25.1663" filterUnits="userSpaceOnUse" color-interpolation-filters="sRGB">
<feFlood flood-opacity="0" result="BackgroundImageFix"/>
<feGaussianBlur in="BackgroundImageFix" stdDeviation="2.72015"/>
<feComposite in2="SourceAlpha" operator="in" result="effect1_backgroundBlur_379_12047"/>
<feBlend mode="normal" in="SourceGraphic" in2="effect1_backgroundBlur_379_12047" result="shape"/>
</filter>
<filter id="filter3_b_379_12047" x="22.6585" y="12.4431" width="33.2563" height="33.2563" filterUnits="userSpaceOnUse" color-interpolation-filters="sRGB">
<feFlood flood-opacity="0" result="BackgroundImageFix"/>
<feGaussianBlur in="BackgroundImageFix" stdDeviation="6.52837"/>
<feComposite in2="SourceAlpha" operator="in" result="effect1_backgroundBlur_379_12047"/>
<feBlend mode="normal" in="SourceGraphic" in2="effect1_backgroundBlur_379_12047" result="shape"/>
</filter>
<linearGradient id="paint0_linear_379_12047" x1="12.3626" y1="10.6562" x2="45.7691" y2="21.2607" gradientUnits="userSpaceOnUse">
<stop stop-color="#6D8FFF"/>
<stop offset="1" stop-color="#2148C9"/>
</linearGradient>
<linearGradient id="paint1_linear_379_12047" x1="-3.57143" y1="14.7857" x2="58.9286" y2="55.8572" gradientUnits="userSpaceOnUse">
<stop stop-color="white"/>
<stop offset="1" stop-color="white" stop-opacity="0"/>
</linearGradient>
<linearGradient id="paint2_linear_379_12047" x1="38.3242" y1="25.0534" x2="52.8464" y2="32.5445" gradientUnits="userSpaceOnUse">
<stop stop-color="#6D8FFF"/>
<stop offset="1" stop-color="#2148C9"/>
</linearGradient>
</defs>
</svg>
