<svg width="50" height="40" viewBox="0 0 50 40" fill="none" xmlns="http://www.w3.org/2000/svg">
<path d="M0 3.22C0 2.08102 0 1.51153 0.225173 1.07805C0.414924 0.712765 0.712765 0.414924 1.07805 0.225173C1.51153 0 2.08102 0 3.22 0H18.5833C19.0678 0 19.3101 0 19.5386 0.0544104C19.7328 0.100668 19.919 0.175751 20.091 0.277163C20.2934 0.396449 20.4679 0.564489 20.8169 0.900569L22.1417 2.17635C22.4907 2.51243 22.6652 2.68047 22.8675 2.79976C23.0395 2.90117 23.2258 2.97625 23.42 3.02251C23.6485 3.07692 23.8907 3.07692 24.3752 3.07692H39.8569C40.9959 3.07692 41.5654 3.07692 41.9989 3.30209C42.3642 3.49185 42.662 3.78969 42.8517 4.15497C43.0769 4.58845 43.0769 5.15794 43.0769 6.29692V36.78C43.0769 37.919 43.0769 38.4885 42.8517 38.9219C42.662 39.2872 42.3642 39.5851 41.9989 39.7748C41.5654 40 40.9959 40 39.8569 40H3.22C2.08102 40 1.51153 40 1.07805 39.7748C0.712765 39.5851 0.414924 39.2872 0.225173 38.9219C0 38.4885 0 37.919 0 36.78V3.22Z" fill="url(#paint0_linear_379_12161)"/>
<g filter="url(#filter0_b_379_12161)">
<path d="M11.6399 13.0728C11.8795 12.248 11.9993 11.8357 12.242 11.5288C12.4564 11.2577 12.7368 11.0471 13.057 10.9169C13.4194 10.7694 13.8506 10.7694 14.7129 10.7694H45.2875C46.6378 10.7694 47.313 10.7694 47.7835 11.0473C48.1962 11.291 48.5076 11.6749 48.6611 12.1289C48.8361 12.6466 48.697 13.3073 48.4189 14.6286L43.6124 37.4594C43.4217 38.3652 43.3264 38.8181 43.0865 39.1565C42.875 39.455 42.5857 39.6897 42.2501 39.8352C41.8695 40.0002 41.4067 40.0002 40.481 40.0002H10.3673C7.3688 40.0002 5.86956 40.0002 5.38614 39.7013C4.85165 39.3708 4.68796 39.1545 4.51509 38.5504C4.35873 38.0039 4.80339 36.4283 5.69272 33.2771C5.858 32.6915 6.04462 32.0507 6.26054 31.3463C7.47022 27.3997 10.3349 17.5647 11.6399 13.0728Z" fill="#FEEC82"/>
<path d="M11.8319 13.1286C12.0765 12.2868 12.1863 11.9216 12.3989 11.6528C12.5918 11.4088 12.8442 11.2194 13.1323 11.1021L13.057 10.917L13.1323 11.1021C13.4497 10.973 13.8327 10.9694 14.7129 10.9694H45.2875C45.9663 10.9694 46.4623 10.9696 46.848 11.0034C47.2319 11.037 47.4839 11.1026 47.6818 11.2195C48.0532 11.4389 48.3335 11.7843 48.4716 12.1929C48.5453 12.4107 48.5576 12.6708 48.5114 13.0535C48.465 13.4378 48.363 13.9232 48.2232 14.5874L43.4167 37.4182C43.3207 37.8739 43.2509 38.2052 43.1758 38.4652C43.1013 38.7228 43.0253 38.897 42.9234 39.0409C42.733 39.3095 42.4726 39.5208 42.1705 39.6517C42.0088 39.7218 41.8226 39.7603 41.5552 39.7801C41.2853 39.8 40.9468 39.8001 40.481 39.8001H10.3673C8.86588 39.8001 7.74707 39.8001 6.94278 39.763C6.54072 39.7445 6.22326 39.7169 5.97921 39.6767C5.73094 39.6359 5.57813 39.5848 5.49132 39.5311C5.23108 39.3702 5.08148 39.2491 4.97448 39.1077C4.86749 38.9664 4.79154 38.7895 4.70737 38.4953C4.67988 38.3993 4.67363 38.2319 4.70658 37.9634C4.73884 37.7004 4.8056 37.3621 4.90639 36.9366C5.10795 36.0857 5.43999 34.909 5.8852 33.3314C6.05014 32.747 6.23634 32.1077 6.45176 31.4049C7.66198 27.4566 10.5272 17.6199 11.8319 13.1286Z" stroke="url(#paint1_linear_379_12161)" stroke-width="0.4"/>
</g>
<path d="M6.35332 4.61533C6.35332 3.87612 6.95257 3.27687 7.69178 3.27687H13.8456C14.5848 3.27687 15.1841 3.87612 15.1841 4.61533C15.1841 5.35455 14.5848 5.9538 13.8456 5.9538H7.69178C6.95257 5.9538 6.35332 5.35455 6.35332 4.61533Z" fill="url(#paint2_linear_379_12161)" fill-opacity="0.9" stroke="url(#paint3_linear_379_12161)" stroke-width="0.4"/>
<defs>
<filter id="filter0_b_379_12161" x="-8.63013" y="-2.34499" width="70.483" height="55.4595" filterUnits="userSpaceOnUse" color-interpolation-filters="sRGB">
<feFlood flood-opacity="0" result="BackgroundImageFix"/>
<feGaussianBlur in="BackgroundImageFix" stdDeviation="6.55719"/>
<feComposite in2="SourceAlpha" operator="in" result="effect1_backgroundBlur_379_12161"/>
<feBlend mode="normal" in="SourceGraphic" in2="effect1_backgroundBlur_379_12161" result="shape"/>
</filter>
<linearGradient id="paint0_linear_379_12161" x1="12.426" y1="8.75" x2="44.9294" y2="20.7874" gradientUnits="userSpaceOnUse">
<stop stop-color="#FFE344"/>
<stop offset="0.984375" stop-color="#E2C51E"/>
</linearGradient>
<linearGradient id="paint1_linear_379_12161" x1="0.769823" y1="12.8573" x2="17.0845" y2="52.1999" gradientUnits="userSpaceOnUse">
<stop stop-color="white"/>
<stop offset="0.765625" stop-color="white" stop-opacity="0"/>
</linearGradient>
<linearGradient id="paint2_linear_379_12161" x1="5.45176" y1="2.87127" x2="18.0854" y2="6.60394" gradientUnits="userSpaceOnUse">
<stop stop-color="white"/>
<stop offset="1" stop-color="white" stop-opacity="0"/>
</linearGradient>
<linearGradient id="paint3_linear_379_12161" x1="4.59038" y1="3.73266" x2="10.7687" y2="6.1538" gradientUnits="userSpaceOnUse">
<stop stop-color="white"/>
<stop offset="1" stop-color="white" stop-opacity="0"/>
</linearGradient>
</defs>
</svg>
