<svg width="40" height="51" viewBox="0 0 40 51" fill="none" xmlns="http://www.w3.org/2000/svg">
<path d="M21.4952 39.7359C25.6232 37.9173 36.4525 31.3649 36.9676 12.5273C36.9913 11.6617 36.5397 10.8437 35.8045 10.3862C26.0768 4.33342 13.7551 4.33342 4.0274 10.3862C3.2922 10.8437 2.84058 11.6617 2.86425 12.5273C3.37939 31.3649 14.2087 37.9173 18.3367 39.7359C19.3486 40.1816 20.4833 40.1816 21.4952 39.7359Z" fill="url(#paint0_linear_379_12144)"/>
<g filter="url(#filter0_b_379_12144)">
<path d="M21.3778 50.0117C25.8462 48.299 39.0653 41.515 39.7998 21.0047C39.8394 19.8987 39.2387 18.8649 38.2777 18.3158C26.8998 11.8141 12.9319 11.8141 1.55397 18.3158C0.593035 18.8649 -0.00772199 19.8987 0.031886 21.0047C0.766362 41.515 13.9855 48.299 18.4539 50.0117C19.4048 50.3761 20.4269 50.3761 21.3778 50.0117Z" fill="#A6DDC9"/>
<path d="M39.5999 20.9976C38.8694 41.3972 25.733 48.1282 21.3062 49.8249C20.4014 50.1717 19.4303 50.1717 18.5255 49.8249C14.0987 48.1282 0.962271 41.3972 0.231758 20.9976C0.194924 19.969 0.753988 19.0033 1.6532 18.4894C12.9697 12.0229 26.862 12.0229 38.1785 18.4894C39.0777 19.0033 39.6368 19.969 39.5999 20.9976Z" stroke="url(#paint1_linear_379_12144)" stroke-width="0.4"/>
</g>
<path d="M18.3519 33.398C18.3894 33.4355 18.4402 33.4566 18.4933 33.4566C18.5463 33.4566 18.5972 33.4355 18.6347 33.398L27.0838 24.949C27.839 24.1938 29.0634 24.1938 29.8186 24.949C30.5738 25.7042 30.5738 26.9286 29.8186 27.6838L19.8607 37.6418C19.498 38.0044 19.0062 38.2082 18.4933 38.2082C17.9804 38.2082 17.4885 38.0044 17.1258 37.6418L11.4356 31.9515C10.6804 31.1963 10.6804 29.9719 11.4356 29.2166C12.1908 28.4614 13.4153 28.4614 14.1705 29.2166L18.3519 33.398Z" fill="url(#paint2_linear_379_12144)" fill-opacity="0.9" stroke="url(#paint3_linear_379_12144)" stroke-width="0.4" stroke-linecap="round" stroke-linejoin="round"/>
<defs>
<filter id="filter0_b_379_12144" x="-12.2776" y="1.13191" width="64.3869" height="61.4607" filterUnits="userSpaceOnUse" color-interpolation-filters="sRGB">
<feFlood flood-opacity="0" result="BackgroundImageFix"/>
<feGaussianBlur in="BackgroundImageFix" stdDeviation="6.15382"/>
<feComposite in2="SourceAlpha" operator="in" result="effect1_backgroundBlur_379_12144"/>
<feBlend mode="normal" in="SourceGraphic" in2="effect1_backgroundBlur_379_12144" result="shape"/>
</filter>
<linearGradient id="paint0_linear_379_12144" x1="10.4384" y1="14.6538" x2="47.5377" y2="42.5752" gradientUnits="userSpaceOnUse">
<stop stop-color="#92D5BD"/>
<stop offset="1" stop-color="#289A71"/>
</linearGradient>
<linearGradient id="paint1_linear_379_12144" x1="0.768099" y1="16.8761" x2="50.1479" y2="53.2909" gradientUnits="userSpaceOnUse">
<stop stop-color="white"/>
<stop offset="0.734375" stop-color="white" stop-opacity="0"/>
</linearGradient>
<linearGradient id="paint2_linear_379_12144" x1="13.7815" y1="29.6064" x2="44.9005" y2="33.2841" gradientUnits="userSpaceOnUse">
<stop stop-color="white"/>
<stop offset="1" stop-color="white" stop-opacity="0"/>
</linearGradient>
<linearGradient id="paint3_linear_379_12144" x1="11.2354" y1="26.2116" x2="23.9659" y2="30.4551" gradientUnits="userSpaceOnUse">
<stop stop-color="white"/>
<stop offset="1" stop-color="white" stop-opacity="0"/>
</linearGradient>
</defs>
</svg>
