<svg width="22" height="22" viewBox="0 0 22 22" fill="none" xmlns="http://www.w3.org/2000/svg">
<path d="M3.25 0H8.25L10.75 6.25L7.625 8.125C8.9637 10.8394 11.1606 13.0363 13.875 14.375L15.75 11.25L22 13.75V18.75C22 19.413 21.7366 20.0489 21.2678 20.5178C20.7989 20.9866 20.163 21.25 19.5 21.25C14.6241 20.9537 10.0252 18.8831 6.57104 15.429C3.11688 11.9748 1.04631 7.37592 0.75 2.5C0.75 1.83696 1.01339 1.20107 1.48223 0.732233C1.95107 0.263392 2.58696 0 3.25 0" fill="url(#paint0_linear_424_1946)"/>
<defs>
<linearGradient id="paint0_linear_424_1946" x1="-5.92151" y1="19.7674" x2="24.718" y2="5.93023" gradientUnits="userSpaceOnUse">
<stop stop-color="#6D8FFF"/>
<stop offset="1" stop-color="#92D5BD"/>
</linearGradient>
</defs>
</svg>
