<svg width="45" height="50" viewBox="0 0 45 50" fill="none" xmlns="http://www.w3.org/2000/svg">
<path d="M2.48654 22.5062C3.08883 19.4088 3.38997 17.86 4.49811 16.9466C5.60625 16.0332 7.18399 16.0332 10.3395 16.0332L34.6028 16.0332C37.7583 16.0332 39.3361 16.0332 40.4442 16.9466C41.5523 17.86 41.8535 19.4088 42.4558 22.5062L43.0898 25.7672C43.9474 30.1775 44.3762 32.3826 43.1762 33.8384C41.9762 35.2942 39.7298 35.2942 35.2369 35.2942H9.7054C5.21253 35.2942 2.9661 35.2942 1.76612 33.8384C0.566137 32.3826 0.994913 30.1775 1.85246 25.7672L2.48654 22.5062Z" fill="url(#paint0_linear_264_7010)"/>
<g filter="url(#filter0_b_264_7010)">
<circle cx="22.7493" cy="12.1594" r="12.1594" fill="#6D8FFF" fill-opacity="0.6"/>
<circle cx="22.7493" cy="12.1594" r="11.9594" stroke="url(#paint1_linear_264_7010)" stroke-width="0.4"/>
</g>
<g filter="url(#filter1_b_264_7010)">
<path d="M2.52051 40.0093C2.52051 45.527 6.99348 50 12.5112 50L32.4925 50C38.0102 50 42.4831 45.527 42.4831 40.0093C42.4831 32.6524 36.5153 26.6885 29.1584 26.6885C24.4111 26.6885 20.5925 26.6885 15.8453 26.6885C8.48839 26.6885 2.52051 32.6524 2.52051 40.0093Z" fill="#6D8FFF" fill-opacity="0.6"/>
<path d="M2.72051 40.0093C2.72051 45.4166 7.10393 49.8 12.5112 49.8L32.4925 49.8C37.8997 49.8 42.2831 45.4166 42.2831 40.0093C42.2831 32.763 36.4049 26.8885 29.1584 26.8885L29.1305 26.8885L29.1028 26.8885L29.075 26.8885L29.0473 26.8885L29.0195 26.8885L28.9918 26.8885L28.9642 26.8885L28.9365 26.8885L28.9089 26.8885L28.8812 26.8885L28.8536 26.8885L28.8261 26.8885L28.7985 26.8885L28.771 26.8885L28.7435 26.8885L28.716 26.8885L28.6885 26.8885L28.661 26.8885L28.6336 26.8885L28.6062 26.8885L28.5788 26.8885L28.5514 26.8885L28.524 26.8885L28.4967 26.8885L28.4694 26.8885L28.4421 26.8885L28.4148 26.8885L28.3875 26.8885L28.3603 26.8885L28.3331 26.8885L28.3059 26.8885L28.2787 26.8885L28.2515 26.8885L28.2244 26.8885L28.1972 26.8885L28.1701 26.8885L28.143 26.8885L28.1159 26.8885L28.0889 26.8885L28.0618 26.8885L28.0348 26.8885L28.0078 26.8885L27.9808 26.8885L27.9539 26.8885L27.9269 26.8885L27.9 26.8885L27.8731 26.8885L27.8462 26.8885L27.8193 26.8885L27.7924 26.8885L27.7656 26.8885L27.7387 26.8885L27.7119 26.8885L27.6851 26.8885L27.6583 26.8885L27.6316 26.8885L27.6048 26.8885L27.5781 26.8885L27.5514 26.8885L27.5247 26.8885L27.498 26.8885L27.4713 26.8885L27.4447 26.8885L27.418 26.8885L27.3914 26.8885L27.3648 26.8885L27.3382 26.8885L27.3117 26.8885L27.2851 26.8885L27.2586 26.8885L27.2321 26.8885L27.2055 26.8885L27.1791 26.8885L27.1526 26.8885L27.1261 26.8885L27.0997 26.8885L27.0732 26.8885L27.0468 26.8885L27.0204 26.8885L26.994 26.8885L26.9676 26.8885L26.9413 26.8885L26.9149 26.8885L26.8886 26.8885L26.8623 26.8885L26.836 26.8885L26.8097 26.8885L26.7834 26.8885L26.7572 26.8885L26.7309 26.8885L26.7047 26.8885L26.6785 26.8885L26.6523 26.8885L26.6261 26.8885L26.5999 26.8885L26.5737 26.8885L26.5476 26.8885L26.5215 26.8885L26.4953 26.8885L26.4692 26.8885L26.4431 26.8885L26.417 26.8885L26.391 26.8885L26.3649 26.8885L26.3388 26.8885L26.3128 26.8885L26.2868 26.8885L26.2608 26.8885L26.2348 26.8885L26.2088 26.8885L26.1828 26.8885L26.1569 26.8885L26.1309 26.8885L26.105 26.8885L26.079 26.8885L26.0531 26.8885L26.0272 26.8885L26.0013 26.8885L25.9755 26.8885L25.9496 26.8885L25.9237 26.8885L25.8979 26.8885L25.872 26.8885L25.8462 26.8885L25.8204 26.8885L25.7946 26.8885L25.7688 26.8885L25.743 26.8885L25.7173 26.8885L25.6915 26.8885L25.6658 26.8885L25.64 26.8885L25.6143 26.8885L25.5886 26.8885L25.5629 26.8885L25.5372 26.8885L25.5115 26.8885L25.4858 26.8885L25.4601 26.8885L25.4345 26.8885L25.4088 26.8885L25.3832 26.8885L25.3576 26.8885L25.3319 26.8885L25.3063 26.8885L25.2807 26.8885L25.2551 26.8885L25.2295 26.8885L25.204 26.8885L25.1784 26.8885L25.1528 26.8885L25.1273 26.8885L25.1018 26.8885L25.0762 26.8885L25.0507 26.8885L25.0252 26.8885L24.9997 26.8885L24.9742 26.8885L24.9487 26.8885L24.9232 26.8885L24.8977 26.8885L24.8723 26.8885L24.8468 26.8885L24.8214 26.8885L24.7959 26.8885L24.7705 26.8885L24.7451 26.8885L24.7196 26.8885L24.6942 26.8885L24.6688 26.8885L24.6434 26.8885L24.618 26.8885L24.5926 26.8885L24.5673 26.8885L24.5419 26.8885L24.5165 26.8885L24.4912 26.8885L24.4658 26.8885L24.4405 26.8885L24.4151 26.8885L24.3898 26.8885L24.3645 26.8885L24.3392 26.8885L24.3139 26.8885L24.2885 26.8885L24.2632 26.8885L24.2379 26.8885L24.2127 26.8885L24.1874 26.8885L24.1621 26.8885L24.1368 26.8885L24.1116 26.8885L24.0863 26.8885L24.061 26.8885L24.0358 26.8885L24.0105 26.8885L23.9853 26.8885L23.9601 26.8885L23.9348 26.8885L23.9096 26.8885L23.8844 26.8885L23.8592 26.8885L23.8339 26.8885L23.8087 26.8885L23.7835 26.8885L23.7583 26.8885L23.7331 26.8885L23.7079 26.8885L23.6827 26.8885L23.6576 26.8885L23.6324 26.8885L23.6072 26.8885L23.582 26.8885L23.5569 26.8885L23.5317 26.8885L23.5065 26.8885L23.4814 26.8885L23.4562 26.8885L23.4311 26.8885L23.4059 26.8885L23.3808 26.8885L23.3556 26.8885L23.3305 26.8885L23.3053 26.8885L23.2802 26.8885L23.2551 26.8885L23.2299 26.8885L23.2048 26.8885L23.1797 26.8885L23.1546 26.8885L23.1294 26.8885L23.1043 26.8885L23.0792 26.8885L23.0541 26.8885L23.029 26.8885L23.0038 26.8885L22.9787 26.8885L22.9536 26.8885L22.9285 26.8885L22.9034 26.8885L22.8783 26.8885L22.8532 26.8885L22.8281 26.8885L22.803 26.8885L22.7779 26.8885L22.7528 26.8885L22.7277 26.8885L22.7026 26.8885L22.6775 26.8885L22.6524 26.8885L22.6273 26.8885L22.6022 26.8885L22.5771 26.8885L22.552 26.8885L22.5269 26.8885L22.5018 26.8885L22.4767 26.8885L22.4516 26.8885L22.4265 26.8885L22.4015 26.8885L22.3764 26.8885L22.3513 26.8885L22.3262 26.8885L22.3011 26.8885L22.276 26.8885L22.2509 26.8885L22.2258 26.8885L22.2007 26.8885L22.1756 26.8885L22.1505 26.8885L22.1254 26.8885L22.1003 26.8885L22.0751 26.8885L22.05 26.8885L22.0249 26.8885L21.9998 26.8885L21.9747 26.8885L21.9496 26.8885L21.9245 26.8885L21.8994 26.8885L21.8742 26.8885L21.8491 26.8885L21.824 26.8885L21.7989 26.8885L21.7737 26.8885L21.7486 26.8885L21.7235 26.8885L21.6983 26.8885L21.6732 26.8885L21.6481 26.8885L21.6229 26.8885L21.5978 26.8885L21.5726 26.8885L21.5475 26.8885L21.5223 26.8885L21.4971 26.8885L21.472 26.8885L21.4468 26.8885L21.4216 26.8885L21.3965 26.8885L21.3713 26.8885L21.3461 26.8885L21.3209 26.8885L21.2957 26.8885L21.2705 26.8885L21.2453 26.8885L21.2201 26.8885L21.1949 26.8885L21.1697 26.8885L21.1445 26.8885L21.1193 26.8885L21.0941 26.8885L21.0688 26.8885L21.0436 26.8885L21.0184 26.8885L20.9931 26.8885L20.9679 26.8885L20.9426 26.8885L20.9174 26.8885L20.8921 26.8885L20.8668 26.8885L20.8416 26.8885L20.8163 26.8885L20.791 26.8885L20.7657 26.8885L20.7404 26.8885L20.7151 26.8885L20.6898 26.8885L20.6645 26.8885L20.6392 26.8885L20.6139 26.8885L20.5885 26.8885L20.5632 26.8885L20.5378 26.8885L20.5125 26.8885L20.4871 26.8885L20.4618 26.8885L20.4364 26.8885L20.411 26.8885L20.3856 26.8885L20.3602 26.8885L20.3348 26.8885L20.3094 26.8885L20.284 26.8885L20.2586 26.8885L20.2332 26.8885L20.2077 26.8885L20.1823 26.8885L20.1568 26.8885L20.1314 26.8885L20.1059 26.8885L20.0805 26.8885L20.055 26.8885L20.0295 26.8885L20.004 26.8885L19.9785 26.8885L19.953 26.8885L19.9274 26.8885L19.9019 26.8885L19.8764 26.8885L19.8508 26.8885L19.8253 26.8885L19.7997 26.8885L19.7741 26.8885L19.7485 26.8885L19.7229 26.8885L19.6973 26.8885L19.6717 26.8885L19.6461 26.8885L19.6205 26.8885L19.5948 26.8885L19.5692 26.8885L19.5435 26.8885L19.5179 26.8885L19.4922 26.8885L19.4665 26.8885L19.4408 26.8885L19.4151 26.8885L19.3894 26.8885L19.3636 26.8885L19.3379 26.8885L19.3122 26.8885L19.2864 26.8885L19.2606 26.8885L19.2348 26.8885L19.2091 26.8885L19.1833 26.8885L19.1574 26.8885L19.1316 26.8885L19.1058 26.8885L19.0799 26.8885L19.0541 26.8885L19.0282 26.8885L19.0023 26.8885L18.9764 26.8885L18.9505 26.8885L18.9246 26.8885L18.8987 26.8885L18.8728 26.8885L18.8468 26.8885L18.8208 26.8885L18.7949 26.8885L18.7689 26.8885L18.7429 26.8885L18.7169 26.8885L18.6909 26.8885L18.6648 26.8885L18.6388 26.8885L18.6127 26.8885L18.5866 26.8885L18.5605 26.8885L18.5345 26.8885L18.5083 26.8885L18.4822 26.8885L18.4561 26.8885L18.4299 26.8885L18.4038 26.8885L18.3776 26.8885L18.3514 26.8885L18.3252 26.8885L18.299 26.8885L18.2727 26.8885L18.2465 26.8885L18.2202 26.8885L18.194 26.8885L18.1677 26.8885L18.1414 26.8885L18.115 26.8885L18.0887 26.8885L18.0624 26.8885L18.036 26.8885L18.0096 26.8885L17.9833 26.8885L17.9568 26.8885L17.9304 26.8885L17.904 26.8885L17.8776 26.8885L17.8511 26.8885L17.8246 26.8885L17.7981 26.8885L17.7716 26.8885L17.7451 26.8885L17.7185 26.8885L17.692 26.8885L17.6654 26.8885L17.6388 26.8885L17.6122 26.8885L17.5856 26.8885L17.559 26.8885L17.5323 26.8885L17.5057 26.8885L17.479 26.8885L17.4523 26.8885L17.4256 26.8885L17.3988 26.8885L17.3721 26.8885L17.3453 26.8885L17.3186 26.8885L17.2918 26.8885L17.2649 26.8885L17.2381 26.8885L17.2113 26.8885L17.1844 26.8885L17.1575 26.8885L17.1306 26.8885L17.1037 26.8885L17.0768 26.8885L17.0498 26.8885L17.0228 26.8885L16.9958 26.8885L16.9688 26.8885L16.9418 26.8885L16.9148 26.8885L16.8877 26.8885L16.8606 26.8885L16.8335 26.8885L16.8064 26.8885L16.7793 26.8885L16.7522 26.8885L16.725 26.8885L16.6978 26.8885L16.6706 26.8885L16.6434 26.8885L16.6161 26.8885L16.5889 26.8885L16.5616 26.8885L16.5343 26.8885L16.507 26.8885L16.4796 26.8885L16.4523 26.8885L16.4249 26.8885L16.3975 26.8885L16.3701 26.8885L16.3426 26.8885L16.3152 26.8885L16.2877 26.8885L16.2602 26.8885L16.2327 26.8885L16.2051 26.8885L16.1776 26.8885L16.15 26.8885L16.1224 26.8885L16.0948 26.8885L16.0672 26.8885L16.0395 26.8885L16.0118 26.8885L15.9841 26.8885L15.9564 26.8885L15.9287 26.8885L15.9009 26.8885L15.8731 26.8885L15.8453 26.8885C8.59877 26.8885 2.72051 32.763 2.72051 40.0093Z" stroke="url(#paint2_linear_264_7010)" stroke-width="0.4"/>
</g>
<defs>
<filter id="filter0_b_264_7010" x="-2.05861" y="-12.6485" width="49.6153" height="49.6158" filterUnits="userSpaceOnUse" color-interpolation-filters="sRGB">
<feFlood flood-opacity="0" result="BackgroundImageFix"/>
<feGaussianBlur in="BackgroundImageFix" stdDeviation="6.32423"/>
<feComposite in2="SourceAlpha" operator="in" result="effect1_backgroundBlur_264_7010"/>
<feBlend mode="normal" in="SourceGraphic" in2="effect1_backgroundBlur_264_7010" result="shape"/>
</filter>
<filter id="filter1_b_264_7010" x="-11.3361" y="12.8319" width="67.6761" height="51.0248" filterUnits="userSpaceOnUse" color-interpolation-filters="sRGB">
<feFlood flood-opacity="0" result="BackgroundImageFix"/>
<feGaussianBlur in="BackgroundImageFix" stdDeviation="6.92831"/>
<feComposite in2="SourceAlpha" operator="in" result="effect1_backgroundBlur_264_7010"/>
<feBlend mode="normal" in="SourceGraphic" in2="effect1_backgroundBlur_264_7010" result="shape"/>
</filter>
<linearGradient id="paint0_linear_264_7010" x1="12.9641" y1="20.2465" x2="36.4222" y2="39.0696" gradientUnits="userSpaceOnUse">
<stop stop-color="#6D8FFF"/>
<stop offset="1" stop-color="#2148C9"/>
</linearGradient>
<linearGradient id="paint1_linear_264_7010" x1="10.5898" y1="4.55978" x2="22.2743" y2="23.75" gradientUnits="userSpaceOnUse">
<stop stop-color="white"/>
<stop offset="0.99715" stop-color="white" stop-opacity="0"/>
</linearGradient>
<linearGradient id="paint2_linear_264_7010" x1="4.39406" y1="28.7611" x2="43.7991" y2="46.9736" gradientUnits="userSpaceOnUse">
<stop stop-color="white"/>
<stop offset="1" stop-color="white" stop-opacity="0"/>
</linearGradient>
</defs>
</svg>
