<svg width="45" height="50" viewBox="0 0 45 50" fill="none" xmlns="http://www.w3.org/2000/svg">
<path d="M2.48654 22.5062C3.08883 19.4088 3.38997 17.86 4.49811 16.9466C5.60625 16.0332 7.18399 16.0332 10.3395 16.0332L34.6028 16.0332C37.7583 16.0332 39.3361 16.0332 40.4442 16.9466C41.5523 17.86 41.8535 19.4088 42.4558 22.5062L43.0898 25.7672C43.9474 30.1775 44.3762 32.3826 43.1762 33.8384C41.9762 35.2942 39.7298 35.2942 35.2369 35.2942H9.7054C5.21253 35.2942 2.9661 35.2942 1.76612 33.8384C0.566137 32.3826 0.994913 30.1775 1.85246 25.7672L2.48654 22.5062Z" fill="url(#paint0_linear_379_11967)"/>
<g filter="url(#filter0_b_379_11967)">
<circle cx="22.749" cy="12.1594" r="12.1594" fill="#A4B9FF"/>
<circle cx="22.749" cy="12.1594" r="11.9594" stroke="url(#paint1_linear_379_11967)" stroke-width="0.4"/>
</g>
<g filter="url(#filter1_b_379_11967)">
<path d="M2.52069 40.0093C2.52069 45.527 6.99366 49.9999 12.5113 49.9999L32.4927 49.9999C38.0104 49.9999 42.4833 45.527 42.4833 40.0093C42.4833 32.6524 36.5155 26.6884 29.1585 26.6884C24.4113 26.6884 20.5927 26.6884 15.8455 26.6884C8.48857 26.6884 2.52069 32.6524 2.52069 40.0093Z" fill="#A4B9FF"/>
<path d="M2.72069 40.0093C2.72069 45.4165 7.10412 49.7999 12.5113 49.7999L32.4927 49.7999C37.8999 49.7999 42.2833 45.4165 42.2833 40.0093C42.2833 32.7629 36.4051 26.8884 29.1585 26.8884L29.1307 26.8884L29.1029 26.8884L29.0752 26.8884L29.0474 26.8884L29.0197 26.8884L28.992 26.8884L28.9643 26.8884L28.9367 26.8884L28.909 26.8884L28.8814 26.8884L28.8538 26.8884L28.8263 26.8884L28.7987 26.8884L28.7712 26.8884L28.7436 26.8884L28.7161 26.8884L28.6887 26.8884L28.6612 26.8884L28.6338 26.8884L28.6064 26.8884L28.579 26.8884L28.5516 26.8884L28.5242 26.8884L28.4969 26.8884L28.4696 26.8884L28.4423 26.8884L28.415 26.8884L28.3877 26.8884L28.3605 26.8884L28.3333 26.8884L28.306 26.8884L28.2789 26.8884L28.2517 26.8884L28.2245 26.8884L28.1974 26.8884L28.1703 26.8884L28.1432 26.8884L28.1161 26.8884L28.0891 26.8884L28.062 26.8884L28.035 26.8884L28.008 26.8884L27.981 26.8884L27.954 26.8884L27.9271 26.8884L27.9002 26.8884L27.8732 26.8884L27.8463 26.8884L27.8195 26.8884L27.7926 26.8884L27.7657 26.8884L27.7389 26.8884L27.7121 26.8884L27.6853 26.8884L27.6585 26.8884L27.6318 26.8884L27.605 26.8884L27.5783 26.8884L27.5516 26.8884L27.5249 26.8884L27.4982 26.8884L27.4715 26.8884L27.4449 26.8884L27.4182 26.8884L27.3916 26.8884L27.365 26.8884L27.3384 26.8884L27.3119 26.8884L27.2853 26.8884L27.2588 26.8884L27.2322 26.8884L27.2057 26.8884L27.1792 26.8884L27.1528 26.8884L27.1263 26.8884L27.0998 26.8884L27.0734 26.8884L27.047 26.8884L27.0206 26.8884L26.9942 26.8884L26.9678 26.8884L26.9415 26.8884L26.9151 26.8884L26.8888 26.8884L26.8625 26.8884L26.8362 26.8884L26.8099 26.8884L26.7836 26.8884L26.7574 26.8884L26.7311 26.8884L26.7049 26.8884L26.6787 26.8884L26.6525 26.8884L26.6263 26.8884L26.6001 26.8884L26.5739 26.8884L26.5478 26.8884L26.5216 26.8884L26.4955 26.8884L26.4694 26.8884L26.4433 26.8884L26.4172 26.8884L26.3911 26.8884L26.3651 26.8884L26.339 26.8884L26.313 26.8884L26.287 26.8884L26.261 26.8884L26.235 26.8884L26.209 26.8884L26.183 26.8884L26.157 26.8884L26.1311 26.8884L26.1052 26.8884L26.0792 26.8884L26.0533 26.8884L26.0274 26.8884L26.0015 26.8884L25.9756 26.8884L25.9498 26.8884L25.9239 26.8884L25.8981 26.8884L25.8722 26.8884L25.8464 26.8884L25.8206 26.8884L25.7948 26.8884L25.769 26.8884L25.7432 26.8884L25.7174 26.8884L25.6917 26.8884L25.6659 26.8884L25.6402 26.8884L25.6145 26.8884L25.5888 26.8884L25.563 26.8884L25.5373 26.8884L25.5117 26.8884L25.486 26.8884L25.4603 26.8884L25.4347 26.8884L25.409 26.8884L25.3834 26.8884L25.3577 26.8884L25.3321 26.8884L25.3065 26.8884L25.2809 26.8884L25.2553 26.8884L25.2297 26.8884L25.2042 26.8884L25.1786 26.8884L25.153 26.8884L25.1275 26.8884L25.1019 26.8884L25.0764 26.8884L25.0509 26.8884L25.0254 26.8884L24.9999 26.8884L24.9744 26.8884L24.9489 26.8884L24.9234 26.8884L24.8979 26.8884L24.8725 26.8884L24.847 26.8884L24.8215 26.8884L24.7961 26.8884L24.7707 26.8884L24.7452 26.8884L24.7198 26.8884L24.6944 26.8884L24.669 26.8884L24.6436 26.8884L24.6182 26.8884L24.5928 26.8884L24.5674 26.8884L24.5421 26.8884L24.5167 26.8884L24.4914 26.8884L24.466 26.8884L24.4407 26.8884L24.4153 26.8884L24.39 26.8884L24.3647 26.8884L24.3393 26.8884L24.314 26.8884L24.2887 26.8884L24.2634 26.8884L24.2381 26.8884L24.2128 26.8884L24.1876 26.8884L24.1623 26.8884L24.137 26.8884L24.1117 26.8884L24.0865 26.8884L24.0612 26.8884L24.036 26.8884L24.0107 26.8884L23.9855 26.8884L23.9602 26.8884L23.935 26.8884L23.9098 26.8884L23.8846 26.8884L23.8593 26.8884L23.8341 26.8884L23.8089 26.8884L23.7837 26.8884L23.7585 26.8884L23.7333 26.8884L23.7081 26.8884L23.6829 26.8884L23.6577 26.8884L23.6326 26.8884L23.6074 26.8884L23.5822 26.8884L23.557 26.8884L23.5319 26.8884L23.5067 26.8884L23.4815 26.8884L23.4564 26.8884L23.4312 26.8884L23.4061 26.8884L23.3809 26.8884L23.3558 26.8884L23.3307 26.8884L23.3055 26.8884L23.2804 26.8884L23.2552 26.8884L23.2301 26.8884L23.205 26.8884L23.1799 26.8884L23.1547 26.8884L23.1296 26.8884L23.1045 26.8884L23.0794 26.8884L23.0543 26.8884L23.0291 26.8884L23.004 26.8884L22.9789 26.8884L22.9538 26.8884L22.9287 26.8884L22.9036 26.8884L22.8785 26.8884L22.8534 26.8884L22.8283 26.8884L22.8032 26.8884L22.7781 26.8884L22.753 26.8884L22.7279 26.8884L22.7028 26.8884L22.6777 26.8884L22.6526 26.8884L22.6275 26.8884L22.6024 26.8884L22.5773 26.8884L22.5522 26.8884L22.5271 26.8884L22.502 26.8884L22.4769 26.8884L22.4518 26.8884L22.4267 26.8884L22.4016 26.8884L22.3765 26.8884L22.3514 26.8884L22.3263 26.8884L22.3012 26.8884L22.2761 26.8884L22.251 26.8884L22.226 26.8884L22.2008 26.8884L22.1757 26.8884L22.1506 26.8884L22.1255 26.8884L22.1004 26.8884L22.0753 26.8884L22.0502 26.8884L22.0251 26.8884L22 26.8884L21.9749 26.8884L21.9498 26.8884L21.9247 26.8884L21.8995 26.8884L21.8744 26.8884L21.8493 26.8884L21.8242 26.8884L21.799 26.8884L21.7739 26.8884L21.7488 26.8884L21.7237 26.8884L21.6985 26.8884L21.6734 26.8884L21.6482 26.8884L21.6231 26.8884L21.5979 26.8884L21.5728 26.8884L21.5476 26.8884L21.5225 26.8884L21.4973 26.8884L21.4722 26.8884L21.447 26.8884L21.4218 26.8884L21.3966 26.8884L21.3715 26.8884L21.3463 26.8884L21.3211 26.8884L21.2959 26.8884L21.2707 26.8884L21.2455 26.8884L21.2203 26.8884L21.1951 26.8884L21.1699 26.8884L21.1447 26.8884L21.1195 26.8884L21.0943 26.8884L21.069 26.8884L21.0438 26.8884L21.0186 26.8884L20.9933 26.8884L20.9681 26.8884L20.9428 26.8884L20.9176 26.8884L20.8923 26.8884L20.867 26.8884L20.8418 26.8884L20.8165 26.8884L20.7912 26.8884L20.7659 26.8884L20.7406 26.8884L20.7153 26.8884L20.69 26.8884L20.6647 26.8884L20.6394 26.8884L20.614 26.8884L20.5887 26.8884L20.5634 26.8884L20.538 26.8884L20.5127 26.8884L20.4873 26.8884L20.462 26.8884L20.4366 26.8884L20.4112 26.8884L20.3858 26.8884L20.3604 26.8884L20.335 26.8884L20.3096 26.8884L20.2842 26.8884L20.2588 26.8884L20.2334 26.8884L20.2079 26.8884L20.1825 26.8884L20.157 26.8884L20.1316 26.8884L20.1061 26.8884L20.0806 26.8884L20.0552 26.8884L20.0297 26.8884L20.0042 26.8884L19.9787 26.8884L19.9531 26.8884L19.9276 26.8884L19.9021 26.8884L19.8766 26.8884L19.851 26.8884L19.8254 26.8884L19.7999 26.8884L19.7743 26.8884L19.7487 26.8884L19.7231 26.8884L19.6975 26.8884L19.6719 26.8884L19.6463 26.8884L19.6207 26.8884L19.595 26.8884L19.5694 26.8884L19.5437 26.8884L19.518 26.8884L19.4924 26.8884L19.4667 26.8884L19.441 26.8884L19.4153 26.8884L19.3896 26.8884L19.3638 26.8884L19.3381 26.8884L19.3123 26.8884L19.2866 26.8884L19.2608 26.8884L19.235 26.8884L19.2092 26.8884L19.1834 26.8884L19.1576 26.8884L19.1318 26.8884L19.106 26.8884L19.0801 26.8884L19.0543 26.8884L19.0284 26.8884L19.0025 26.8884L18.9766 26.8884L18.9507 26.8884L18.9248 26.8884L18.8989 26.8884L18.8729 26.8884L18.847 26.8884L18.821 26.8884L18.7951 26.8884L18.7691 26.8884L18.7431 26.8884L18.7171 26.8884L18.691 26.8884L18.665 26.8884L18.639 26.8884L18.6129 26.8884L18.5868 26.8884L18.5607 26.8884L18.5346 26.8884L18.5085 26.8884L18.4824 26.8884L18.4563 26.8884L18.4301 26.8884L18.4039 26.8884L18.3778 26.8884L18.3516 26.8884L18.3254 26.8884L18.2991 26.8884L18.2729 26.8884L18.2467 26.8884L18.2204 26.8884L18.1941 26.8884L18.1678 26.8884L18.1415 26.8884L18.1152 26.8884L18.0889 26.8884L18.0626 26.8884L18.0362 26.8884L18.0098 26.8884L17.9834 26.8884L17.957 26.8884L17.9306 26.8884L17.9042 26.8884L17.8777 26.8884L17.8513 26.8884L17.8248 26.8884L17.7983 26.8884L17.7718 26.8884L17.7453 26.8884L17.7187 26.8884L17.6922 26.8884L17.6656 26.8884L17.639 26.8884L17.6124 26.8884L17.5858 26.8884L17.5592 26.8884L17.5325 26.8884L17.5059 26.8884L17.4792 26.8884L17.4525 26.8884L17.4258 26.8884L17.399 26.8884L17.3723 26.8884L17.3455 26.8884L17.3187 26.8884L17.2919 26.8884L17.2651 26.8884L17.2383 26.8884L17.2114 26.8884L17.1846 26.8884L17.1577 26.8884L17.1308 26.8884L17.1039 26.8884L17.0769 26.8884L17.05 26.8884L17.023 26.8884L16.996 26.8884L16.969 26.8884L16.942 26.8884L16.915 26.8884L16.8879 26.8884L16.8608 26.8884L16.8337 26.8884L16.8066 26.8884L16.7795 26.8884L16.7523 26.8884L16.7252 26.8884L16.698 26.8884L16.6708 26.8884L16.6436 26.8884L16.6163 26.8884L16.589 26.8884L16.5618 26.8884L16.5345 26.8884L16.5071 26.8884L16.4798 26.8884L16.4524 26.8884L16.4251 26.8884L16.3977 26.8884L16.3703 26.8884L16.3428 26.8884L16.3154 26.8884L16.2879 26.8884L16.2604 26.8884L16.2329 26.8884L16.2053 26.8884L16.1778 26.8884L16.1502 26.8884L16.1226 26.8884L16.095 26.8884L16.0673 26.8884L16.0397 26.8884L16.012 26.8884L15.9843 26.8884L15.9566 26.8884L15.9288 26.8884L15.9011 26.8884L15.8733 26.8884L15.8455 26.8884C8.59895 26.8884 2.72069 32.7629 2.72069 40.0093Z" stroke="url(#paint2_linear_379_11967)" stroke-width="0.4"/>
</g>
<defs>
<filter id="filter0_b_379_11967" x="-2.05882" y="-12.6485" width="49.6158" height="49.6158" filterUnits="userSpaceOnUse" color-interpolation-filters="sRGB">
<feFlood flood-opacity="0" result="BackgroundImageFix"/>
<feGaussianBlur in="BackgroundImageFix" stdDeviation="6.32423"/>
<feComposite in2="SourceAlpha" operator="in" result="effect1_backgroundBlur_379_11967"/>
<feBlend mode="normal" in="SourceGraphic" in2="effect1_backgroundBlur_379_11967" result="shape"/>
</filter>
<filter id="filter1_b_379_11967" x="-11.3359" y="12.8318" width="67.6759" height="51.0248" filterUnits="userSpaceOnUse" color-interpolation-filters="sRGB">
<feFlood flood-opacity="0" result="BackgroundImageFix"/>
<feGaussianBlur in="BackgroundImageFix" stdDeviation="6.92831"/>
<feComposite in2="SourceAlpha" operator="in" result="effect1_backgroundBlur_379_11967"/>
<feBlend mode="normal" in="SourceGraphic" in2="effect1_backgroundBlur_379_11967" result="shape"/>
</filter>
<linearGradient id="paint0_linear_379_11967" x1="12.9641" y1="20.2465" x2="36.4222" y2="39.0696" gradientUnits="userSpaceOnUse">
<stop stop-color="#6D8FFF"/>
<stop offset="1" stop-color="#2148C9"/>
</linearGradient>
<linearGradient id="paint1_linear_379_11967" x1="10.5896" y1="4.55978" x2="22.2741" y2="23.75" gradientUnits="userSpaceOnUse">
<stop stop-color="white"/>
<stop offset="0.99715" stop-color="white" stop-opacity="0"/>
</linearGradient>
<linearGradient id="paint2_linear_379_11967" x1="4.39424" y1="28.7611" x2="43.7993" y2="46.9735" gradientUnits="userSpaceOnUse">
<stop stop-color="white"/>
<stop offset="1" stop-color="white" stop-opacity="0"/>
</linearGradient>
</defs>
</svg>
