<svg width="20" height="15" viewBox="0 0 20 15" fill="none" xmlns="http://www.w3.org/2000/svg">
<path d="M14 13V15H0V13C0 13 0 8.99999 7 8.99999C14 8.99999 14 13 14 13ZM10.5 3.49999C10.5 2.80776 10.2947 2.13107 9.91014 1.5555C9.52556 0.979924 8.97893 0.53132 8.33939 0.266413C7.69985 0.00150663 6.99612 -0.067805 6.31718 0.0672432C5.63825 0.202291 5.01461 0.535634 4.52513 1.02512C4.03564 1.5146 3.7023 2.13824 3.56725 2.81718C3.4322 3.49611 3.50152 4.19984 3.76642 4.83938C4.03133 5.47892 4.47993 6.02555 5.0555 6.41014C5.63108 6.79472 6.30777 6.99999 7 6.99999C7.92826 6.99999 8.8185 6.63124 9.47487 5.97486C10.1313 5.31849 10.5 4.42825 10.5 3.49999ZM13.94 8.99999C14.5547 9.47574 15.0578 10.0804 15.4137 10.7715C15.7696 11.4626 15.9697 12.2232 16 13V15H20V13C20 13 20 9.36999 13.94 8.99999ZM13 -8.45615e-06C12.3117 -0.00384117 11.6385 0.201947 11.07 0.589992C11.6774 1.43873 12.0041 2.45628 12.0041 3.49999C12.0041 4.54371 11.6774 5.56125 11.07 6.40999C11.6385 6.79804 12.3117 7.00382 13 6.99999C13.9283 6.99999 14.8185 6.63124 15.4749 5.97486C16.1313 5.31849 16.5 4.42825 16.5 3.49999C16.5 2.57173 16.1313 1.6815 15.4749 1.02512C14.8185 0.368741 13.9283 -8.45615e-06 13 -8.45615e-06Z" fill="white"/>
</svg>
