<svg width="48" height="51" viewBox="0 0 48 51" fill="none" xmlns="http://www.w3.org/2000/svg">
<path d="M28.6969 6.37671C31.2557 3.6064 32.5351 2.22125 34.1907 2.15555C35.8462 2.08985 37.2314 3.36927 40.0017 5.9281L41.9084 7.68927C44.6787 10.2481 46.0639 11.5275 46.1296 13.1831C46.1953 14.8386 44.9159 16.2238 42.357 18.9941L38.493 23.1775C35.9342 25.9478 34.6547 27.333 32.9992 27.3986C31.3436 27.4643 29.9585 26.1849 27.1882 23.6261L25.2814 21.8649C22.5111 19.3061 21.126 18.0267 21.0603 16.3711C20.9946 14.7156 22.274 13.3304 24.8328 10.5601L28.6969 6.37671Z" fill="url(#paint0_linear_548_11254)"/>
<g filter="url(#filter0_b_548_11254)">
<mask id="path-2-inside-1_548_11254" fill="white">
<path d="M25.7139 9.60674C26.8753 8.34936 28.8361 8.27155 30.0935 9.43295L39.2002 17.8445C40.4576 19.0059 40.5354 20.9667 39.374 22.2241L21.6129 41.4531C20.8507 42.2784 19.8784 42.881 18.8002 43.1964L13.5105 44.7441L5.31445 37.1738L6.43783 31.7778C6.66687 30.6779 7.19052 29.661 7.9528 28.8357L25.7139 9.60674Z"/>
</mask>
<path d="M25.7139 9.60674C26.8753 8.34936 28.8361 8.27155 30.0935 9.43295L39.2002 17.8445C40.4576 19.0059 40.5354 20.9667 39.374 22.2241L21.6129 41.4531C20.8507 42.2784 19.8784 42.881 18.8002 43.1964L13.5105 44.7441L5.31445 37.1738L6.43783 31.7778C6.66687 30.6779 7.19052 29.661 7.9528 28.8357L25.7139 9.60674Z" fill="#92D5BD" fill-opacity="0.6"/>
<path d="M30.0935 9.43295L29.6783 9.88244L30.0935 9.43295ZM25.7139 9.60674L25.2644 9.19157V9.19157L25.7139 9.60674ZM39.2002 17.8445L38.7851 18.294L39.2002 17.8445ZM39.374 22.2241L39.8235 22.6393L39.374 22.2241ZM21.6129 41.4531L21.1635 41.0379L21.6129 41.4531ZM18.8002 43.1964L18.972 43.7837L18.8002 43.1964ZM13.5105 44.7441L13.0953 45.1936L13.3498 45.4287L13.6823 45.3314L13.5105 44.7441ZM5.31445 37.1738L4.7154 37.0491L4.6448 37.3882L4.89927 37.6233L5.31445 37.1738ZM6.43783 31.7778L5.83878 31.653L5.83878 31.6531L6.43783 31.7778ZM7.9528 28.8357L7.50331 28.4206H7.50331L7.9528 28.8357ZM30.5087 8.98346C29.003 7.59276 26.6551 7.68594 25.2644 9.19157L26.1634 10.0219C27.0955 9.01279 28.6692 8.95034 29.6783 9.88244L30.5087 8.98346ZM39.6154 17.395L30.5087 8.98346L29.6783 9.88244L38.7851 18.294L39.6154 17.395ZM39.8235 22.6393C41.2142 21.1337 41.1211 18.7857 39.6154 17.395L38.7851 18.294C39.7942 19.2261 39.8567 20.7998 38.9245 21.8089L39.8235 22.6393ZM22.0624 41.8683L39.8235 22.6393L38.9245 21.8089L21.1635 41.0379L22.0624 41.8683ZM18.972 43.7837C20.1567 43.4371 21.2249 42.775 22.0624 41.8683L21.1635 41.0379C20.4764 41.7817 19.6002 42.3248 18.6284 42.6092L18.972 43.7837ZM13.6823 45.3314L18.972 43.7837L18.6284 42.6092L13.3386 44.1569L13.6823 45.3314ZM13.9256 44.2946L5.72963 36.7243L4.89927 37.6233L13.0953 45.1936L13.9256 44.2946ZM7.50331 28.4206C6.66578 29.3273 6.09044 30.4446 5.83878 31.653L7.03687 31.9025C7.2433 30.9113 7.71526 29.9947 8.40229 29.2509L7.50331 28.4206ZM25.2644 9.19157L7.50331 28.4206L8.40229 29.2509L26.1634 10.0219L25.2644 9.19157ZM5.9135 37.2985L7.03688 31.9025L5.83878 31.6531L4.7154 37.0491L5.9135 37.2985Z" fill="url(#paint1_linear_548_11254)" mask="url(#path-2-inside-1_548_11254)"/>
</g>
<rect x="-0.28262" y="0.0112153" width="11.9971" height="2.69927" rx="1.34964" transform="matrix(-0.734589 -0.678512 -0.678513 0.734589 36.6165 19.9323)" fill="url(#paint2_linear_548_11254)" fill-opacity="0.9" stroke="url(#paint3_linear_548_11254)" stroke-width="0.4"/>
<path d="M13.5125 44.7442L5.31641 37.1738L3.63233 45.2606C3.39382 46.4059 4.46179 47.3924 5.58457 47.0638L13.5125 44.7442Z" fill="url(#paint4_linear_548_11254)"/>
<defs>
<filter id="filter0_b_548_11254" x="-7.74814" y="-4.45224" width="61.0075" height="62.259" filterUnits="userSpaceOnUse" color-interpolation-filters="sRGB">
<feFlood flood-opacity="0" result="BackgroundImageFix"/>
<feGaussianBlur in="BackgroundImageFix" stdDeviation="6.53129"/>
<feComposite in2="SourceAlpha" operator="in" result="effect1_backgroundBlur_548_11254"/>
<feBlend mode="normal" in="SourceGraphic" in2="effect1_backgroundBlur_548_11254" result="shape"/>
</filter>
<linearGradient id="paint0_linear_548_11254" x1="34.8454" y1="7.62581" x2="42.6932" y2="20.7652" gradientUnits="userSpaceOnUse">
<stop stop-color="#92D5BD"/>
<stop offset="1" stop-color="#289A71"/>
</linearGradient>
<linearGradient id="paint1_linear_548_11254" x1="2.02642" y1="9.23762" x2="27.2445" y2="43.2316" gradientUnits="userSpaceOnUse">
<stop stop-color="white"/>
<stop offset="0.765625" stop-color="white" stop-opacity="0"/>
</linearGradient>
<linearGradient id="paint2_linear_548_11254" x1="12.6338" y1="1.72814" x2="-5.2599" y2="1.27241" gradientUnits="userSpaceOnUse">
<stop stop-color="#FCFDFE"/>
<stop offset="1" stop-color="#FCFDFE" stop-opacity="0"/>
</linearGradient>
<linearGradient id="paint3_linear_548_11254" x1="12.2612" y1="2.13152" x2="6.19854" y2="3.09927" gradientUnits="userSpaceOnUse">
<stop stop-color="white"/>
<stop offset="1" stop-color="white" stop-opacity="0"/>
</linearGradient>
<linearGradient id="paint4_linear_548_11254" x1="6.51768" y1="40.6167" x2="9.62439" y2="48.6337" gradientUnits="userSpaceOnUse">
<stop stop-color="#92D5BD"/>
<stop offset="1" stop-color="#289A71"/>
</linearGradient>
</defs>
</svg>
