<svg width="48" height="51" viewBox="0 0 48 51" fill="none" xmlns="http://www.w3.org/2000/svg">
<path d="M28.6969 6.59107C31.2557 3.82076 32.5351 2.4356 34.1907 2.36991C35.8462 2.30421 37.2314 3.58362 40.0017 6.14246L41.9084 7.90363C44.6787 10.4625 46.0639 11.7419 46.1296 13.3974C46.1953 15.053 44.9159 16.4381 42.357 19.2084L38.493 23.3918C35.9342 26.1622 34.6547 27.5473 32.9992 27.613C31.3436 27.6787 29.9585 26.3993 27.1882 23.8405L25.2814 22.0793C22.5111 19.5205 21.126 18.241 21.0603 16.5855C20.9946 14.9299 22.274 13.5448 24.8328 10.7745L28.6969 6.59107Z" fill="url(#paint0_linear_548_11254)"/>
<mask id="path-2-inside-1_548_11254" fill="white">
<path d="M25.7139 9.8211C26.8753 8.56372 28.8361 8.48591 30.0935 9.6473L39.2002 18.0589C40.4576 19.2203 40.5354 21.1811 39.374 22.4385L21.6129 41.6675C20.8507 42.4927 19.8784 43.0953 18.8002 43.4108L13.5105 44.9585L5.31445 37.3881L6.43783 31.9921C6.66687 30.8923 7.19052 29.8754 7.9528 29.0501L25.7139 9.8211Z"/>
</mask>
<path d="M25.7139 9.8211C26.8753 8.56372 28.8361 8.48591 30.0935 9.6473L39.2002 18.0589C40.4576 19.2203 40.5354 21.1811 39.374 22.4385L21.6129 41.6675C20.8507 42.4927 19.8784 43.0953 18.8002 43.4108L13.5105 44.9585L5.31445 37.3881L6.43783 31.9921C6.66687 30.8923 7.19052 29.8754 7.9528 29.0501L25.7139 9.8211Z" fill="#A8DDCA"/>
<path d="M30.0935 9.6473L29.6783 10.0968L30.0935 9.6473ZM25.7139 9.8211L25.2644 9.40592V9.40592L25.7139 9.8211ZM39.2002 18.0589L38.7851 18.5084L39.2002 18.0589ZM39.374 22.4385L39.8235 22.8536L39.374 22.4385ZM21.6129 41.6675L21.1635 41.2523L21.6129 41.6675ZM18.8002 43.4108L18.972 43.9981L18.8002 43.4108ZM13.5105 44.9585L13.0953 45.408L13.3498 45.6431L13.6823 45.5458L13.5105 44.9585ZM5.31445 37.3881L4.7154 37.2634L4.6448 37.6026L4.89927 37.8376L5.31445 37.3881ZM6.43783 31.9921L5.83878 31.8674L5.83878 31.8674L6.43783 31.9921ZM7.9528 29.0501L7.50331 28.6349H7.50331L7.9528 29.0501ZM30.5087 9.19781C29.003 7.80712 26.6551 7.90029 25.2644 9.40592L26.1634 10.2363C27.0955 9.22714 28.6692 9.1647 29.6783 10.0968L30.5087 9.19781ZM39.6154 17.6094L30.5087 9.19781L29.6783 10.0968L38.7851 18.5084L39.6154 17.6094ZM39.8235 22.8536C41.2142 21.348 41.1211 19.0001 39.6154 17.6094L38.7851 18.5084C39.7942 19.4405 39.8567 21.0141 38.9245 22.0233L39.8235 22.8536ZM22.0624 42.0826L39.8235 22.8536L38.9245 22.0233L21.1635 41.2523L22.0624 42.0826ZM18.972 43.9981C20.1567 43.6514 21.2249 42.9894 22.0624 42.0826L21.1635 41.2523C20.4764 41.9961 19.6002 42.5392 18.6284 42.8235L18.972 43.9981ZM13.6823 45.5458L18.972 43.9981L18.6284 42.8235L13.3386 44.3712L13.6823 45.5458ZM13.9256 44.509L5.72963 36.9386L4.89927 37.8376L13.0953 45.408L13.9256 44.509ZM7.50331 28.6349C6.66578 29.5417 6.09044 30.659 5.83878 31.8674L7.03687 32.1169C7.2433 31.1256 7.71526 30.2091 8.40229 29.4653L7.50331 28.6349ZM25.2644 9.40592L7.50331 28.6349L8.40229 29.4653L26.1634 10.2363L25.2644 9.40592ZM5.9135 37.5129L7.03688 32.1169L5.83878 31.8674L4.7154 37.2634L5.9135 37.5129Z" fill="url(#paint1_linear_548_11254)" mask="url(#path-2-inside-1_548_11254)"/>
<rect x="-0.28262" y="0.0112153" width="11.9971" height="2.69927" rx="1.34964" transform="matrix(-0.734589 -0.678512 -0.678513 0.734589 36.6165 20.1467)" fill="url(#paint2_linear_548_11254)" fill-opacity="0.9" stroke="url(#paint3_linear_548_11254)" stroke-width="0.4"/>
<path d="M13.5125 44.9586L5.31641 37.3882L3.63233 45.475C3.39382 46.6203 4.46179 47.6067 5.58457 47.2782L13.5125 44.9586Z" fill="url(#paint4_linear_548_11254)"/>
<defs>
<linearGradient id="paint0_linear_548_11254" x1="34.8454" y1="7.84016" x2="42.6932" y2="20.9795" gradientUnits="userSpaceOnUse">
<stop stop-color="#92D5BD"/>
<stop offset="1" stop-color="#289A71"/>
</linearGradient>
<linearGradient id="paint1_linear_548_11254" x1="2.02642" y1="9.45197" x2="27.2445" y2="43.4459" gradientUnits="userSpaceOnUse">
<stop stop-color="white"/>
<stop offset="0.765625" stop-color="white" stop-opacity="0"/>
</linearGradient>
<linearGradient id="paint2_linear_548_11254" x1="12.6338" y1="1.72814" x2="-5.2599" y2="1.27241" gradientUnits="userSpaceOnUse">
<stop stop-color="#FCFDFE"/>
<stop offset="1" stop-color="#FCFDFE" stop-opacity="0"/>
</linearGradient>
<linearGradient id="paint3_linear_548_11254" x1="12.2612" y1="2.13152" x2="6.19854" y2="3.09927" gradientUnits="userSpaceOnUse">
<stop stop-color="white"/>
<stop offset="1" stop-color="white" stop-opacity="0"/>
</linearGradient>
<linearGradient id="paint4_linear_548_11254" x1="6.51768" y1="40.8311" x2="9.62439" y2="48.848" gradientUnits="userSpaceOnUse">
<stop stop-color="#92D5BD"/>
<stop offset="1" stop-color="#289A71"/>
</linearGradient>
</defs>
</svg>