<svg width="47" height="50" viewBox="0 0 47 50" fill="none" xmlns="http://www.w3.org/2000/svg">
<path d="M0 17.0954C0 14.1768 0 12.7175 0.449073 11.5567C1.1264 9.80589 2.51048 8.42181 4.26126 7.74448C5.42204 7.29541 6.88136 7.29541 9.8 7.29541H36.8667C39.7853 7.29541 41.2446 7.29541 42.4054 7.74448C44.1562 8.42181 45.5403 9.80589 46.2176 11.5567C46.6667 12.7175 46.6667 14.1768 46.6667 17.0954V31.4621H0V17.0954Z" fill="url(#paint0_linear_562_10843)"/>
<rect x="6.97196" y="0.305948" width="9.3881" height="12.7214" rx="4.69405" fill="#FFEE8C" stroke="url(#paint1_linear_562_10843)" stroke-width="0.611895"/>
<rect x="30.3059" y="0.305948" width="9.3881" height="12.7214" rx="4.69405" fill="#FFEE8C" stroke="url(#paint2_linear_562_10843)" stroke-width="0.611895"/>
<path d="M0.2 29.4668C0.2 27.2232 0.200156 25.5526 0.308329 24.2287C0.416312 22.907 0.630935 21.9484 1.05015 21.1256C1.79796 19.658 2.99121 18.4647 4.45887 17.7169C5.28163 17.2977 6.24025 17.0831 7.5619 16.9751C8.88589 16.8669 10.5565 16.8667 12.8 16.8667H33.8667C36.1102 16.8667 37.7808 16.8669 39.1048 16.9751C40.4264 17.0831 41.385 17.2977 42.2078 17.7169C43.6755 18.4647 44.8687 19.658 45.6165 21.1256C46.0357 21.9484 46.2503 22.907 46.3583 24.2287C46.4665 25.5526 46.4667 27.2232 46.4667 29.4668V37.2001C46.4667 39.4436 46.4665 41.1142 46.3583 42.4382C46.2503 43.7598 46.0357 44.7184 45.6165 45.5412C44.8687 47.0089 43.6755 48.2021 42.2078 48.9499C41.385 49.3691 40.4264 49.5838 39.1048 49.6917C37.7808 49.7999 36.1102 49.8001 33.8667 49.8001H12.8C10.5565 49.8001 8.88589 49.7999 7.5619 49.6917C6.24025 49.5838 5.28163 49.3691 4.45887 48.9499C2.99121 48.2021 1.79796 47.0089 1.05015 45.5412C0.630935 44.7184 0.416312 43.7598 0.308329 42.4382C0.200156 41.1142 0.2 39.4436 0.2 37.2001V29.4668Z" fill="#FFEE8C" stroke="url(#paint3_linear_562_10843)" stroke-width="0.4"/>
<rect x="33.0892" y="26.9115" width="2.84382" height="19.5105" rx="1.42191" transform="rotate(90 33.0892 26.9115)" fill="url(#paint4_linear_562_10843)" fill-opacity="0.9" stroke="url(#paint5_linear_562_10843)" stroke-width="0.489516"/>
<rect x="33.0892" y="36.9115" width="2.84382" height="19.5105" rx="1.42191" transform="rotate(90 33.0892 36.9115)" fill="url(#paint6_linear_562_10843)" fill-opacity="0.9" stroke="url(#paint7_linear_562_10843)" stroke-width="0.489516"/>
<defs>
<linearGradient id="paint0_linear_562_10843" x1="-4.87443" y1="19.3967" x2="9.60741" y2="33.4043" gradientUnits="userSpaceOnUse">
<stop stop-color="#FFE344"/>
<stop offset="1" stop-color="#E2C51E"/>
</linearGradient>
<linearGradient id="paint1_linear_562_10843" x1="6.16602" y1="0.952381" x2="16.5857" y2="12.8876" gradientUnits="userSpaceOnUse">
<stop stop-color="white"/>
<stop offset="0.765625" stop-color="white" stop-opacity="0"/>
</linearGradient>
<linearGradient id="paint2_linear_562_10843" x1="29.5" y1="0.952381" x2="39.9196" y2="12.8876" gradientUnits="userSpaceOnUse">
<stop stop-color="white"/>
<stop offset="0.765625" stop-color="white" stop-opacity="0"/>
</linearGradient>
<linearGradient id="paint3_linear_562_10843" x1="-2.33333" y1="19.0477" x2="17.844" y2="62.1904" gradientUnits="userSpaceOnUse">
<stop stop-color="white"/>
<stop offset="0.765625" stop-color="white" stop-opacity="0"/>
</linearGradient>
<linearGradient id="paint4_linear_562_10843" x1="39.1662" y1="24.3061" x2="34.8739" y2="43.3149" gradientUnits="userSpaceOnUse">
<stop stop-color="white" stop-opacity="0"/>
<stop offset="0.979167" stop-color="white"/>
</linearGradient>
<linearGradient id="paint5_linear_562_10843" x1="35.0007" y1="26.6667" x2="35.0007" y2="46.6667" gradientUnits="userSpaceOnUse">
<stop stop-color="white" stop-opacity="0"/>
<stop offset="1" stop-color="white"/>
</linearGradient>
<linearGradient id="paint6_linear_562_10843" x1="37.7508" y1="36.4523" x2="34.6849" y2="52.3951" gradientUnits="userSpaceOnUse">
<stop stop-color="white" stop-opacity="0"/>
<stop offset="0.979167" stop-color="white"/>
</linearGradient>
<linearGradient id="paint7_linear_562_10843" x1="35.0007" y1="36.6667" x2="35.0007" y2="56.6667" gradientUnits="userSpaceOnUse">
<stop stop-color="white" stop-opacity="0"/>
<stop offset="1" stop-color="white"/>
</linearGradient>
</defs>
</svg>
