<svg width="47" height="50" viewBox="0 0 47 50" fill="none" xmlns="http://www.w3.org/2000/svg">
<g filter="url(#filter0_b_379_12324)">
<path d="M0 17.0953C0 14.1767 0 12.7174 0.449073 11.5566C1.1264 9.8058 2.51048 8.42172 4.26126 7.74439C5.42204 7.29532 6.88136 7.29532 9.8 7.29532H36.8667C39.7853 7.29532 41.2446 7.29532 42.4054 7.74439C44.1562 8.42172 45.5403 9.8058 46.2176 11.5566C46.6667 12.7174 46.6667 14.1767 46.6667 17.0953V31.462H0V17.0953Z" fill="url(#paint0_linear_379_12324)"/>
</g>
<g filter="url(#filter1_b_379_12324)">
<rect x="6.66626" width="10" height="13.3333" rx="5" fill="#FFE344" fill-opacity="0.6"/>
<rect x="6.97221" y="0.305948" width="9.3881" height="12.7214" rx="4.69405" stroke="url(#paint1_linear_379_12324)" stroke-width="0.611895"/>
</g>
<g filter="url(#filter2_b_379_12324)">
<rect x="29.9998" width="10" height="13.3333" rx="5" fill="#FFE344" fill-opacity="0.6"/>
<rect x="30.3057" y="0.305948" width="9.3881" height="12.7214" rx="4.69405" stroke="url(#paint2_linear_379_12324)" stroke-width="0.611895"/>
</g>
<g filter="url(#filter3_b_379_12324)">
<path d="M0 29.4667C0 24.9863 0 22.746 0.871948 21.0347C1.63893 19.5295 2.86278 18.3056 4.36808 17.5386C6.07937 16.6667 8.31958 16.6667 12.8 16.6667H33.8667C38.3471 16.6667 40.5873 16.6667 42.2986 17.5386C43.8039 18.3056 45.0277 19.5295 45.7947 21.0347C46.6667 22.746 46.6667 24.9863 46.6667 29.4667V37.2C46.6667 41.6804 46.6667 43.9206 45.7947 45.6319C45.0277 47.1372 43.8039 48.3611 42.2986 49.1281C40.5873 50 38.3471 50 33.8667 50H12.8C8.31958 50 6.07937 50 4.36808 49.1281C2.86278 48.3611 1.63893 47.1372 0.871948 45.6319C0 43.9206 0 41.6804 0 37.2V29.4667Z" fill="#FFEE8C"/>
<path d="M0.2 29.4667C0.2 27.2232 0.200156 25.5526 0.308329 24.2286C0.416312 22.9069 0.630935 21.9483 1.05015 21.1255C1.79796 19.6579 2.99121 18.4646 4.45887 17.7168C5.28163 17.2976 6.24025 17.083 7.5619 16.975C8.88589 16.8668 10.5565 16.8667 12.8 16.8667H33.8667C36.1102 16.8667 37.7808 16.8668 39.1048 16.975C40.4264 17.083 41.385 17.2976 42.2078 17.7168C43.6755 18.4646 44.8687 19.6579 45.6165 21.1255C46.0357 21.9483 46.2503 22.9069 46.3583 24.2286C46.4665 25.5526 46.4667 27.2232 46.4667 29.4667V37.2C46.4667 39.4435 46.4665 41.1141 46.3583 42.4381C46.2503 43.7597 46.0357 44.7184 45.6165 45.5411C44.8687 47.0088 43.6755 48.202 42.2078 48.9499C41.385 49.3691 40.4264 49.5837 39.1048 49.6917C37.7808 49.7998 36.1102 49.8 33.8667 49.8H12.8C10.5565 49.8 8.88589 49.7998 7.5619 49.6917C6.24025 49.5837 5.28163 49.3691 4.45887 48.9499C2.99121 48.202 1.79796 47.0088 1.05015 45.5411C0.630935 44.7184 0.416312 43.7597 0.308329 42.4381C0.200156 41.1141 0.2 39.4435 0.2 37.2V29.4667Z" stroke="url(#paint3_linear_379_12324)" stroke-width="0.4"/>
</g>
<g filter="url(#filter4_b_379_12324)">
<rect x="33.3337" y="26.6667" width="3.33333" height="20" rx="1.66667" transform="rotate(90 33.3337 26.6667)" fill="url(#paint4_linear_379_12324)" fill-opacity="0.9"/>
<rect x="33.089" y="26.9114" width="2.84382" height="19.5105" rx="1.42191" transform="rotate(90 33.089 26.9114)" stroke="url(#paint5_linear_379_12324)" stroke-width="0.489516"/>
</g>
<g filter="url(#filter5_b_379_12324)">
<rect x="33.3337" y="36.6667" width="3.33333" height="20" rx="1.66667" transform="rotate(90 33.3337 36.6667)" fill="url(#paint6_linear_379_12324)" fill-opacity="0.9"/>
<rect x="33.089" y="36.9114" width="2.84382" height="19.5105" rx="1.42191" transform="rotate(90 33.089 36.9114)" stroke="url(#paint7_linear_379_12324)" stroke-width="0.489516"/>
</g>
<defs>
<filter id="filter0_b_379_12324" x="-13.3053" y="-6.00995" width="73.2773" height="50.7772" filterUnits="userSpaceOnUse" color-interpolation-filters="sRGB">
<feFlood flood-opacity="0" result="BackgroundImageFix"/>
<feGaussianBlur in="BackgroundImageFix" stdDeviation="6.65263"/>
<feComposite in2="SourceAlpha" operator="in" result="effect1_backgroundBlur_379_12324"/>
<feBlend mode="normal" in="SourceGraphic" in2="effect1_backgroundBlur_379_12324" result="shape"/>
</filter>
<filter id="filter1_b_379_12324" x="-6.63901" y="-13.3053" width="36.6105" height="39.9439" filterUnits="userSpaceOnUse" color-interpolation-filters="sRGB">
<feFlood flood-opacity="0" result="BackgroundImageFix"/>
<feGaussianBlur in="BackgroundImageFix" stdDeviation="6.65263"/>
<feComposite in2="SourceAlpha" operator="in" result="effect1_backgroundBlur_379_12324"/>
<feBlend mode="normal" in="SourceGraphic" in2="effect1_backgroundBlur_379_12324" result="shape"/>
</filter>
<filter id="filter2_b_379_12324" x="16.6945" y="-13.3053" width="36.6105" height="39.9439" filterUnits="userSpaceOnUse" color-interpolation-filters="sRGB">
<feFlood flood-opacity="0" result="BackgroundImageFix"/>
<feGaussianBlur in="BackgroundImageFix" stdDeviation="6.65263"/>
<feComposite in2="SourceAlpha" operator="in" result="effect1_backgroundBlur_379_12324"/>
<feBlend mode="normal" in="SourceGraphic" in2="effect1_backgroundBlur_379_12324" result="shape"/>
</filter>
<filter id="filter3_b_379_12324" x="-13.3053" y="3.36141" width="73.2773" height="59.9439" filterUnits="userSpaceOnUse" color-interpolation-filters="sRGB">
<feFlood flood-opacity="0" result="BackgroundImageFix"/>
<feGaussianBlur in="BackgroundImageFix" stdDeviation="6.65263"/>
<feComposite in2="SourceAlpha" operator="in" result="effect1_backgroundBlur_379_12324"/>
<feBlend mode="normal" in="SourceGraphic" in2="effect1_backgroundBlur_379_12324" result="shape"/>
</filter>
<filter id="filter4_b_379_12324" x="0.0284748" y="13.3614" width="46.6105" height="29.9439" filterUnits="userSpaceOnUse" color-interpolation-filters="sRGB">
<feFlood flood-opacity="0" result="BackgroundImageFix"/>
<feGaussianBlur in="BackgroundImageFix" stdDeviation="6.65263"/>
<feComposite in2="SourceAlpha" operator="in" result="effect1_backgroundBlur_379_12324"/>
<feBlend mode="normal" in="SourceGraphic" in2="effect1_backgroundBlur_379_12324" result="shape"/>
</filter>
<filter id="filter5_b_379_12324" x="0.0284748" y="23.3614" width="46.6105" height="29.9439" filterUnits="userSpaceOnUse" color-interpolation-filters="sRGB">
<feFlood flood-opacity="0" result="BackgroundImageFix"/>
<feGaussianBlur in="BackgroundImageFix" stdDeviation="6.65263"/>
<feComposite in2="SourceAlpha" operator="in" result="effect1_backgroundBlur_379_12324"/>
<feBlend mode="normal" in="SourceGraphic" in2="effect1_backgroundBlur_379_12324" result="shape"/>
</filter>
<linearGradient id="paint0_linear_379_12324" x1="-4.87443" y1="19.3966" x2="9.60741" y2="33.4042" gradientUnits="userSpaceOnUse">
<stop stop-color="#FFE344"/>
<stop offset="1" stop-color="#E2C51E"/>
</linearGradient>
<linearGradient id="paint1_linear_379_12324" x1="6.16626" y1="0.952381" x2="16.5859" y2="12.8876" gradientUnits="userSpaceOnUse">
<stop stop-color="white"/>
<stop offset="0.765625" stop-color="white" stop-opacity="0"/>
</linearGradient>
<linearGradient id="paint2_linear_379_12324" x1="29.4998" y1="0.952381" x2="39.9194" y2="12.8876" gradientUnits="userSpaceOnUse">
<stop stop-color="white"/>
<stop offset="0.765625" stop-color="white" stop-opacity="0"/>
</linearGradient>
<linearGradient id="paint3_linear_379_12324" x1="-2.33333" y1="19.0476" x2="17.844" y2="62.1903" gradientUnits="userSpaceOnUse">
<stop stop-color="white"/>
<stop offset="0.765625" stop-color="white" stop-opacity="0"/>
</linearGradient>
<linearGradient id="paint4_linear_379_12324" x1="39.166" y1="24.3061" x2="34.8737" y2="43.3148" gradientUnits="userSpaceOnUse">
<stop stop-color="white" stop-opacity="0"/>
<stop offset="0.979167" stop-color="white"/>
</linearGradient>
<linearGradient id="paint5_linear_379_12324" x1="35.0004" y1="26.6667" x2="35.0004" y2="46.6667" gradientUnits="userSpaceOnUse">
<stop stop-color="white" stop-opacity="0"/>
<stop offset="1" stop-color="white"/>
</linearGradient>
<linearGradient id="paint6_linear_379_12324" x1="37.7506" y1="36.4522" x2="34.6846" y2="52.395" gradientUnits="userSpaceOnUse">
<stop stop-color="white" stop-opacity="0"/>
<stop offset="0.979167" stop-color="white"/>
</linearGradient>
<linearGradient id="paint7_linear_379_12324" x1="35.0004" y1="36.6667" x2="35.0004" y2="56.6667" gradientUnits="userSpaceOnUse">
<stop stop-color="white" stop-opacity="0"/>
<stop offset="1" stop-color="white"/>
</linearGradient>
</defs>
</svg>
