<svg width="53" height="47" viewBox="0 0 53 47" fill="none" xmlns="http://www.w3.org/2000/svg">
<rect y="0.5" width="44.4138" height="35.6897" rx="8" fill="url(#paint0_linear_562_10917)"/>
<path d="M8.05196 25.6827H18.5606C19.9011 25.6827 20.9877 26.7693 20.9877 28.1098V43.8728C20.9877 45.2132 19.9011 46.2999 18.5606 46.2999H8.05196C6.71148 46.2999 5.6248 45.2132 5.6248 43.8728V28.1098C5.6248 26.7693 6.71148 25.6827 8.05196 25.6827Z" fill="#FFEE8C" stroke="url(#paint1_linear_562_10917)" stroke-width="0.4"/>
<path d="M23.8156 15.1741H34.3243C35.6647 15.1741 36.7514 16.2608 36.7514 17.6013V43.8728C36.7514 45.2133 35.6647 46.3 34.3243 46.3H23.8156C22.4752 46.3 21.3885 45.2133 21.3885 43.8728V17.6013C21.3885 16.2608 22.4752 15.1741 23.8156 15.1741Z" fill="#FFEE8C" stroke="url(#paint2_linear_562_10917)" stroke-width="0.4"/>
<path d="M39.5783 4.66533H50.0869C51.4274 4.66533 52.5141 5.75201 52.5141 7.09249V43.8727C52.5141 45.2131 51.4274 46.2998 50.0869 46.2998H39.5783C38.2378 46.2998 37.1512 45.2131 37.1512 43.8727V7.09249C37.1512 5.75201 38.2378 4.66533 39.5783 4.66533Z" fill="#FFEE8C" stroke="url(#paint3_linear_562_10917)" stroke-width="0.4"/>
<defs>
<linearGradient id="paint0_linear_562_10917" x1="8.0048" y1="26.7171" x2="47.3316" y2="45.2397" gradientUnits="userSpaceOnUse">
<stop stop-color="#FFE344"/>
<stop offset="1" stop-color="#E2C51E"/>
</linearGradient>
<linearGradient id="paint1_linear_562_10917" x1="4.29888" y1="27.3933" x2="28.8323" y2="36.8938" gradientUnits="userSpaceOnUse">
<stop stop-color="white"/>
<stop offset="1" stop-color="white" stop-opacity="0"/>
</linearGradient>
<linearGradient id="paint2_linear_562_10917" x1="20.0626" y1="17.8401" x2="46.5122" y2="24.6684" gradientUnits="userSpaceOnUse">
<stop stop-color="white"/>
<stop offset="1" stop-color="white" stop-opacity="0"/>
</linearGradient>
<linearGradient id="paint3_linear_562_10917" x1="35.8252" y1="8.28665" x2="63.0182" y2="13.5518" gradientUnits="userSpaceOnUse">
<stop stop-color="white"/>
<stop offset="1" stop-color="white" stop-opacity="0"/>
</linearGradient>
</defs>
</svg>
