<svg width="52" height="46" viewBox="0 0 52 46" fill="none" xmlns="http://www.w3.org/2000/svg">
<path d="M37.476 4.84684C38.7747 7.09626 38.7747 10.1162 38.7747 16.1561C38.7747 22.196 38.7747 25.216 37.476 27.4654C36.6252 28.939 35.4015 30.1628 33.9279 31.0136C31.6785 32.3123 28.6585 32.3123 22.6186 32.3123H16.1561C14.3358 32.3123 12.7898 32.3123 11.4566 32.2767L4.8609 36.1918C4.181 36.5954 3.32994 36.059 3.40061 35.2716L3.84254 30.3472C2.81395 29.5685 1.94781 28.5897 1.29871 27.4654C8.66857e-07 25.216 5.28699e-07 22.196 6.73484e-10 16.1561C-5.27352e-07 10.1162 -8.66857e-07 7.09627 1.29871 4.84684C2.14951 3.37321 3.37321 2.14951 4.84684 1.29871C7.09626 1.44476e-06 10.1162 1.09366e-06 16.1561 5.65639e-07L22.6186 6.73071e-10C28.6585 -5.27353e-07 31.6785 -8.66857e-07 33.9279 1.29871C35.4015 2.1495 36.6252 3.37321 37.476 4.84684Z" fill="url(#paint0_linear_548_11793)"/>
<path d="M14.2235 14.5404C12.9248 16.7899 12.9248 19.8098 12.9248 25.8497C12.9248 31.8896 12.9248 34.9096 14.2235 37.159C15.0743 38.6327 16.298 39.8564 17.7716 40.7072C20.0211 42.0059 23.041 42.0059 29.0809 42.0059H35.5434C37.4438 42.0059 39.0453 42.0059 40.4178 41.9654L46.8284 45.8572C47.508 46.2697 48.368 45.7338 48.297 44.9419L47.8571 40.0407C48.8856 39.262 49.7517 38.2833 50.4008 37.159C51.6995 34.9096 51.6995 31.8897 51.6995 25.8497C51.6995 19.8098 51.6995 16.7899 50.4008 14.5404C49.55 13.0668 48.3263 11.8431 46.8527 10.9923C44.6033 9.6936 41.5833 9.6936 35.5434 9.6936L29.0809 9.6936C23.041 9.6936 20.0211 9.6936 17.7716 10.9923C16.298 11.8431 15.0743 13.0668 14.2235 14.5404Z" fill="#8AA4FC"/>
<rect x="42.1779" y="19.6038" width="2.89414" height="19.3649" rx="1.44707" transform="rotate(90 42.1779 19.6038)" fill="url(#paint1_linear_548_11793)" fill-opacity="0.9" stroke="url(#paint2_linear_548_11793)" stroke-width="0.4"/>
<rect x="37.5627" y="29.2994" width="3.23586" height="14.7494" rx="1.61793" transform="rotate(90 37.5627 29.2994)" fill="url(#paint3_linear_548_11793)" fill-opacity="0.9" stroke="url(#paint4_linear_548_11793)" stroke-width="0.4"/>
<defs>
<linearGradient id="paint0_linear_548_11793" x1="-8.59493" y1="0.01239" x2="6.88394" y2="55.8538" gradientUnits="userSpaceOnUse">
<stop stop-color="#6D8FFF"/>
<stop offset="1" stop-color="#2148C9"/>
</linearGradient>
<linearGradient id="paint1_linear_548_11793" x1="48.1416" y1="17.071" x2="43.8998" y2="35.8562" gradientUnits="userSpaceOnUse">
<stop stop-color="white" stop-opacity="0"/>
<stop offset="0.979167" stop-color="white"/>
</linearGradient>
<linearGradient id="paint2_linear_548_11793" x1="44.025" y1="19.4038" x2="44.025" y2="39.1687" gradientUnits="userSpaceOnUse">
<stop stop-color="white" stop-opacity="0"/>
<stop offset="1" stop-color="white"/>
</linearGradient>
<linearGradient id="paint3_linear_548_11793" x1="42.5804" y1="28.9369" x2="40.9373" y2="41.2403" gradientUnits="userSpaceOnUse">
<stop stop-color="white" stop-opacity="0"/>
<stop offset="0.979167" stop-color="white"/>
</linearGradient>
<linearGradient id="paint4_linear_548_11793" x1="39.5806" y1="29.0994" x2="39.5806" y2="44.2488" gradientUnits="userSpaceOnUse">
<stop stop-color="white" stop-opacity="0"/>
<stop offset="1" stop-color="white"/>
</linearGradient>
</defs>
</svg>
