<svg width="56" height="42" viewBox="0 0 56 42" fill="none" xmlns="http://www.w3.org/2000/svg">
<path d="M4.82715 16C4.82715 8.45753 4.82715 4.68629 7.17029 2.34315C9.51344 0 13.2847 0 20.8272 0L24.0685 0C31.611 0 35.3822 0 37.7254 2.34315C40.0685 4.68629 40.0685 8.45753 40.0685 16V18.7586C40.0685 26.3011 40.0685 30.0723 37.7254 32.4155C35.3822 34.7586 31.611 34.7586 24.0685 34.7586H20.8271C13.2847 34.7586 9.51344 34.7586 7.17029 32.4155C4.82715 30.0723 4.82715 26.3011 4.82715 18.7586V16Z" fill="url(#paint0_linear_562_10881)"/>
<path d="M12.927 17.5627H13.0869L13.1221 17.4066C13.9187 13.8708 16.2509 10.7568 19.6145 8.75465C21.2799 7.76333 23.1478 7.07527 25.1115 6.7305C27.0753 6.38573 29.0957 6.39114 31.0571 6.74643C33.0185 7.10171 34.8817 7.79975 36.5404 8.79996C38.1991 9.80015 39.6204 11.0826 40.724 12.5732C41.8276 14.0637 42.5921 15.7333 42.9749 17.4864C43.3577 19.2394 43.3517 21.0427 42.9572 22.7937L42.9022 23.0376H43.1523H45.9001C48.3979 23.0376 50.7933 24.0262 52.5593 25.7856C54.3253 27.545 55.3172 29.931 55.3172 32.4188C55.3172 34.9066 54.3253 37.2927 52.5593 39.0521C50.7933 40.8115 48.3979 41.8 45.9001 41.8H12.927C9.54853 41.8 6.3103 40.521 3.92419 38.2472C1.53841 35.9737 0.2 32.8922 0.2 29.6814C0.2 26.4705 1.53841 23.389 3.92419 21.1155C6.3103 18.8417 9.54853 17.5627 12.927 17.5627Z" fill="#A7BBFF" stroke="url(#paint1_linear_562_10881)" stroke-width="0.4"/>
<defs>
<linearGradient id="paint0_linear_562_10881" x1="14.9929" y1="7.60345" x2="41.9536" y2="17.0037" gradientUnits="userSpaceOnUse">
<stop stop-color="#6D8FFF"/>
<stop offset="1" stop-color="#2148C9"/>
</linearGradient>
<linearGradient id="paint1_linear_562_10881" x1="-3.96552" y1="9.52353" x2="56.4809" y2="58.0257" gradientUnits="userSpaceOnUse">
<stop stop-color="white"/>
<stop offset="1" stop-color="white" stop-opacity="0"/>
</linearGradient>
</defs>
</svg>
