<svg width="56" height="42" viewBox="0 0 56 42" fill="none" xmlns="http://www.w3.org/2000/svg">
<g filter="url(#filter0_b_379_12362)">
<path d="M4.82739 16C4.82739 8.45753 4.82739 4.68629 7.17054 2.34315C9.51368 0 13.2849 0 20.8274 0L24.0688 0C31.6112 0 35.3825 0 37.7256 2.34315C40.0688 4.68629 40.0688 8.45753 40.0688 16V18.7586C40.0688 26.3011 40.0688 30.0723 37.7256 32.4155C35.3825 34.7586 31.6112 34.7586 24.0688 34.7586H20.8274C13.2849 34.7586 9.51368 34.7586 7.17054 32.4155C4.82739 30.0723 4.82739 26.3011 4.82739 18.7586V16Z" fill="url(#paint0_linear_379_12362)"/>
</g>
<g filter="url(#filter1_b_379_12362)">
<path d="M12.927 42.0001C9.49852 42.0001 6.21049 40.7022 3.78622 38.392C1.36194 36.0818 0 32.9485 0 29.6814C0 26.4143 1.36194 23.281 3.78622 20.9708C6.21049 18.6606 9.49852 17.3628 12.927 17.3628C13.7367 13.7689 16.1055 10.6107 19.5122 8.58287C21.1991 7.57879 23.09 6.88244 25.0769 6.53359C27.0639 6.18474 29.1081 6.19021 31.0927 6.5497C33.0773 6.9092 34.9636 7.61566 36.6437 8.62877C38.3238 9.64187 39.7649 10.9418 40.8848 12.4543C42.0046 13.9667 42.7812 15.6622 43.1703 17.4438C43.5594 19.2254 43.5533 21.0582 43.1523 22.8377H45.9001C48.4507 22.8377 50.8969 23.8472 52.7004 25.644C54.504 27.4408 55.5172 29.8778 55.5172 32.4189C55.5172 34.96 54.504 37.397 52.7004 39.1938C50.8969 40.9907 48.4507 42.0001 45.9001 42.0001H12.927Z" fill="#8BA4F9"/>
<path d="M12.927 17.5628H13.0869L13.1221 17.4067C13.9187 13.8708 16.2509 10.7569 19.6145 8.75473C21.2799 7.76341 23.1478 7.07535 25.1115 6.73057C27.0753 6.3858 29.0957 6.39122 31.0571 6.7465C33.0185 7.10179 34.8817 7.79983 36.5404 8.80004C38.1991 9.80023 39.6204 11.0827 40.724 12.5733C41.8276 14.0638 42.5921 15.7334 42.9749 17.4864C43.3577 19.2395 43.3517 21.0428 42.9572 22.7938L42.9022 23.0377H43.1523H45.9001C48.3979 23.0377 50.7933 24.0263 52.5593 25.7857C54.3253 27.545 55.3172 29.9311 55.3172 32.4189C55.3172 34.9067 54.3253 37.2928 52.5593 39.0521C50.7933 40.8115 48.3979 41.8001 45.9001 41.8001H12.927C9.54853 41.8001 6.3103 40.5211 3.92419 38.2473C1.53841 35.9737 0.2 32.8923 0.2 29.6814C0.2 26.4706 1.53841 23.3891 3.92419 21.1156C6.3103 18.8418 9.54853 17.5628 12.927 17.5628Z" stroke="url(#paint1_linear_379_12362)" stroke-width="0.4"/>
</g>
<defs>
<filter id="filter0_b_379_12362" x="-8.22934" y="-13.0567" width="61.3549" height="60.8721" filterUnits="userSpaceOnUse" color-interpolation-filters="sRGB">
<feFlood flood-opacity="0" result="BackgroundImageFix"/>
<feGaussianBlur in="BackgroundImageFix" stdDeviation="6.52837"/>
<feComposite in2="SourceAlpha" operator="in" result="effect1_backgroundBlur_379_12362"/>
<feBlend mode="normal" in="SourceGraphic" in2="effect1_backgroundBlur_379_12362" result="shape"/>
</filter>
<filter id="filter1_b_379_12362" x="-13.0567" y="-6.78078" width="81.6308" height="61.8376" filterUnits="userSpaceOnUse" color-interpolation-filters="sRGB">
<feFlood flood-opacity="0" result="BackgroundImageFix"/>
<feGaussianBlur in="BackgroundImageFix" stdDeviation="6.52837"/>
<feComposite in2="SourceAlpha" operator="in" result="effect1_backgroundBlur_379_12362"/>
<feBlend mode="normal" in="SourceGraphic" in2="effect1_backgroundBlur_379_12362" result="shape"/>
</filter>
<linearGradient id="paint0_linear_379_12362" x1="14.9932" y1="7.60345" x2="41.9538" y2="17.0037" gradientUnits="userSpaceOnUse">
<stop stop-color="#6D8FFF"/>
<stop offset="1" stop-color="#2148C9"/>
</linearGradient>
<linearGradient id="paint1_linear_379_12362" x1="-3.96552" y1="9.5236" x2="56.4809" y2="58.0258" gradientUnits="userSpaceOnUse">
<stop stop-color="white"/>
<stop offset="1" stop-color="white" stop-opacity="0"/>
</linearGradient>
</defs>
</svg>
