<svg width="47" height="51" viewBox="0 0 47 51" fill="none" xmlns="http://www.w3.org/2000/svg">
<path d="M0 25.902C0 20.0931 0 17.1887 1.61321 15.05C3.22642 12.9113 6.0191 12.1134 11.6045 10.5176L18.9378 8.42237C21.1212 7.79854 22.2129 7.48663 23.3334 7.48663C24.4538 7.48663 25.5455 7.79854 27.7289 8.42237L35.0622 10.5176C40.6476 12.1134 43.4403 12.9113 45.0535 15.05C46.6667 17.1887 46.6667 20.0931 46.6667 25.902V34.4999C46.6667 42.0424 46.6667 45.8136 44.3236 48.1567C41.9804 50.4999 38.2092 50.4999 30.6667 50.4999H16C8.45752 50.4999 4.68629 50.4999 2.34315 48.1567C0 45.8136 0 42.0424 0 34.4999L0 25.902Z" fill="url(#paint0_linear_562_10896)"/>
<path d="M3.53301 7.39976C3.53301 5.53196 4.08192 3.84916 4.95942 2.63825C5.83709 1.42711 7.03237 0.7 8.33301 0.7H38.333C39.6337 0.7 40.829 1.42711 41.7066 2.63825C42.5841 3.84916 43.133 5.53196 43.133 7.39976V22.4007C39.6377 25.0589 36.7414 27.7009 34.2359 29.9865C33.2577 30.8787 32.3392 31.7167 31.4677 32.4801C29.9037 33.8502 28.4938 34.9785 27.1582 35.7619C25.8236 36.5448 24.5759 36.9756 23.3345 36.9666C22.1193 36.9577 20.8848 36.5182 19.5549 35.7318C18.2243 34.9451 16.8115 33.8193 15.2413 32.4542C14.361 31.6889 13.432 30.8489 12.4423 29.9542C9.92833 27.6812 7.02323 25.0547 3.53301 22.4007V7.39976Z" fill="#A8DDCA" stroke="url(#paint1_linear_562_10896)" stroke-width="0.4"/>
<rect x="33.133" y="10.6998" width="2.93334" height="19.6" rx="1.46667" transform="rotate(90 33.133 10.6998)" fill="url(#paint2_linear_562_10896)" fill-opacity="0.9" stroke="url(#paint3_linear_562_10896)" stroke-width="0.4"/>
<rect x="33.133" y="20.6998" width="2.93334" height="19.6" rx="1.46667" transform="rotate(90 33.133 20.6998)" fill="url(#paint4_linear_562_10896)" fill-opacity="0.9" stroke="url(#paint5_linear_562_10896)" stroke-width="0.4"/>
<path fill-rule="evenodd" clip-rule="evenodd" d="M46.2019 18.1056C46.4535 19.1904 46.5689 20.4779 46.6219 22.0592L24.3847 40.127C23.7723 40.6245 22.895 40.6245 22.2827 40.127L0.0449219 22.0588C0.0978811 20.4775 0.21333 19.19 0.465002 18.1052L23.3337 36.686L46.2019 18.1056Z" fill="url(#paint6_linear_562_10896)"/>
<defs>
<linearGradient id="paint0_linear_562_10896" x1="13.4616" y1="16.6457" x2="48.6736" y2="29.6863" gradientUnits="userSpaceOnUse">
<stop stop-color="#92D5BD"/>
<stop offset="1" stop-color="#289A71"/>
</linearGradient>
<linearGradient id="paint1_linear_562_10896" x1="24.9997" y1="-4.99998" x2="24.3001" y2="29.8192" gradientUnits="userSpaceOnUse">
<stop stop-color="white"/>
<stop offset="0.996024" stop-color="white" stop-opacity="0"/>
</linearGradient>
<linearGradient id="paint2_linear_562_10896" x1="35.1894" y1="33.6528" x2="35.1894" y2="6.80571" gradientUnits="userSpaceOnUse">
<stop stop-color="white"/>
<stop offset="1" stop-color="white" stop-opacity="0"/>
</linearGradient>
<linearGradient id="paint3_linear_562_10896" x1="26.7055" y1="37.2654" x2="41.1154" y2="6.60611" gradientUnits="userSpaceOnUse">
<stop stop-color="white"/>
<stop offset="1" stop-color="white" stop-opacity="0"/>
</linearGradient>
<linearGradient id="paint4_linear_562_10896" x1="32.1498" y1="40.6698" x2="35.1328" y2="16.4743" gradientUnits="userSpaceOnUse">
<stop stop-color="white"/>
<stop offset="1" stop-color="white" stop-opacity="0"/>
</linearGradient>
<linearGradient id="paint5_linear_562_10896" x1="28.6626" y1="41.7468" x2="40.3132" y2="20.8984" gradientUnits="userSpaceOnUse">
<stop stop-color="white"/>
<stop offset="1" stop-color="white" stop-opacity="0"/>
</linearGradient>
<linearGradient id="paint6_linear_562_10896" x1="13.4806" y1="23.0041" x2="39.92" y2="41.9143" gradientUnits="userSpaceOnUse">
<stop stop-color="#289A71"/>
<stop offset="1" stop-color="#289A71"/>
</linearGradient>
</defs>
</svg>
