<svg width="49" height="43" viewBox="0 0 49 43" fill="none" xmlns="http://www.w3.org/2000/svg">
<path d="M0 16.5C0 8.95753 0 5.18629 2.34315 2.84315C4.68629 0.5 8.45753 0.5 16 0.5L25.9993 0.5C33.5418 0.5 37.313 0.5 39.6562 2.84315C41.9993 5.18629 41.9993 8.95753 41.9993 16.5V17.4995C41.9993 25.0419 41.9993 28.8132 39.6562 31.1563C37.313 33.4995 33.5418 33.4995 25.9993 33.4995H16C8.45752 33.4995 4.68629 33.4995 2.34315 31.1563C0 28.8132 0 25.0419 0 17.4995L0 16.5Z" fill="url(#paint0_linear_548_12413)"/>
<path d="M6.4998 25.5005C6.4998 21.7236 6.50023 18.9111 6.79091 16.749C7.08083 14.5926 7.65615 13.1133 8.78437 11.9851C9.91259 10.8568 11.3919 10.2815 13.5483 9.9916C15.7104 9.70091 18.5229 9.70049 22.2998 9.70049H32.2992C36.076 9.70049 38.8886 9.70091 41.0507 9.9916C43.207 10.2815 44.6864 10.8568 45.8146 11.9851C46.9428 13.1133 47.5181 14.5926 47.808 16.749C48.0987 18.911 48.0991 21.7236 48.0991 25.5005V26.4999C48.0991 30.2768 48.0987 33.0894 47.808 35.2515C47.5181 37.4078 46.9428 38.8872 45.8146 40.0154C44.6864 41.1436 43.207 41.7189 41.0507 42.0089C38.8886 42.2995 36.076 42.3 32.2991 42.3H22.2998C18.5229 42.3 15.7104 42.2995 13.5483 42.0089C11.3919 41.7189 9.91259 41.1436 8.78437 40.0154C7.65615 38.8872 7.08083 37.4078 6.79091 35.2515C6.50023 33.0894 6.4998 30.2768 6.4998 26.5V25.5005Z" fill="#92D4BD" stroke="url(#paint1_linear_548_12413)" stroke-width="0.4"/>
<defs>
<linearGradient id="paint0_linear_548_12413" x1="12.1152" y1="7.71863" x2="42.3584" y2="20.9555" gradientUnits="userSpaceOnUse">
<stop stop-color="#92D5BD"/>
<stop offset="1" stop-color="#289A71"/>
</linearGradient>
<linearGradient id="paint1_linear_548_12413" x1="3.29985" y1="12.5004" x2="55.799" y2="46.9999" gradientUnits="userSpaceOnUse">
<stop stop-color="white"/>
<stop offset="1" stop-color="white" stop-opacity="0"/>
</linearGradient>
</defs>
</svg>
