<svg width="54" height="51" viewBox="0 0 54 51" fill="none" xmlns="http://www.w3.org/2000/svg">
<g filter="url(#filter0_b_473_10989)">
<path d="M0 16.5C0 8.95753 0 5.18629 2.34315 2.84315C4.68629 0.5 8.45753 0.5 16 0.5L26.8571 0.5C34.3996 0.5 38.1708 0.5 40.514 2.84315C42.8571 5.18629 42.8571 8.95753 42.8571 16.5V30.9286C42.8571 38.471 42.8571 42.2423 40.514 44.5854C38.1708 46.9286 34.3996 46.9286 26.8571 46.9286H16C8.45752 46.9286 4.68629 46.9286 2.34315 44.5854C0 42.2423 0 38.471 0 30.9286L0 16.5Z" fill="url(#paint0_linear_473_10989)"/>
</g>
<g filter="url(#filter1_b_473_10989)">
<path d="M0 30.8572C0 21.7761 0 17.2356 2.7334 14.3444C2.86187 14.2085 2.99414 14.0762 3.13003 13.9478C6.02124 11.2144 10.5618 11.2144 19.6429 11.2144H30.3571C39.4382 11.2144 43.9788 11.2144 46.87 13.9478C47.0059 14.0762 47.1381 14.2085 47.2666 14.3444C50 17.2356 50 21.7761 50 30.8572C50 39.9383 50 44.4788 47.2666 47.37C47.1381 47.5059 47.0059 47.6382 46.87 47.7667C43.9788 50.5001 39.4382 50.5001 30.3571 50.5001H19.6429C10.5618 50.5001 6.02124 50.5001 3.13003 47.7667C2.99414 47.6382 2.86187 47.5059 2.7334 47.37C0 44.4788 0 39.9383 0 30.8572Z" fill="#92D5BD" fill-opacity="0.6"/>
<path d="M0.2 30.8572C0.2 26.3112 0.200396 22.9211 0.54001 20.3053C0.878931 17.6949 1.55267 15.8844 2.87873 14.4818C3.00464 14.3486 3.13425 14.219 3.26743 14.0931C4.67005 12.767 6.48053 12.0933 9.09099 11.7544C11.7068 11.4148 15.0969 11.4144 19.6429 11.4144H30.3571C34.9031 11.4144 38.2932 11.4148 40.909 11.7544C43.5195 12.0933 45.3299 12.767 46.7326 14.0931C46.8657 14.219 46.9954 14.3486 47.1213 14.4818C48.4473 15.8844 49.1211 17.6949 49.46 20.3053C49.7996 22.9211 49.8 26.3112 49.8 30.8572C49.8 35.4032 49.7996 38.7933 49.46 41.4091C49.1211 44.0195 48.4473 45.83 47.1213 47.2326C46.9954 47.3658 46.8657 47.4954 46.7326 47.6213C45.3299 48.9474 43.5195 49.6211 40.909 49.9601C38.2932 50.2997 34.9031 50.3001 30.3571 50.3001H19.6429C15.0969 50.3001 11.7068 50.2997 9.09099 49.9601C6.48053 49.6211 4.67005 48.9474 3.26743 47.6213C3.13425 47.4954 3.00464 47.3658 2.87873 47.2326C1.55267 45.83 0.878931 44.0195 0.54001 41.4091C0.200396 38.7933 0.2 35.4032 0.2 30.8572Z" stroke="url(#paint1_linear_473_10989)" stroke-width="0.4"/>
</g>
<g filter="url(#filter2_b_473_10989)">
<path d="M32.1426 29.0713C32.1426 26.1261 32.1426 24.6536 32.8803 23.6138C33.1407 23.2469 33.461 22.9265 33.8279 22.6662C34.8677 21.9285 36.3403 21.9285 39.2854 21.9285H46.4283C49.3735 21.9285 50.8461 21.9285 51.8858 22.6662C52.2527 22.9265 52.5731 23.2469 52.8334 23.6138C53.5711 24.6536 53.5711 26.1261 53.5711 29.0713C53.5711 32.0165 53.5711 33.4891 52.8334 34.5289C52.5731 34.8958 52.2527 35.2161 51.8858 35.4764C50.8461 36.2142 49.3735 36.2142 46.4283 36.2142H39.2854C36.3403 36.2142 34.8677 36.2142 33.8279 35.4764C33.461 35.2161 33.1407 34.8958 32.8803 34.5289C32.1426 33.4891 32.1426 32.0165 32.1426 29.0713Z" fill="url(#paint2_linear_473_10989)"/>
</g>
<g filter="url(#filter3_b_473_10989)">
<rect x="42.8584" y="25.4998" width="7.14286" height="7.14286" rx="3.57143" transform="rotate(90 42.8584 25.4998)" fill="white"/>
</g>
<defs>
<filter id="filter0_b_473_10989" x="-13.0567" y="-12.5567" width="68.9709" height="72.5419" filterUnits="userSpaceOnUse" color-interpolation-filters="sRGB">
<feFlood flood-opacity="0" result="BackgroundImageFix"/>
<feGaussianBlur in="BackgroundImageFix" stdDeviation="6.52837"/>
<feComposite in2="SourceAlpha" operator="in" result="effect1_backgroundBlur_473_10989"/>
<feBlend mode="normal" in="SourceGraphic" in2="effect1_backgroundBlur_473_10989" result="shape"/>
</filter>
<filter id="filter1_b_473_10989" x="-13.0567" y="-1.84238" width="76.1135" height="65.3991" filterUnits="userSpaceOnUse" color-interpolation-filters="sRGB">
<feFlood flood-opacity="0" result="BackgroundImageFix"/>
<feGaussianBlur in="BackgroundImageFix" stdDeviation="6.52837"/>
<feComposite in2="SourceAlpha" operator="in" result="effect1_backgroundBlur_473_10989"/>
<feBlend mode="normal" in="SourceGraphic" in2="effect1_backgroundBlur_473_10989" result="shape"/>
</filter>
<filter id="filter2_b_473_10989" x="26.7023" y="16.4882" width="32.3093" height="25.1663" filterUnits="userSpaceOnUse" color-interpolation-filters="sRGB">
<feFlood flood-opacity="0" result="BackgroundImageFix"/>
<feGaussianBlur in="BackgroundImageFix" stdDeviation="2.72015"/>
<feComposite in2="SourceAlpha" operator="in" result="effect1_backgroundBlur_473_10989"/>
<feBlend mode="normal" in="SourceGraphic" in2="effect1_backgroundBlur_473_10989" result="shape"/>
</filter>
<filter id="filter3_b_473_10989" x="22.6591" y="12.443" width="33.2561" height="33.2563" filterUnits="userSpaceOnUse" color-interpolation-filters="sRGB">
<feFlood flood-opacity="0" result="BackgroundImageFix"/>
<feGaussianBlur in="BackgroundImageFix" stdDeviation="6.52837"/>
<feComposite in2="SourceAlpha" operator="in" result="effect1_backgroundBlur_473_10989"/>
<feBlend mode="normal" in="SourceGraphic" in2="effect1_backgroundBlur_473_10989" result="shape"/>
</filter>
<linearGradient id="paint0_linear_473_10989" x1="12.3626" y1="10.6562" x2="45.7691" y2="21.2607" gradientUnits="userSpaceOnUse">
<stop stop-color="#92D5BD"/>
<stop offset="1" stop-color="#289A71"/>
</linearGradient>
<linearGradient id="paint1_linear_473_10989" x1="-3.57143" y1="14.7858" x2="58.9286" y2="55.8572" gradientUnits="userSpaceOnUse">
<stop stop-color="white"/>
<stop offset="1" stop-color="white" stop-opacity="0"/>
</linearGradient>
<linearGradient id="paint2_linear_473_10989" x1="38.3239" y1="25.0535" x2="52.8461" y2="32.5446" gradientUnits="userSpaceOnUse">
<stop stop-color="#92D5BD"/>
<stop offset="1" stop-color="#289A71"/>
</linearGradient>
</defs>
</svg>
