<svg width="52" height="51" viewBox="0 0 52 51" fill="none" xmlns="http://www.w3.org/2000/svg">
<path fill-rule="evenodd" clip-rule="evenodd" d="M7.40554 0.5C8.93967 0.5 10.1833 1.74365 10.1833 3.27778L10.1833 47.7222C10.1833 49.2563 8.93966 50.5 7.40554 50.5C5.87141 50.5 4.62776 49.2563 4.62776 47.7222L4.62776 3.27778C4.62776 1.74365 5.87142 0.5 7.40554 0.5Z" fill="url(#paint0_linear_379_12007)"/>
<path fill-rule="evenodd" clip-rule="evenodd" d="M25.9234 0.5C27.4575 0.5 28.7012 1.74365 28.7012 3.27778L28.7012 47.7222C28.7012 49.2563 27.4575 50.5 25.9234 50.5C24.3893 50.5 23.1456 49.2563 23.1456 47.7222L23.1456 3.27778C23.1456 1.74365 24.3893 0.5 25.9234 0.5Z" fill="url(#paint1_linear_379_12007)"/>
<path fill-rule="evenodd" clip-rule="evenodd" d="M44.4439 0.5C45.978 0.5 47.2217 1.74365 47.2217 3.27778L47.2217 47.7222C47.2217 49.2563 45.978 50.5 44.4439 50.5C42.9098 50.5 41.6661 49.2563 41.6661 47.7222L41.6661 3.27778C41.6661 1.74365 42.9098 0.5 44.4439 0.5Z" fill="url(#paint2_linear_379_12007)"/>
<g filter="url(#filter0_b_379_12007)">
<circle cx="7.4075" cy="36.6114" r="7.40741" transform="rotate(90 7.4075 36.6114)" fill="#FFE86A"/>
<circle cx="7.4075" cy="36.6114" r="7.20741" transform="rotate(90 7.4075 36.6114)" stroke="url(#paint3_linear_379_12007)" stroke-width="0.4"/>
</g>
<g filter="url(#filter1_b_379_12007)">
<circle cx="25.9249" cy="14.3888" r="7.40741" transform="rotate(90 25.9249 14.3888)" fill="#FFE86A"/>
<circle cx="25.9249" cy="14.3888" r="7.20741" transform="rotate(90 25.9249 14.3888)" stroke="url(#paint4_linear_379_12007)" stroke-width="0.4"/>
</g>
<g filter="url(#filter2_b_379_12007)">
<circle cx="44.4418" cy="36.6114" r="7.40741" transform="rotate(90 44.4418 36.6114)" fill="#FFE86A"/>
<circle cx="44.4418" cy="36.6114" r="7.20741" transform="rotate(90 44.4418 36.6114)" stroke="url(#paint5_linear_379_12007)" stroke-width="0.4"/>
</g>
<defs>
<filter id="filter0_b_379_12007" x="-12.3075" y="16.8963" width="39.4301" height="39.4301" filterUnits="userSpaceOnUse" color-interpolation-filters="sRGB">
<feFlood flood-opacity="0" result="BackgroundImageFix"/>
<feGaussianBlur in="BackgroundImageFix" stdDeviation="6.15382"/>
<feComposite in2="SourceAlpha" operator="in" result="effect1_backgroundBlur_379_12007"/>
<feBlend mode="normal" in="SourceGraphic" in2="effect1_backgroundBlur_379_12007" result="shape"/>
</filter>
<filter id="filter1_b_379_12007" x="6.20985" y="-5.32625" width="39.4301" height="39.4301" filterUnits="userSpaceOnUse" color-interpolation-filters="sRGB">
<feFlood flood-opacity="0" result="BackgroundImageFix"/>
<feGaussianBlur in="BackgroundImageFix" stdDeviation="6.15382"/>
<feComposite in2="SourceAlpha" operator="in" result="effect1_backgroundBlur_379_12007"/>
<feBlend mode="normal" in="SourceGraphic" in2="effect1_backgroundBlur_379_12007" result="shape"/>
</filter>
<filter id="filter2_b_379_12007" x="24.7268" y="16.8963" width="39.4301" height="39.4301" filterUnits="userSpaceOnUse" color-interpolation-filters="sRGB">
<feFlood flood-opacity="0" result="BackgroundImageFix"/>
<feGaussianBlur in="BackgroundImageFix" stdDeviation="6.15382"/>
<feComposite in2="SourceAlpha" operator="in" result="effect1_backgroundBlur_379_12007"/>
<feBlend mode="normal" in="SourceGraphic" in2="effect1_backgroundBlur_379_12007" result="shape"/>
</filter>
<linearGradient id="paint0_linear_379_12007" x1="8.96804" y1="14.9231" x2="-3.58317" y2="18.9784" gradientUnits="userSpaceOnUse">
<stop stop-color="#FFE344"/>
<stop offset="1" stop-color="#E2C51E"/>
</linearGradient>
<linearGradient id="paint1_linear_379_12007" x1="27.4859" y1="14.9231" x2="14.9347" y2="18.9784" gradientUnits="userSpaceOnUse">
<stop stop-color="#FFE344"/>
<stop offset="1" stop-color="#E2C51E"/>
</linearGradient>
<linearGradient id="paint2_linear_379_12007" x1="46.0064" y1="14.9231" x2="33.4552" y2="18.9784" gradientUnits="userSpaceOnUse">
<stop stop-color="#FFE344"/>
<stop offset="1" stop-color="#E2C51E"/>
</linearGradient>
<linearGradient id="paint3_linear_379_12007" x1="-1.85175" y1="47.7225" x2="12.9631" y2="31.0558" gradientUnits="userSpaceOnUse">
<stop stop-color="white"/>
<stop offset="1" stop-color="white" stop-opacity="0"/>
</linearGradient>
<linearGradient id="paint4_linear_379_12007" x1="16.6656" y1="25.4999" x2="31.4805" y2="8.83323" gradientUnits="userSpaceOnUse">
<stop stop-color="white"/>
<stop offset="1" stop-color="white" stop-opacity="0"/>
</linearGradient>
<linearGradient id="paint5_linear_379_12007" x1="35.1826" y1="47.7225" x2="49.9974" y2="31.0558" gradientUnits="userSpaceOnUse">
<stop stop-color="white"/>
<stop offset="1" stop-color="white" stop-opacity="0"/>
</linearGradient>
</defs>
</svg>
