<svg width="52" height="51" viewBox="0 0 52 51" fill="none" xmlns="http://www.w3.org/2000/svg">
<path fill-rule="evenodd" clip-rule="evenodd" d="M7.40533 0.5C8.93945 0.5 10.1831 1.74365 10.1831 3.27778L10.1831 47.7222C10.1831 49.2563 8.93945 50.5 7.40533 50.5C5.8712 50.5 4.62755 49.2563 4.62755 47.7222L4.62755 3.27778C4.62755 1.74365 5.8712 0.5 7.40533 0.5Z" fill="url(#paint0_linear_548_11193)"/>
<path fill-rule="evenodd" clip-rule="evenodd" d="M25.9234 0.5C27.4575 0.5 28.7012 1.74365 28.7012 3.27778L28.7012 47.7222C28.7012 49.2563 27.4575 50.5 25.9234 50.5C24.3893 50.5 23.1456 49.2563 23.1456 47.7222L23.1456 3.27778C23.1456 1.74365 24.3893 0.5 25.9234 0.5Z" fill="url(#paint1_linear_548_11193)"/>
<path fill-rule="evenodd" clip-rule="evenodd" d="M44.4439 0.5C45.978 0.5 47.2217 1.74365 47.2217 3.27778L47.2217 47.7222C47.2217 49.2563 45.978 50.5 44.4439 50.5C42.9098 50.5 41.6661 49.2563 41.6661 47.7222L41.6661 25.5L41.6661 3.27778C41.6661 1.74365 42.9098 0.5 44.4439 0.5Z" fill="url(#paint2_linear_548_11193)"/>
<circle cx="7.40754" cy="36.6113" r="7.20741" transform="rotate(90 7.40754 36.6113)" fill="#FEEC82" stroke="url(#paint3_linear_548_11193)" stroke-width="0.4"/>
<circle cx="25.9251" cy="14.3889" r="7.20741" transform="rotate(90 25.9251 14.3889)" fill="#FEEC82" stroke="url(#paint4_linear_548_11193)" stroke-width="0.4"/>
<circle cx="44.4417" cy="36.6113" r="7.20741" transform="rotate(90 44.4417 36.6113)" fill="#FEEC82" stroke="url(#paint5_linear_548_11193)" stroke-width="0.4"/>
<defs>
<linearGradient id="paint0_linear_548_11193" x1="8.96783" y1="14.9231" x2="-3.58339" y2="18.9784" gradientUnits="userSpaceOnUse">
<stop stop-color="#FFE344"/>
<stop offset="1" stop-color="#E2C51E"/>
</linearGradient>
<linearGradient id="paint1_linear_548_11193" x1="27.4859" y1="14.9231" x2="14.9347" y2="18.9784" gradientUnits="userSpaceOnUse">
<stop stop-color="#FFE344"/>
<stop offset="1" stop-color="#E2C51E"/>
</linearGradient>
<linearGradient id="paint2_linear_548_11193" x1="46.0064" y1="14.9231" x2="33.4552" y2="18.9784" gradientUnits="userSpaceOnUse">
<stop stop-color="#FFE344"/>
<stop offset="1" stop-color="#E2C51E"/>
</linearGradient>
<linearGradient id="paint3_linear_548_11193" x1="-1.85172" y1="47.7224" x2="12.9631" y2="31.0557" gradientUnits="userSpaceOnUse">
<stop stop-color="white"/>
<stop offset="1" stop-color="white" stop-opacity="0"/>
</linearGradient>
<linearGradient id="paint4_linear_548_11193" x1="16.6659" y1="25.5" x2="31.4807" y2="8.8333" gradientUnits="userSpaceOnUse">
<stop stop-color="white"/>
<stop offset="1" stop-color="white" stop-opacity="0"/>
</linearGradient>
<linearGradient id="paint5_linear_548_11193" x1="35.1825" y1="47.7224" x2="49.9973" y2="31.0557" gradientUnits="userSpaceOnUse">
<stop stop-color="white"/>
<stop offset="1" stop-color="white" stop-opacity="0"/>
</linearGradient>
</defs>
</svg>
