<svg width="53" height="46" viewBox="0 0 53 46" fill="none" xmlns="http://www.w3.org/2000/svg">
<g filter="url(#filter0_b_379_12306)">
<path d="M0 16C0 8.45753 0 4.68629 2.34315 2.34315C4.68629 0 8.45753 0 16 0L29.9998 0C37.5423 0 41.3135 0 43.6567 2.34315C45.9998 4.68629 45.9998 8.45753 45.9998 16V20.1427C45.9998 27.6852 45.9998 31.4564 43.6567 33.7996C41.3135 36.1427 37.5423 36.1427 29.9998 36.1427H16C8.45752 36.1427 4.68629 36.1427 2.34315 33.7996C0 31.4564 0 27.6852 0 20.1427L0 16Z" fill="url(#paint0_linear_379_12306)"/>
</g>
<g filter="url(#filter1_b_379_12306)">
<path d="M6.57129 25.8573C6.57129 18.3149 6.57129 14.5436 8.91443 12.2005C11.2576 9.85733 15.0288 9.85733 22.5713 9.85733H36.5711C44.1136 9.85733 47.8848 9.85733 50.228 12.2005C52.5711 14.5436 52.5711 18.3149 52.5711 25.8573V30C52.5711 37.5425 52.5711 41.3138 50.228 43.6569C47.8848 46 44.1136 46 36.5711 46H22.5713C15.0288 46 11.2576 46 8.91443 43.6569C6.57129 41.3138 6.57129 37.5425 6.57129 30.0001V25.8573Z" fill="#92D4BD"/>
<path d="M6.77129 25.8573C6.77129 22.0804 6.77171 19.2679 7.0624 17.1058C7.35231 14.9495 7.92764 13.4701 9.05586 12.3419C10.1841 11.2137 11.6634 10.6384 13.8198 10.3484C15.9819 10.0578 18.7944 10.0573 22.5713 10.0573H36.5711C40.348 10.0573 43.1606 10.0578 45.3227 10.3484C47.479 10.6384 48.9583 11.2137 50.0866 12.3419C51.2148 13.4701 51.7901 14.9495 52.08 17.1058C52.3707 19.2679 52.3711 22.0804 52.3711 25.8573V30C52.3711 33.7769 52.3707 36.5895 52.08 38.7516C51.7901 40.9079 51.2148 42.3873 50.0866 43.5155C48.9583 44.6437 47.479 45.219 45.3227 45.5089C43.1606 45.7996 40.348 45.8 36.5711 45.8H22.5713C18.7944 45.8 15.9818 45.7996 13.8198 45.5089C11.6634 45.219 10.1841 44.6437 9.05586 43.5155C7.92764 42.3873 7.35231 40.9079 7.0624 38.7516C6.77171 36.5895 6.77129 33.7769 6.77129 30.0001V25.8573Z" stroke="url(#paint1_linear_379_12306)" stroke-width="0.4"/>
</g>
<path d="M39.428 42.7142L21.3296 42.7142C16.8022 42.7142 14.5385 42.7142 13.5584 41.4654C13.3085 41.1471 13.12 40.7851 13.0025 40.3978C12.5416 38.8787 13.8397 37.0242 16.436 33.3152L17.1277 32.327C18.8895 29.8102 19.7704 28.5518 21.0031 28.2743C21.3249 28.2019 21.6558 28.1787 21.9846 28.2054C23.244 28.3079 24.2921 29.4309 26.3883 31.6768L29.4068 34.9109L29.4068 34.9109C30.2066 35.7677 30.6064 36.1962 31.0191 36.4374C32.114 37.0775 33.4806 37.0254 34.5236 36.3039C34.9168 36.0319 35.2829 35.5743 36.015 34.659L36.0151 34.659C36.7992 33.6789 37.1912 33.1888 37.6057 32.9099C38.7075 32.1686 40.1485 32.1686 41.2503 32.9099C41.6648 33.1888 42.0569 33.6789 42.841 34.659L43.1274 35.0171L43.1275 35.0172C44.7562 37.053 45.5705 38.071 45.7118 38.9044C45.9433 40.2694 45.2884 41.6319 44.0779 42.3039C43.3389 42.7142 42.0353 42.7142 39.428 42.7142Z" fill="url(#paint2_linear_379_12306)" fill-opacity="0.9"/>
<rect x="32.8567" y="16.4286" width="9.85711" height="9.85711" rx="4.92855" fill="url(#paint3_linear_379_12306)" fill-opacity="0.9"/>
<defs>
<filter id="filter0_b_379_12306" x="-13.0567" y="-13.0567" width="72.1132" height="62.2562" filterUnits="userSpaceOnUse" color-interpolation-filters="sRGB">
<feFlood flood-opacity="0" result="BackgroundImageFix"/>
<feGaussianBlur in="BackgroundImageFix" stdDeviation="6.52837"/>
<feComposite in2="SourceAlpha" operator="in" result="effect1_backgroundBlur_379_12306"/>
<feBlend mode="normal" in="SourceGraphic" in2="effect1_backgroundBlur_379_12306" result="shape"/>
</filter>
<filter id="filter1_b_379_12306" x="-6.48545" y="-3.1994" width="72.1132" height="62.2562" filterUnits="userSpaceOnUse" color-interpolation-filters="sRGB">
<feFlood flood-opacity="0" result="BackgroundImageFix"/>
<feGaussianBlur in="BackgroundImageFix" stdDeviation="6.52837"/>
<feComposite in2="SourceAlpha" operator="in" result="effect1_backgroundBlur_379_12306"/>
<feBlend mode="normal" in="SourceGraphic" in2="effect1_backgroundBlur_379_12306" result="shape"/>
</filter>
<linearGradient id="paint0_linear_379_12306" x1="13.2692" y1="7.90622" x2="46.3931" y2="22.4039" gradientUnits="userSpaceOnUse">
<stop stop-color="#92D5BD"/>
<stop offset="1" stop-color="#289A71"/>
</linearGradient>
<linearGradient id="paint1_linear_379_12306" x1="3.28559" y1="13.143" x2="60.7854" y2="50.9286" gradientUnits="userSpaceOnUse">
<stop stop-color="white"/>
<stop offset="1" stop-color="white" stop-opacity="0"/>
</linearGradient>
<linearGradient id="paint2_linear_379_12306" x1="17.4679" y1="34.5325" x2="52.9503" y2="46.1083" gradientUnits="userSpaceOnUse">
<stop stop-color="white"/>
<stop offset="1" stop-color="white" stop-opacity="0"/>
</linearGradient>
<linearGradient id="paint3_linear_379_12306" x1="32.8184" y1="18.6788" x2="51.4404" y2="31.0096" gradientUnits="userSpaceOnUse">
<stop stop-color="white"/>
<stop offset="1" stop-color="white" stop-opacity="0"/>
</linearGradient>
</defs>
</svg>
