<svg width="53" height="46" viewBox="0 0 53 46" fill="none" xmlns="http://www.w3.org/2000/svg">
<path d="M0 16C0 8.45753 0 4.68629 2.34315 2.34315C4.68629 0 8.45753 0 16 0L29.9998 0C37.5423 0 41.3135 0 43.6567 2.34315C45.9998 4.68629 45.9998 8.45753 45.9998 16V20.1427C45.9998 27.6852 45.9998 31.4564 43.6567 33.7996C41.3135 36.1427 37.5423 36.1427 29.9998 36.1427H16C8.45752 36.1427 4.68629 36.1427 2.34315 33.7996C0 31.4564 0 27.6852 0 20.1427L0 16Z" fill="url(#paint0_linear_562_10825)"/>
<path d="M6.77129 25.8574C6.77129 22.0805 6.77171 19.268 7.0624 17.1059C7.35231 14.9496 7.92764 13.4702 9.05586 12.342C10.1841 11.2138 11.6634 10.6384 13.8198 10.3485C15.9819 10.0578 18.7944 10.0574 22.5713 10.0574H36.5711C40.348 10.0574 43.1606 10.0578 45.3227 10.3485C47.479 10.6384 48.9583 11.2138 50.0866 12.342C51.2148 13.4702 51.7901 14.9496 52.08 17.1059C52.3707 19.268 52.3711 22.0805 52.3711 25.8574V30.0001C52.3711 33.777 52.3707 36.5896 52.08 38.7517C51.7901 40.908 51.2148 42.3874 50.0866 43.5156C48.9583 44.6438 47.479 45.2191 45.3227 45.509C43.1606 45.7997 40.348 45.8001 36.5711 45.8001H22.5713C18.7944 45.8001 15.9818 45.7997 13.8198 45.509C11.6634 45.2191 10.1841 44.6438 9.05586 43.5156C7.92764 42.3874 7.35231 40.908 7.0624 38.7517C6.77171 36.5896 6.77129 33.777 6.77129 30.0001V25.8574Z" fill="#92D4BD" stroke="url(#paint1_linear_562_10825)" stroke-width="0.4"/>
<path d="M39.4278 42.7142L21.3294 42.7142C16.802 42.7142 14.5383 42.7142 13.5581 41.4654C13.3083 41.147 13.1198 40.785 13.0023 40.3978C12.5413 38.8786 13.8395 37.0241 16.4358 33.3151L17.1275 32.327C18.8892 29.8102 19.7701 28.5518 21.0029 28.2743C21.3247 28.2018 21.6556 28.1786 21.9844 28.2054C23.2438 28.3078 24.2919 29.4308 26.3881 31.6767L29.4066 34.9108L29.4066 34.9109C30.2063 35.7677 30.6062 36.1961 31.0189 36.4374C32.1138 37.0775 33.4804 37.0254 34.5234 36.3038C34.9165 36.0318 35.2826 35.5742 36.0148 34.659L36.0148 34.659C36.7989 33.6788 37.191 33.1888 37.6055 32.9098C38.7072 32.1685 40.1483 32.1685 41.25 32.9098C41.6646 33.1888 42.0566 33.6788 42.8407 34.659L43.1272 35.017L43.1272 35.0171C44.7559 37.053 45.5703 38.0709 45.7116 38.9043C45.943 40.2693 45.2882 41.6319 44.0777 42.3039C43.3386 42.7142 42.035 42.7142 39.4278 42.7142Z" fill="url(#paint2_linear_562_10825)" fill-opacity="0.9"/>
<rect x="32.8564" y="16.4287" width="9.85711" height="9.85711" rx="4.92855" fill="url(#paint3_linear_562_10825)" fill-opacity="0.9"/>
<defs>
<linearGradient id="paint0_linear_562_10825" x1="13.2692" y1="7.90622" x2="46.3931" y2="22.4039" gradientUnits="userSpaceOnUse">
<stop stop-color="#92D5BD"/>
<stop offset="1" stop-color="#289A71"/>
</linearGradient>
<linearGradient id="paint1_linear_562_10825" x1="3.28559" y1="13.1431" x2="60.7854" y2="50.9287" gradientUnits="userSpaceOnUse">
<stop stop-color="white"/>
<stop offset="1" stop-color="white" stop-opacity="0"/>
</linearGradient>
<linearGradient id="paint2_linear_562_10825" x1="17.4677" y1="34.5325" x2="52.95" y2="46.1083" gradientUnits="userSpaceOnUse">
<stop stop-color="white"/>
<stop offset="1" stop-color="white" stop-opacity="0"/>
</linearGradient>
<linearGradient id="paint3_linear_562_10825" x1="32.8182" y1="18.6789" x2="51.4401" y2="31.0097" gradientUnits="userSpaceOnUse">
<stop stop-color="white"/>
<stop offset="1" stop-color="white" stop-opacity="0"/>
</linearGradient>
</defs>
</svg>
