<svg width="54" height="51" viewBox="0 0 54 51" fill="none" xmlns="http://www.w3.org/2000/svg">
<path d="M0 16.5C0 8.95753 0 5.18629 2.34315 2.84315C4.68629 0.5 8.45753 0.5 16 0.5L26.8571 0.5C34.3996 0.5 38.1708 0.5 40.514 2.84315C42.8571 5.18629 42.8571 8.95753 42.8571 16.5V30.9286C42.8571 38.471 42.8571 42.2423 40.514 44.5854C38.1708 46.9286 34.3996 46.9286 26.8571 46.9286H16C8.45752 46.9286 4.68629 46.9286 2.34315 44.5854C0 42.2423 0 38.471 0 30.9286L0 16.5Z" fill="url(#paint0_linear_548_11233)"/>
<path d="M0.2 30.8572C0.2 26.3112 0.200396 22.9211 0.54001 20.3053C0.878931 17.6949 1.55267 15.8844 2.87873 14.4818C3.00464 14.3486 3.13425 14.219 3.26743 14.0931C4.67005 12.767 6.48053 12.0933 9.09099 11.7544C11.7068 11.4148 15.0969 11.4144 19.6429 11.4144H30.3571C34.9031 11.4144 38.2932 11.4148 40.909 11.7544C43.5195 12.0933 45.3299 12.767 46.7326 14.0931C46.8657 14.219 46.9954 14.3486 47.1213 14.4818C48.4473 15.8844 49.1211 17.6949 49.46 20.3053C49.7996 22.9211 49.8 26.3112 49.8 30.8572C49.8 35.4032 49.7996 38.7933 49.46 41.4091C49.1211 44.0195 48.4473 45.83 47.1213 47.2326C46.9954 47.3658 46.8657 47.4954 46.7326 47.6213C45.3299 48.9474 43.5195 49.6211 40.909 49.9601C38.2932 50.2997 34.9031 50.3001 30.3571 50.3001H19.6429C15.0969 50.3001 11.7068 50.2997 9.09099 49.9601C6.48053 49.6211 4.67005 48.9474 3.26743 47.6213C3.13425 47.4954 3.00464 47.3658 2.87873 47.2326C1.55267 45.83 0.878931 44.0195 0.54001 41.4091C0.200396 38.7933 0.2 35.4032 0.2 30.8572Z" fill="#8AA4FC" stroke="url(#paint1_linear_548_11233)" stroke-width="0.4"/>
<path d="M32.1431 29.0713C32.1431 26.1261 32.1431 24.6536 32.8808 23.6138C33.1411 23.2469 33.4615 22.9265 33.8284 22.6662C34.8682 21.9285 36.3407 21.9285 39.2859 21.9285H46.4288C49.374 21.9285 50.8465 21.9285 51.8863 22.6662C52.2532 22.9265 52.5736 23.2469 52.8339 23.6138C53.5716 24.6536 53.5716 26.1261 53.5716 29.0713C53.5716 32.0165 53.5716 33.4891 52.8339 34.5289C52.5736 34.8958 52.2532 35.2161 51.8863 35.4764C50.8465 36.2142 49.374 36.2142 46.4288 36.2142H39.2859C36.3407 36.2142 34.8682 36.2142 33.8284 35.4764C33.4615 35.2161 33.1411 34.8958 32.8808 34.5289C32.1431 33.4891 32.1431 32.0165 32.1431 29.0713Z" fill="url(#paint2_linear_548_11233)"/>
<rect x="42.8579" y="25.4998" width="7.14286" height="7.14286" rx="3.57143" transform="rotate(90 42.8579 25.4998)" fill="white"/>
<defs>
<linearGradient id="paint0_linear_548_11233" x1="12.3626" y1="10.6562" x2="45.7691" y2="21.2607" gradientUnits="userSpaceOnUse">
<stop stop-color="#6D8FFF"/>
<stop offset="1" stop-color="#2148C9"/>
</linearGradient>
<linearGradient id="paint1_linear_548_11233" x1="-3.57143" y1="14.7858" x2="58.9286" y2="55.8572" gradientUnits="userSpaceOnUse">
<stop stop-color="white"/>
<stop offset="1" stop-color="white" stop-opacity="0"/>
</linearGradient>
<linearGradient id="paint2_linear_548_11233" x1="38.3244" y1="25.0535" x2="52.8466" y2="32.5446" gradientUnits="userSpaceOnUse">
<stop stop-color="#6D8FFF"/>
<stop offset="1" stop-color="#2148C9"/>
</linearGradient>
</defs>
</svg>
