<svg width="42" height="50" viewBox="0 0 42 50" fill="none" xmlns="http://www.w3.org/2000/svg">
<path fill-rule="evenodd" clip-rule="evenodd" d="M20.5877 5.88235C15.7146 5.88235 11.7642 9.83278 11.7642 14.7059V32.3529C11.7642 33.9773 10.4474 35.2941 8.82301 35.2941C7.19864 35.2941 5.88184 33.9773 5.88184 32.3529V14.7059C5.88184 6.58404 12.4659 0 20.5877 0C28.7095 0 35.2936 6.58404 35.2936 14.7059V32.3529C35.2936 33.9773 33.9768 35.2941 32.3524 35.2941C30.728 35.2941 29.4112 33.9773 29.4112 32.3529V14.7059C29.4112 9.83278 25.4608 5.88235 20.5877 5.88235Z" fill="url(#paint0_linear_548_11725)"/>
<path d="M0.2 33.8234C0.2 30.9365 0.200165 28.7836 0.34351 27.0786C0.48665 25.376 0.771498 24.138 1.33063 23.0773C2.25242 21.3285 3.68154 19.8994 5.43031 18.9776C6.49107 18.4185 7.72902 18.1336 9.43163 17.9905C11.1367 17.8471 13.2895 17.847 16.1765 17.847H25C27.887 17.847 30.0398 17.8471 31.7448 17.9905C33.4474 18.1336 34.6854 18.4185 35.7461 18.9776C37.4949 19.8994 38.924 21.3285 39.8458 23.0773C40.405 24.138 40.6898 25.376 40.8329 27.0786C40.9763 28.7836 40.9765 30.9365 40.9765 33.8234C40.9765 36.7104 40.9763 38.8632 40.8329 40.5683C40.6898 42.2709 40.405 43.5088 39.8458 44.5696C38.924 46.3184 37.4949 47.7475 35.7461 48.6693C34.6854 49.2284 33.4474 49.5132 31.7448 49.6564C30.0398 49.7997 27.8869 49.7999 25 49.7999H16.1764C13.2895 49.7999 11.1367 49.7997 9.43162 49.6564C7.72902 49.5132 6.49107 49.2284 5.43031 48.6693C3.68154 47.7475 2.25242 46.3184 1.33063 44.5696C0.771498 43.5088 0.48665 42.2709 0.34351 40.5683C0.200165 38.8632 0.2 36.7104 0.2 33.8234Z" fill="#8AA4FC" stroke="url(#paint1_linear_548_11725)" stroke-width="0.4"/>
<rect x="26.2707" y="26.6707" width="17.2471" height="11.3647" rx="5.68235" transform="rotate(90 26.2707 26.6707)" fill="url(#paint2_linear_548_11725)" stroke="url(#paint3_linear_548_11725)" stroke-width="0.4"/>
<defs>
<linearGradient id="paint0_linear_548_11725" x1="12.8928" y1="5.36867" x2="50.2817" y2="13.0184" gradientUnits="userSpaceOnUse">
<stop stop-color="#6D8FFF"/>
<stop offset="1" stop-color="#2148C9"/>
<stop offset="1" stop-color="#2148C9"/>
</linearGradient>
<linearGradient id="paint1_linear_548_11725" x1="-2.05882" y1="19.9579" x2="18.701" y2="60.3108" gradientUnits="userSpaceOnUse">
<stop stop-color="white"/>
<stop offset="0.765625" stop-color="white" stop-opacity="0"/>
</linearGradient>
<linearGradient id="paint2_linear_548_11725" x1="43.2329" y1="29.336" x2="42.3555" y2="40.4491" gradientUnits="userSpaceOnUse">
<stop stop-color="#FAFBFF"/>
<stop offset="1" stop-color="#E1E8FF" stop-opacity="0.8"/>
</linearGradient>
<linearGradient id="paint3_linear_548_11725" x1="30.365" y1="41.034" x2="41.4782" y2="24.9492" gradientUnits="userSpaceOnUse">
<stop stop-color="white"/>
<stop offset="1" stop-color="white" stop-opacity="0"/>
</linearGradient>
</defs>
</svg>
