<svg width="50" height="40" viewBox="0 0 50 40" fill="none" xmlns="http://www.w3.org/2000/svg">
<path d="M0 3.22C0 2.08102 0 1.51153 0.225173 1.07805C0.414924 0.712765 0.712765 0.414924 1.07805 0.225173C1.51153 0 2.08102 0 3.22 0H18.5833C19.0678 0 19.3101 0 19.5386 0.0544104C19.7328 0.100668 19.919 0.175751 20.091 0.277163C20.2934 0.396449 20.4679 0.564489 20.8169 0.900569L22.1417 2.17635C22.4907 2.51243 22.6652 2.68047 22.8675 2.79976C23.0395 2.90117 23.2258 2.97625 23.42 3.02251C23.6485 3.07692 23.8907 3.07692 24.3752 3.07692H39.8569C40.9959 3.07692 41.5654 3.07692 41.9989 3.30209C42.3642 3.49185 42.662 3.78969 42.8517 4.15497C43.0769 4.58845 43.0769 5.15794 43.0769 6.29692V36.78C43.0769 37.919 43.0769 38.4885 42.8517 38.9219C42.662 39.2872 42.3642 39.5851 41.9989 39.7748C41.5654 40 40.9959 40 39.8569 40H3.22C2.08102 40 1.51153 40 1.07805 39.7748C0.712765 39.5851 0.414924 39.2872 0.225173 38.9219C0 38.4885 0 37.919 0 36.78V3.22Z" fill="url(#paint0_linear_526_10995)"/>
<g filter="url(#filter0_b_526_10995)">
<path d="M11.64 13.0728C11.8796 12.2481 11.9994 11.8357 12.2421 11.5288C12.4565 11.2577 12.7369 11.0471 13.0571 10.9169C13.4195 10.7694 13.8507 10.7694 14.713 10.7694H45.2876C46.6379 10.7694 47.3131 10.7694 47.7836 11.0473C48.1963 11.2911 48.5078 11.6749 48.6612 12.1289C48.8363 12.6466 48.6972 13.3073 48.419 14.6286L43.6125 37.4594C43.4218 38.3652 43.3265 38.8181 43.0867 39.1565C42.8752 39.455 42.5858 39.6897 42.2502 39.8352C41.8696 40.0002 41.4068 40.0002 40.4812 40.0002H10.3674C7.36892 40.0002 5.86968 40.0002 5.38627 39.7013C4.85177 39.3708 4.68809 39.1545 4.51521 38.5504C4.35885 38.0039 4.80352 36.4283 5.69284 33.2771C5.85812 32.6915 6.04474 32.0508 6.26066 31.3463C7.47034 27.3997 10.3351 17.5648 11.64 13.0728Z" fill="#FB9490"/>
<path d="M11.8321 13.1286C12.0766 12.2868 12.1864 11.9216 12.399 11.6528C12.592 11.4088 12.8443 11.2194 13.1325 11.1021L13.0571 10.917L13.1325 11.1021C13.4498 10.973 13.8329 10.9694 14.713 10.9694H45.2876C45.9664 10.9694 46.4625 10.9696 46.8481 11.0034C47.232 11.037 47.484 11.1026 47.6819 11.2195C48.0533 11.4389 48.3336 11.7843 48.4718 12.193C48.5454 12.4107 48.5577 12.6708 48.5115 13.0535C48.4651 13.4378 48.3631 13.9232 48.2233 14.5874L43.4168 37.4182C43.3209 37.874 43.251 38.2052 43.1759 38.4652C43.1014 38.7228 43.0254 38.897 42.9235 39.0409C42.7331 39.3095 42.4727 39.5208 42.1707 39.6517C42.0089 39.7218 41.8227 39.7603 41.5553 39.7801C41.2854 39.8 40.9469 39.8002 40.4812 39.8002H10.3674C8.866 39.8002 7.7472 39.8001 6.9429 39.763C6.54084 39.7445 6.22339 39.7169 5.97933 39.6767C5.73106 39.6359 5.57825 39.5848 5.49144 39.5312C5.2312 39.3703 5.0816 39.2491 4.97461 39.1078C4.86761 38.9664 4.79166 38.7895 4.70749 38.4953C4.68 38.3993 4.67375 38.2319 4.7067 37.9634C4.73897 37.7005 4.80573 37.3621 4.90651 36.9366C5.10807 36.0857 5.44011 34.909 5.88532 33.3314C6.05026 32.747 6.23646 32.1077 6.45188 31.4049C7.6621 27.4566 10.5273 17.6199 11.8321 13.1286Z" stroke="url(#paint1_linear_526_10995)" stroke-width="0.4"/>
</g>
<path d="M6.35332 4.61537C6.35332 3.87615 6.95257 3.2769 7.69178 3.2769H13.8456C14.5848 3.2769 15.1841 3.87615 15.1841 4.61537C15.1841 5.35458 14.5848 5.95383 13.8456 5.95383H7.69178C6.95257 5.95383 6.35332 5.35458 6.35332 4.61537Z" fill="url(#paint2_linear_526_10995)" stroke="url(#paint3_linear_526_10995)" stroke-width="0.4"/>
<defs>
<filter id="filter0_b_526_10995" x="-8.63001" y="-2.34497" width="70.4832" height="55.4595" filterUnits="userSpaceOnUse" color-interpolation-filters="sRGB">
<feFlood flood-opacity="0" result="BackgroundImageFix"/>
<feGaussianBlur in="BackgroundImageFix" stdDeviation="6.55719"/>
<feComposite in2="SourceAlpha" operator="in" result="effect1_backgroundBlur_526_10995"/>
<feBlend mode="normal" in="SourceGraphic" in2="effect1_backgroundBlur_526_10995" result="shape"/>
</filter>
<linearGradient id="paint0_linear_526_10995" x1="12.426" y1="8.75" x2="44.9294" y2="20.7874" gradientUnits="userSpaceOnUse">
<stop stop-color="#FF807B"/>
<stop offset="0.984375" stop-color="#E24640"/>
</linearGradient>
<linearGradient id="paint1_linear_526_10995" x1="0.769945" y1="12.8573" x2="17.0846" y2="52.1999" gradientUnits="userSpaceOnUse">
<stop stop-color="white"/>
<stop offset="0.765625" stop-color="white" stop-opacity="0"/>
</linearGradient>
<linearGradient id="paint2_linear_526_10995" x1="5.45176" y1="2.8713" x2="18.0854" y2="6.60397" gradientUnits="userSpaceOnUse">
<stop stop-color="white"/>
<stop offset="1" stop-color="white" stop-opacity="0"/>
</linearGradient>
<linearGradient id="paint3_linear_526_10995" x1="4.59038" y1="3.73269" x2="10.7687" y2="6.15383" gradientUnits="userSpaceOnUse">
<stop stop-color="white"/>
<stop offset="1" stop-color="white" stop-opacity="0"/>
</linearGradient>
</defs>
</svg>
