<svg width="50" height="40" viewBox="0 0 50 40" fill="none" xmlns="http://www.w3.org/2000/svg">
<path d="M0 3.22C0 2.08102 0 1.51153 0.225173 1.07805C0.414924 0.712765 0.712765 0.414924 1.07805 0.225173C1.51153 0 2.08102 0 3.22 0H18.5833C19.0678 0 19.3101 0 19.5386 0.0544104C19.7328 0.100668 19.919 0.175751 20.091 0.277163C20.2934 0.396449 20.4679 0.564489 20.8169 0.900569L22.1417 2.17635C22.4907 2.51243 22.6652 2.68047 22.8675 2.79976C23.0395 2.90117 23.2258 2.97625 23.42 3.02251C23.6485 3.07692 23.8907 3.07692 24.3752 3.07692H39.8569C40.9959 3.07692 41.5654 3.07692 41.9989 3.30209C42.3642 3.49185 42.662 3.78969 42.8517 4.15497C43.0769 4.58845 43.0769 5.15794 43.0769 6.29692V36.78C43.0769 37.919 43.0769 38.4885 42.8517 38.9219C42.662 39.2872 42.3642 39.5851 41.9989 39.7748C41.5654 40 40.9959 40 39.8569 40H3.22C2.08102 40 1.51153 40 1.07805 39.7748C0.712765 39.5851 0.414924 39.2872 0.225173 38.9219C0 38.4885 0 37.919 0 36.78V3.22Z" fill="url(#paint0_linear_548_11759)"/>
<path d="M11.8316 13.1285C12.0761 12.2867 12.1859 11.9215 12.3985 11.6527C12.5915 11.4087 12.8438 11.2192 13.132 11.102L13.0566 10.9169L13.132 11.102C13.4493 10.9729 13.8324 10.9693 14.7126 10.9693H45.2872C45.9659 10.9693 46.462 10.9695 46.8476 11.0033C47.2315 11.0369 47.4835 11.1025 47.6815 11.2194C48.0529 11.4388 48.3331 11.7842 48.4713 12.1928C48.5449 12.4106 48.5572 12.6707 48.511 13.0533C48.4646 13.4377 48.3626 13.9231 48.2228 14.5873L43.4163 37.4181C43.3204 37.8738 43.2505 38.2051 43.1754 38.4651C43.101 38.7227 43.0249 38.8969 42.923 39.0408C42.7326 39.3094 42.4723 39.5207 42.1702 39.6516C42.0084 39.7217 41.8222 39.7602 41.5548 39.78C41.2849 39.7999 40.9464 39.8 40.4807 39.8H10.3669C8.86551 39.8 7.74671 39.8 6.94241 39.7629C6.54036 39.7444 6.2229 39.7168 5.97884 39.6766C5.73057 39.6357 5.57776 39.5847 5.49096 39.531C5.23072 39.3701 5.08111 39.249 4.97412 39.1076C4.86712 38.9663 4.79118 38.7894 4.707 38.4952C4.67951 38.3992 4.67326 38.2318 4.70621 37.9633C4.73848 37.7003 4.80524 37.362 4.90602 36.9365C5.10758 36.0856 5.43962 34.9089 5.88483 33.3313C6.04977 32.7469 6.23597 32.1076 6.45139 31.4048C7.66161 27.4565 10.5268 17.6198 11.8316 13.1285Z" fill="#FFEE8C" stroke="url(#paint1_linear_548_11759)" stroke-width="0.4"/>
<path d="M6.35332 4.61537C6.35332 3.87615 6.95257 3.2769 7.69178 3.2769H13.8456C14.5848 3.2769 15.1841 3.87615 15.1841 4.61537C15.1841 5.35458 14.5848 5.95383 13.8456 5.95383H7.69178C6.95257 5.95383 6.35332 5.35458 6.35332 4.61537Z" fill="url(#paint2_linear_548_11759)" fill-opacity="0.9" stroke="url(#paint3_linear_548_11759)" stroke-width="0.4"/>
<defs>
<linearGradient id="paint0_linear_548_11759" x1="12.426" y1="8.75" x2="44.9294" y2="20.7874" gradientUnits="userSpaceOnUse">
<stop stop-color="#FFE344"/>
<stop offset="0.984375" stop-color="#E2C51E"/>
</linearGradient>
<linearGradient id="paint1_linear_548_11759" x1="0.769457" y1="12.8572" x2="17.0842" y2="52.1998" gradientUnits="userSpaceOnUse">
<stop stop-color="white"/>
<stop offset="0.765625" stop-color="white" stop-opacity="0"/>
</linearGradient>
<linearGradient id="paint2_linear_548_11759" x1="5.45176" y1="2.8713" x2="18.0854" y2="6.60397" gradientUnits="userSpaceOnUse">
<stop stop-color="white"/>
<stop offset="1" stop-color="white" stop-opacity="0"/>
</linearGradient>
<linearGradient id="paint3_linear_548_11759" x1="4.59038" y1="3.73269" x2="10.7687" y2="6.15383" gradientUnits="userSpaceOnUse">
<stop stop-color="white"/>
<stop offset="1" stop-color="white" stop-opacity="0"/>
</linearGradient>
</defs>
</svg>
