<svg width="40" height="51" viewBox="0 0 40 51" fill="none" xmlns="http://www.w3.org/2000/svg">
<path d="M21.4947 39.7359C25.6227 37.9173 36.452 31.3649 36.9671 12.5273C36.9908 11.6617 36.5392 10.8437 35.804 10.3862C26.0763 4.33342 13.7546 4.33342 4.02691 10.3862C3.29171 10.8437 2.8401 11.6617 2.86377 12.5273C3.3789 31.3649 14.2082 37.9173 18.3362 39.7359C19.3481 40.1816 20.4828 40.1816 21.4947 39.7359Z" fill="url(#paint0_linear_548_11742)"/>
<path d="M39.5999 20.9975C38.8694 41.3971 25.733 48.1282 21.3062 49.8249C20.4014 50.1716 19.4303 50.1716 18.5255 49.8249C14.0987 48.1282 0.962271 41.3971 0.231758 20.9975C0.194924 19.9689 0.753988 19.0032 1.6532 18.4894C12.9697 12.0228 26.862 12.0228 38.1785 18.4894C39.0777 19.0032 39.6368 19.9689 39.5999 20.9975Z" fill="#A8DDCA" stroke="url(#paint1_linear_548_11742)" stroke-width="0.4"/>
<path d="M18.3516 33.3981C18.3891 33.4356 18.44 33.4567 18.493 33.4567C18.5461 33.4567 18.5969 33.4356 18.6344 33.3981L27.0835 24.949C27.8387 24.1938 29.0632 24.1938 29.8184 24.949C30.5736 25.7042 30.5736 26.9287 29.8184 27.6839L19.8605 37.6418C19.4978 38.0045 19.0059 38.2082 18.493 38.2082C17.9801 38.2082 17.4883 38.0045 17.1256 37.6418L11.4354 31.9516C10.6801 31.1964 10.6801 29.9719 11.4354 29.2167C12.1906 28.4615 13.415 28.4615 14.1702 29.2167L18.3516 33.3981Z" fill="url(#paint2_linear_548_11742)" fill-opacity="0.9" stroke="url(#paint3_linear_548_11742)" stroke-width="0.4" stroke-linecap="round" stroke-linejoin="round"/>
<defs>
<linearGradient id="paint0_linear_548_11742" x1="10.4379" y1="14.6538" x2="47.5372" y2="42.5752" gradientUnits="userSpaceOnUse">
<stop stop-color="#92D5BD"/>
<stop offset="1" stop-color="#289A71"/>
</linearGradient>
<linearGradient id="paint1_linear_548_11742" x1="0.768099" y1="16.876" x2="50.1479" y2="53.2909" gradientUnits="userSpaceOnUse">
<stop stop-color="white"/>
<stop offset="0.734375" stop-color="white" stop-opacity="0"/>
</linearGradient>
<linearGradient id="paint2_linear_548_11742" x1="13.7813" y1="29.6065" x2="44.9003" y2="33.2842" gradientUnits="userSpaceOnUse">
<stop stop-color="white"/>
<stop offset="1" stop-color="white" stop-opacity="0"/>
</linearGradient>
<linearGradient id="paint3_linear_548_11742" x1="11.2352" y1="26.2117" x2="23.9657" y2="30.4552" gradientUnits="userSpaceOnUse">
<stop stop-color="white"/>
<stop offset="1" stop-color="white" stop-opacity="0"/>
</linearGradient>
</defs>
</svg>
