<svg width="55" height="50" viewBox="0 0 55 50" fill="none" xmlns="http://www.w3.org/2000/svg">
<path d="M0.5 16C0.5 8.45753 0.5 4.68629 2.84315 2.34315C5.18629 0 8.95753 0 16.5 0L27.3571 0C34.8996 0 38.6708 0 41.014 2.34315C43.3571 4.68629 43.3571 8.45753 43.3571 16V30.4286C43.3571 37.971 43.3571 41.7423 41.014 44.0854C38.6708 46.4286 34.8996 46.4286 27.3571 46.4286H16.5C8.95752 46.4286 5.18629 46.4286 2.84315 44.0854C0.5 41.7423 0.5 37.971 0.5 30.4286L0.5 16Z" fill="url(#paint0_linear_562_10863)"/>
<path d="M0.7 30.3572C0.7 25.8112 0.700396 22.4211 1.04001 19.8053C1.37893 17.1949 2.05267 15.3844 3.37873 13.9818C3.50464 13.8486 3.63425 13.719 3.76743 13.5931C5.17005 12.267 6.98053 11.5933 9.59099 11.2544C12.2068 10.9148 15.5969 10.9144 20.1429 10.9144H30.8571C35.4031 10.9144 38.7932 10.9148 41.409 11.2544C44.0195 11.5933 45.8299 12.267 47.2326 13.5931C47.3657 13.719 47.4954 13.8486 47.6213 13.9818C48.9473 15.3844 49.6211 17.1949 49.96 19.8053C50.2996 22.4211 50.3 25.8112 50.3 30.3572C50.3 34.9032 50.2996 38.2933 49.96 40.9091C49.6211 43.5195 48.9473 45.33 47.6213 46.7326C47.4954 46.8658 47.3657 46.9954 47.2326 47.1213C45.8299 48.4474 44.0195 49.1211 41.409 49.4601C38.7932 49.7997 35.4031 49.8001 30.8571 49.8001H20.1429C15.5969 49.8001 12.2068 49.7997 9.59099 49.4601C6.98053 49.1211 5.17005 48.4474 3.76743 47.1213C3.63425 46.9954 3.50464 46.8658 3.37873 46.7326C2.05267 45.33 1.37893 43.5195 1.04001 40.9091C0.700396 38.2933 0.7 34.9032 0.7 30.3572Z" fill="#FB9490" stroke="url(#paint1_linear_562_10863)" stroke-width="0.4"/>
<path d="M32.6426 28.5713C32.6426 25.6261 32.6426 24.1536 33.3803 23.1138C33.6407 22.7469 33.961 22.4265 34.3279 22.1662C35.3677 21.4285 36.8403 21.4285 39.7854 21.4285H46.9283C49.8735 21.4285 51.3461 21.4285 52.3858 22.1662C52.7527 22.4265 53.0731 22.7469 53.3334 23.1138C54.0711 24.1536 54.0711 25.6261 54.0711 28.5713C54.0711 31.5165 54.0711 32.9891 53.3334 34.0289C53.0731 34.3958 52.7527 34.7161 52.3858 34.9764C51.3461 35.7142 49.8735 35.7142 46.9283 35.7142H39.7854C36.8403 35.7142 35.3677 35.7142 34.3279 34.9764C33.961 34.7161 33.6407 34.3958 33.3803 34.0289C32.6426 32.9891 32.6426 31.5165 32.6426 28.5713Z" fill="url(#paint2_linear_562_10863)"/>
<rect x="43.3584" y="24.9998" width="7.14286" height="7.14286" rx="3.57143" transform="rotate(90 43.3584 24.9998)" fill="white"/>
<defs>
<linearGradient id="paint0_linear_562_10863" x1="12.8626" y1="10.1562" x2="46.2691" y2="20.7607" gradientUnits="userSpaceOnUse">
<stop stop-color="#FF807B"/>
<stop offset="1" stop-color="#E24640"/>
</linearGradient>
<linearGradient id="paint1_linear_562_10863" x1="-3.07143" y1="14.2858" x2="59.4286" y2="55.3572" gradientUnits="userSpaceOnUse">
<stop stop-color="white"/>
<stop offset="1" stop-color="white" stop-opacity="0"/>
</linearGradient>
<linearGradient id="paint2_linear_562_10863" x1="38.8239" y1="24.5535" x2="53.3461" y2="32.0446" gradientUnits="userSpaceOnUse">
<stop stop-color="#FF807B"/>
<stop offset="1" stop-color="#E24640"/>
</linearGradient>
</defs>
</svg>
