<svg width="45" height="50" viewBox="0 0 45 50" fill="none" xmlns="http://www.w3.org/2000/svg">
<path d="M2.48654 22.5062C3.08883 19.4088 3.38997 17.86 4.49811 16.9466C5.60625 16.0332 7.18399 16.0332 10.3395 16.0332L34.6028 16.0332C37.7583 16.0332 39.3361 16.0332 40.4442 16.9466C41.5523 17.86 41.8535 19.4088 42.4558 22.5062L43.0898 25.7672C43.9474 30.1775 44.3762 32.3826 43.1762 33.8384C41.9762 35.2942 39.7298 35.2942 35.2369 35.2942H9.7054C5.21253 35.2942 2.9661 35.2942 1.76612 33.8384C0.566137 32.3826 0.994913 30.1775 1.85246 25.7672L2.48654 22.5062Z" fill="url(#paint0_linear_548_11153)"/>
<circle cx="22.749" cy="12.1594" r="11.9594" fill="#8AA4FC" stroke="url(#paint1_linear_548_11153)" stroke-width="0.4"/>
<path d="M2.72075 40.0093C2.72075 45.4166 7.10418 49.8 12.5114 49.8L32.4927 49.8C37.9 49.8 42.2834 45.4166 42.2834 40.0093C42.2834 32.763 36.4051 26.8885 29.1586 26.8885L29.1308 26.8885L29.103 26.8885L29.0752 26.8885L29.0475 26.8885L29.0198 26.8885L28.9921 26.8885L28.9644 26.8885L28.9367 26.8885L28.9091 26.8885L28.8815 26.8885L28.8539 26.8885L28.8263 26.8885L28.7988 26.8885L28.7712 26.8885L28.7437 26.8885L28.7162 26.8885L28.6887 26.8885L28.6613 26.8885L28.6338 26.8885L28.6064 26.8885L28.579 26.8885L28.5516 26.8885L28.5243 26.8885L28.497 26.8885L28.4696 26.8885L28.4423 26.8885L28.415 26.8885L28.3878 26.8885L28.3605 26.8885L28.3333 26.8885L28.3061 26.8885L28.2789 26.8885L28.2518 26.8885L28.2246 26.8885L28.1975 26.8885L28.1704 26.8885L28.1433 26.8885L28.1162 26.8885L28.0891 26.8885L28.0621 26.8885L28.0351 26.8885L28.0081 26.8885L27.9811 26.8885L27.9541 26.8885L27.9271 26.8885L27.9002 26.8885L27.8733 26.8885L27.8464 26.8885L27.8195 26.8885L27.7926 26.8885L27.7658 26.8885L27.739 26.8885L27.7122 26.8885L27.6854 26.8885L27.6586 26.8885L27.6318 26.8885L27.6051 26.8885L27.5783 26.8885L27.5516 26.8885L27.5249 26.8885L27.4982 26.8885L27.4716 26.8885L27.4449 26.8885L27.4183 26.8885L27.3917 26.8885L27.3651 26.8885L27.3385 26.8885L27.3119 26.8885L27.2854 26.8885L27.2588 26.8885L27.2323 26.8885L27.2058 26.8885L27.1793 26.8885L27.1528 26.8885L27.1264 26.8885L27.0999 26.8885L27.0735 26.8885L27.0471 26.8885L27.0207 26.8885L26.9943 26.8885L26.9679 26.8885L26.9415 26.8885L26.9152 26.8885L26.8889 26.8885L26.8625 26.8885L26.8362 26.8885L26.81 26.8885L26.7837 26.8885L26.7574 26.8885L26.7312 26.8885L26.7049 26.8885L26.6787 26.8885L26.6525 26.8885L26.6263 26.8885L26.6001 26.8885L26.574 26.8885L26.5478 26.8885L26.5217 26.8885L26.4956 26.8885L26.4695 26.8885L26.4434 26.8885L26.4173 26.8885L26.3912 26.8885L26.3651 26.8885L26.3391 26.8885L26.3131 26.8885L26.287 26.8885L26.261 26.8885L26.235 26.8885L26.209 26.8885L26.1831 26.8885L26.1571 26.8885L26.1312 26.8885L26.1052 26.8885L26.0793 26.8885L26.0534 26.8885L26.0275 26.8885L26.0016 26.8885L25.9757 26.8885L25.9498 26.8885L25.924 26.8885L25.8981 26.8885L25.8723 26.8885L25.8465 26.8885L25.8207 26.8885L25.7949 26.8885L25.7691 26.8885L25.7433 26.8885L25.7175 26.8885L25.6917 26.8885L25.666 26.8885L25.6403 26.8885L25.6145 26.8885L25.5888 26.8885L25.5631 26.8885L25.5374 26.8885L25.5117 26.8885L25.486 26.8885L25.4604 26.8885L25.4347 26.8885L25.4091 26.8885L25.3834 26.8885L25.3578 26.8885L25.3322 26.8885L25.3066 26.8885L25.281 26.8885L25.2554 26.8885L25.2298 26.8885L25.2042 26.8885L25.1786 26.8885L25.1531 26.8885L25.1275 26.8885L25.102 26.8885L25.0765 26.8885L25.0509 26.8885L25.0254 26.8885L24.9999 26.8885L24.9744 26.8885L24.9489 26.8885L24.9235 26.8885L24.898 26.8885L24.8725 26.8885L24.8471 26.8885L24.8216 26.8885L24.7962 26.8885L24.7707 26.8885L24.7453 26.8885L24.7199 26.8885L24.6945 26.8885L24.6691 26.8885L24.6437 26.8885L24.6183 26.8885L24.5929 26.8885L24.5675 26.8885L24.5421 26.8885L24.5168 26.8885L24.4914 26.8885L24.4661 26.8885L24.4407 26.8885L24.4154 26.8885L24.3901 26.8885L24.3647 26.8885L24.3394 26.8885L24.3141 26.8885L24.2888 26.8885L24.2635 26.8885L24.2382 26.8885L24.2129 26.8885L24.1876 26.8885L24.1623 26.8885L24.1371 26.8885L24.1118 26.8885L24.0865 26.8885L24.0613 26.8885L24.036 26.8885L24.0108 26.8885L23.9855 26.8885L23.9603 26.8885L23.9351 26.8885L23.9098 26.8885L23.8846 26.8885L23.8594 26.8885L23.8342 26.8885L23.809 26.8885L23.7838 26.8885L23.7586 26.8885L23.7334 26.8885L23.7082 26.8885L23.683 26.8885L23.6578 26.8885L23.6326 26.8885L23.6074 26.8885L23.5823 26.8885L23.5571 26.8885L23.5319 26.8885L23.5068 26.8885L23.4816 26.8885L23.4565 26.8885L23.4313 26.8885L23.4061 26.8885L23.381 26.8885L23.3559 26.8885L23.3307 26.8885L23.3056 26.8885L23.2804 26.8885L23.2553 26.8885L23.2302 26.8885L23.205 26.8885L23.1799 26.8885L23.1548 26.8885L23.1297 26.8885L23.1046 26.8885L23.0794 26.8885L23.0543 26.8885L23.0292 26.8885L23.0041 26.8885L22.979 26.8885L22.9539 26.8885L22.9288 26.8885L22.9037 26.8885L22.8785 26.8885L22.8534 26.8885L22.8283 26.8885L22.8032 26.8885L22.7781 26.8885L22.753 26.8885L22.7279 26.8885L22.7028 26.8885L22.6777 26.8885L22.6526 26.8885L22.6276 26.8885L22.6025 26.8885L22.5774 26.8885L22.5523 26.8885L22.5272 26.8885L22.5021 26.8885L22.477 26.8885L22.4519 26.8885L22.4268 26.8885L22.4017 26.8885L22.3766 26.8885L22.3515 26.8885L22.3264 26.8885L22.3013 26.8885L22.2762 26.8885L22.2511 26.8885L22.226 26.8885L22.2009 26.8885L22.1758 26.8885L22.1507 26.8885L22.1256 26.8885L22.1005 26.8885L22.0754 26.8885L22.0503 26.8885L22.0252 26.8885L22.0001 26.8885L21.9749 26.8885L21.9498 26.8885L21.9247 26.8885L21.8996 26.8885L21.8745 26.8885L21.8494 26.8885L21.8242 26.8885L21.7991 26.8885L21.774 26.8885L21.7488 26.8885L21.7237 26.8885L21.6986 26.8885L21.6734 26.8885L21.6483 26.8885L21.6232 26.8885L21.598 26.8885L21.5729 26.8885L21.5477 26.8885L21.5225 26.8885L21.4974 26.8885L21.4722 26.8885L21.4471 26.8885L21.4219 26.8885L21.3967 26.8885L21.3715 26.8885L21.3463 26.8885L21.3212 26.8885L21.296 26.8885L21.2708 26.8885L21.2456 26.8885L21.2204 26.8885L21.1952 26.8885L21.17 26.8885L21.1448 26.8885L21.1195 26.8885L21.0943 26.8885L21.0691 26.8885L21.0439 26.8885L21.0186 26.8885L20.9934 26.8885L20.9681 26.8885L20.9429 26.8885L20.9176 26.8885L20.8924 26.8885L20.8671 26.8885L20.8418 26.8885L20.8165 26.8885L20.7913 26.8885L20.766 26.8885L20.7407 26.8885L20.7154 26.8885L20.6901 26.8885L20.6647 26.8885L20.6394 26.8885L20.6141 26.8885L20.5888 26.8885L20.5634 26.8885L20.5381 26.8885L20.5127 26.8885L20.4874 26.8885L20.462 26.8885L20.4366 26.8885L20.4113 26.8885L20.3859 26.8885L20.3605 26.8885L20.3351 26.8885L20.3097 26.8885L20.2843 26.8885L20.2588 26.8885L20.2334 26.8885L20.208 26.8885L20.1825 26.8885L20.1571 26.8885L20.1316 26.8885L20.1062 26.8885L20.0807 26.8885L20.0552 26.8885L20.0297 26.8885L20.0042 26.8885L19.9787 26.8885L19.9532 26.8885L19.9277 26.8885L19.9022 26.8885L19.8766 26.8885L19.8511 26.8885L19.8255 26.8885L19.7999 26.8885L19.7744 26.8885L19.7488 26.8885L19.7232 26.8885L19.6976 26.8885L19.672 26.8885L19.6464 26.8885L19.6207 26.8885L19.5951 26.8885L19.5694 26.8885L19.5438 26.8885L19.5181 26.8885L19.4924 26.8885L19.4667 26.8885L19.441 26.8885L19.4153 26.8885L19.3896 26.8885L19.3639 26.8885L19.3382 26.8885L19.3124 26.8885L19.2866 26.8885L19.2609 26.8885L19.2351 26.8885L19.2093 26.8885L19.1835 26.8885L19.1577 26.8885L19.1319 26.8885L19.106 26.8885L19.0802 26.8885L19.0543 26.8885L19.0285 26.8885L19.0026 26.8885L18.9767 26.8885L18.9508 26.8885L18.9249 26.8885L18.8989 26.8885L18.873 26.8885L18.847 26.8885L18.8211 26.8885L18.7951 26.8885L18.7691 26.8885L18.7431 26.8885L18.7171 26.8885L18.6911 26.8885L18.6651 26.8885L18.639 26.8885L18.613 26.8885L18.5869 26.8885L18.5608 26.8885L18.5347 26.8885L18.5086 26.8885L18.4825 26.8885L18.4563 26.8885L18.4302 26.8885L18.404 26.8885L18.3778 26.8885L18.3516 26.8885L18.3254 26.8885L18.2992 26.8885L18.273 26.8885L18.2467 26.8885L18.2205 26.8885L18.1942 26.8885L18.1679 26.8885L18.1416 26.8885L18.1153 26.8885L18.089 26.8885L18.0626 26.8885L18.0363 26.8885L18.0099 26.8885L17.9835 26.8885L17.9571 26.8885L17.9307 26.8885L17.9042 26.8885L17.8778 26.8885L17.8513 26.8885L17.8249 26.8885L17.7984 26.8885L17.7719 26.8885L17.7453 26.8885L17.7188 26.8885L17.6922 26.8885L17.6657 26.8885L17.6391 26.8885L17.6125 26.8885L17.5859 26.8885L17.5592 26.8885L17.5326 26.8885L17.5059 26.8885L17.4792 26.8885L17.4525 26.8885L17.4258 26.8885L17.3991 26.8885L17.3723 26.8885L17.3456 26.8885L17.3188 26.8885L17.292 26.8885L17.2652 26.8885L17.2384 26.8885L17.2115 26.8885L17.1846 26.8885L17.1578 26.8885L17.1309 26.8885L17.1039 26.8885L17.077 26.8885L17.0501 26.8885L17.0231 26.8885L16.9961 26.8885L16.9691 26.8885L16.9421 26.8885L16.915 26.8885L16.888 26.8885L16.8609 26.8885L16.8338 26.8885L16.8067 26.8885L16.7795 26.8885L16.7524 26.8885L16.7252 26.8885L16.698 26.8885L16.6708 26.8885L16.6436 26.8885L16.6164 26.8885L16.5891 26.8885L16.5618 26.8885L16.5345 26.8885L16.5072 26.8885L16.4799 26.8885L16.4525 26.8885L16.4251 26.8885L16.3977 26.8885L16.3703 26.8885L16.3429 26.8885L16.3154 26.8885L16.2879 26.8885L16.2604 26.8885L16.2329 26.8885L16.2054 26.8885L16.1778 26.8885L16.1503 26.8885L16.1227 26.8885L16.095 26.8885L16.0674 26.8885L16.0397 26.8885L16.0121 26.8885L15.9844 26.8885L15.9566 26.8885L15.9289 26.8885L15.9011 26.8885L15.8734 26.8885L15.8456 26.8885C8.59902 26.8885 2.72075 32.763 2.72075 40.0093Z" fill="#8AA4FC" stroke="url(#paint2_linear_548_11153)" stroke-width="0.4"/>
<defs>
<linearGradient id="paint0_linear_548_11153" x1="12.9641" y1="20.2465" x2="36.4222" y2="39.0696" gradientUnits="userSpaceOnUse">
<stop stop-color="#6D8FFF"/>
<stop offset="1" stop-color="#2148C9"/>
</linearGradient>
<linearGradient id="paint1_linear_548_11153" x1="10.5896" y1="4.55978" x2="22.274" y2="23.75" gradientUnits="userSpaceOnUse">
<stop stop-color="white"/>
<stop offset="0.99715" stop-color="white" stop-opacity="0"/>
</linearGradient>
<linearGradient id="paint2_linear_548_11153" x1="4.3943" y1="28.7611" x2="43.7994" y2="46.9736" gradientUnits="userSpaceOnUse">
<stop stop-color="white"/>
<stop offset="1" stop-color="white" stop-opacity="0"/>
</linearGradient>
</defs>
</svg>
