<svg width="52" height="52" viewBox="0 0 52 52" fill="none" xmlns="http://www.w3.org/2000/svg">
<rect x="1.84277" y="43.3943" width="28.3154" height="10.2965" rx="5.14826" transform="rotate(-45 1.84277 43.3943)" fill="url(#paint0_linear_548_11776)"/>
<path d="M39.1293 39.1294C32.021 46.2376 20.3804 46.1218 13.1293 38.8706C5.87814 31.6195 5.76231 19.9789 12.8706 12.8706C19.9788 5.76238 31.6194 5.87821 38.8706 13.1294C46.1217 20.3805 46.2375 32.0211 39.1293 39.1294Z" fill="#FB9490"/>
<path d="M15.5612 36.438C21.1864 42.0632 30.417 41.9406 36.1783 36.1793C41.9396 30.418 42.0622 21.1873 36.437 15.5621C30.8118 9.93695 21.5812 10.0596 15.8199 15.8209C10.0586 21.5822 9.93596 30.8128 15.5612 36.438Z" stroke="url(#paint1_linear_548_11776)" stroke-width="0.4"/>
<defs>
<linearGradient id="paint0_linear_548_11776" x1="3.76214" y1="36.0563" x2="-10.4924" y2="57.7411" gradientUnits="userSpaceOnUse">
<stop stop-color="#FF807B"/>
<stop offset="1" stop-color="#E24640"/>
</linearGradient>
<linearGradient id="paint1_linear_548_11776" x1="-0.807058" y1="11.253" x2="41.007" y2="35.2832" gradientUnits="userSpaceOnUse">
<stop stop-color="white"/>
<stop offset="1" stop-color="white" stop-opacity="0"/>
</linearGradient>
</defs>
</svg>
