<svg width="52" height="52" viewBox="0 0 52 52" fill="none" xmlns="http://www.w3.org/2000/svg">
<rect x="1.84265" y="43.3942" width="28.3154" height="10.2965" rx="5.14826" transform="rotate(-45 1.84265 43.3942)" fill="url(#paint0_linear_379_12178)"/>
<g filter="url(#filter0_b_379_12178)">
<path d="M39.1294 39.1294C32.0211 46.2376 20.3805 46.1218 13.1294 38.8706C5.87826 31.6195 5.76243 19.9789 12.8707 12.8706C19.9789 5.76238 31.6195 5.87821 38.8707 13.1294C46.1218 20.3805 46.2377 32.0211 39.1294 39.1294Z" fill="#FFB2AF"/>
</g>
<g filter="url(#filter1_b_379_12178)">
<path d="M15.5616 36.4379C21.1868 42.0631 30.4175 41.9405 36.1788 36.1792C41.9401 30.4179 42.0627 21.1872 36.4375 15.562C30.8123 9.93684 21.5817 10.0595 15.8204 15.8208C10.0591 21.5821 9.93645 30.8127 15.5616 36.4379Z" stroke="url(#paint1_linear_379_12178)" stroke-width="0.4"/>
</g>
<defs>
<filter id="filter0_b_379_12178" x="-6.06147" y="-6.06154" width="64.1231" height="64.1231" filterUnits="userSpaceOnUse" color-interpolation-filters="sRGB">
<feFlood flood-opacity="0" result="BackgroundImageFix"/>
<feGaussianBlur in="BackgroundImageFix" stdDeviation="6.83793"/>
<feComposite in2="SourceAlpha" operator="in" result="effect1_backgroundBlur_379_12178"/>
<feBlend mode="normal" in="SourceGraphic" in2="effect1_backgroundBlur_379_12178" result="shape"/>
</filter>
<filter id="filter1_b_379_12178" x="-2.456" y="-2.4556" width="56.9112" height="56.9111" filterUnits="userSpaceOnUse" color-interpolation-filters="sRGB">
<feFlood flood-opacity="0" result="BackgroundImageFix"/>
<feGaussianBlur in="BackgroundImageFix" stdDeviation="6.83793"/>
<feComposite in2="SourceAlpha" operator="in" result="effect1_backgroundBlur_379_12178"/>
<feBlend mode="normal" in="SourceGraphic" in2="effect1_backgroundBlur_379_12178" result="shape"/>
</filter>
<linearGradient id="paint0_linear_379_12178" x1="3.76202" y1="36.0562" x2="-10.4925" y2="57.7411" gradientUnits="userSpaceOnUse">
<stop stop-color="#FF807B"/>
<stop offset="1" stop-color="#E24640"/>
</linearGradient>
<linearGradient id="paint1_linear_379_12178" x1="-0.80657" y1="11.2529" x2="41.0075" y2="35.2831" gradientUnits="userSpaceOnUse">
<stop stop-color="white"/>
<stop offset="1" stop-color="white" stop-opacity="0"/>
</linearGradient>
</defs>
</svg>
