<svg width="51" height="52" viewBox="0 0 51 52" fill="none" xmlns="http://www.w3.org/2000/svg">
<path d="M0 16C0 8.45753 0 4.68629 2.34315 2.34315C4.68629 0 8.45753 0 16 0L26.8571 0C34.3996 0 38.1708 0 40.514 2.34315C42.8571 4.68629 42.8571 8.45753 42.8571 16V30.4286C42.8571 37.971 42.8571 41.7423 40.514 44.0854C38.1708 46.4286 34.3996 46.4286 26.8571 46.4286H16C8.45752 46.4286 4.68629 46.4286 2.34315 44.0854C0 41.7423 0 37.971 0 30.4286L0 16Z" fill="url(#paint0_linear_548_11818)"/>
<path d="M50.8 32C50.8 42.9352 41.9352 51.8 31 51.8C20.0648 51.8 11.2 42.9352 11.2 32C11.2 21.0648 20.0648 12.2 31 12.2C41.9352 12.2 50.8 21.0648 50.8 32Z" fill="#8AA4FC" stroke="url(#paint1_linear_548_11818)" stroke-width="0.4"/>
<path d="M37.2224 25.3336C36.8198 24.6353 36.2349 24.0596 35.5303 23.6682C34.8257 23.2767 34.028 23.0843 33.2224 23.1114H28.7779C27.5992 23.1114 26.4687 23.5797 25.6352 24.4132C24.8017 25.2466 24.3335 26.3771 24.3335 27.5558C24.3335 28.7346 24.8017 29.865 25.6352 30.6985C26.4687 31.532 27.5992 32.0003 28.7779 32.0003H33.2224C34.4011 32.0003 35.5316 32.4685 36.3651 33.302C37.1986 34.1355 37.6668 35.266 37.6668 36.4447C37.6668 37.6235 37.1986 38.7539 36.3651 39.5874C35.5316 40.4209 34.4011 40.8892 33.2224 40.8892H28.7779C27.9724 40.9163 27.1746 40.7238 26.47 40.3324C25.7654 39.941 25.1805 39.3653 24.7779 38.667" stroke="white" stroke-width="1.5" stroke-linecap="round" stroke-linejoin="round"/>
<path d="M31 40.8887V45.3332M31 18.6665V23.1109V18.6665Z" stroke="white" stroke-width="1.5" stroke-linecap="round" stroke-linejoin="round"/>
<defs>
<linearGradient id="paint0_linear_548_11818" x1="12.3626" y1="10.1562" x2="45.7691" y2="20.7607" gradientUnits="userSpaceOnUse">
<stop stop-color="#6D8FFF"/>
<stop offset="1" stop-color="#2148C9"/>
</linearGradient>
<linearGradient id="paint1_linear_548_11818" x1="9" y1="14.8571" x2="37.9158" y2="59.0194" gradientUnits="userSpaceOnUse">
<stop stop-color="white"/>
<stop offset="0.765625" stop-color="white" stop-opacity="0"/>
</linearGradient>
</defs>
</svg>
