<svg width="51" height="52" viewBox="0 0 51 52" fill="none" xmlns="http://www.w3.org/2000/svg">
<g filter="url(#filter0_b_486_11052)">
<path d="M0 16C0 8.45753 0 4.68629 2.34315 2.34315C4.68629 0 8.45753 0 16 0L26.8571 0C34.3996 0 38.1708 0 40.514 2.34315C42.8571 4.68629 42.8571 8.45753 42.8571 16V30.4286C42.8571 37.971 42.8571 41.7423 40.514 44.0854C38.1708 46.4286 34.3996 46.4286 26.8571 46.4286H16C8.45752 46.4286 4.68629 46.4286 2.34315 44.0854C0 41.7423 0 37.971 0 30.4286L0 16Z" fill="url(#paint0_linear_486_11052)"/>
</g>
<g filter="url(#filter1_b_486_11052)">
<path d="M31 52C42.0457 52 51 43.0457 51 32C51 20.9543 42.0457 12 31 12C19.9543 12 11 20.9543 11 32C11 43.0457 19.9543 52 31 52Z" fill="#6D8FFF" fill-opacity="0.6"/>
<path d="M50.8 32C50.8 42.9352 41.9352 51.8 31 51.8C20.0648 51.8 11.2 42.9352 11.2 32C11.2 21.0648 20.0648 12.2 31 12.2C41.9352 12.2 50.8 21.0648 50.8 32Z" stroke="url(#paint1_linear_486_11052)" stroke-width="0.4"/>
</g>
<path d="M37.2219 25.3336C36.8193 24.6353 36.2345 24.0596 35.5299 23.6682C34.8253 23.2767 34.0275 23.0843 33.2219 23.1114H28.7775C27.5987 23.1114 26.4683 23.5797 25.6348 24.4132C24.8013 25.2466 24.333 26.3771 24.333 27.5558C24.333 28.7346 24.8013 29.865 25.6348 30.6985C26.4683 31.532 27.5987 32.0003 28.7775 32.0003H33.2219C34.4006 32.0003 35.5311 32.4685 36.3646 33.302C37.1981 34.1355 37.6663 35.266 37.6663 36.4447C37.6663 37.6235 37.1981 38.7539 36.3646 39.5874C35.5311 40.4209 34.4006 40.8892 33.2219 40.8892H28.7775C27.9719 40.9163 27.1741 40.7238 26.4695 40.3324C25.7649 39.941 25.18 39.3653 24.7775 38.667" stroke="white" stroke-width="1.5" stroke-linecap="round" stroke-linejoin="round"/>
<path d="M31 40.889V45.3334M31 18.6667V23.1112V18.6667Z" stroke="white" stroke-width="1.5" stroke-linecap="round" stroke-linejoin="round"/>
<defs>
<filter id="filter0_b_486_11052" x="-13.0567" y="-13.0567" width="68.9709" height="72.5419" filterUnits="userSpaceOnUse" color-interpolation-filters="sRGB">
<feFlood flood-opacity="0" result="BackgroundImageFix"/>
<feGaussianBlur in="BackgroundImageFix" stdDeviation="6.52837"/>
<feComposite in2="SourceAlpha" operator="in" result="effect1_backgroundBlur_486_11052"/>
<feBlend mode="normal" in="SourceGraphic" in2="effect1_backgroundBlur_486_11052" result="shape"/>
</filter>
<filter id="filter1_b_486_11052" x="-1.30764" y="-0.307638" width="64.6153" height="64.6153" filterUnits="userSpaceOnUse" color-interpolation-filters="sRGB">
<feFlood flood-opacity="0" result="BackgroundImageFix"/>
<feGaussianBlur in="BackgroundImageFix" stdDeviation="6.15382"/>
<feComposite in2="SourceAlpha" operator="in" result="effect1_backgroundBlur_486_11052"/>
<feBlend mode="normal" in="SourceGraphic" in2="effect1_backgroundBlur_486_11052" result="shape"/>
</filter>
<linearGradient id="paint0_linear_486_11052" x1="12.3626" y1="10.1562" x2="45.7691" y2="20.7607" gradientUnits="userSpaceOnUse">
<stop stop-color="#6D8FFF"/>
<stop offset="1" stop-color="#2148C9"/>
</linearGradient>
<linearGradient id="paint1_linear_486_11052" x1="9" y1="14.8571" x2="37.9158" y2="59.0194" gradientUnits="userSpaceOnUse">
<stop stop-color="white"/>
<stop offset="0.765625" stop-color="white" stop-opacity="0"/>
</linearGradient>
</defs>
</svg>
