<svg width="50" height="50" viewBox="0 0 50 50" fill="none" xmlns="http://www.w3.org/2000/svg">
<g filter="url(#filter0_b_408_11049)">
<rect width="44.6429" height="41.6667" rx="8" fill="#0A66C2" fill-opacity="0.2"/>
<rect x="0.2" y="0.2" width="44.2429" height="41.2667" rx="7.8" stroke="url(#paint0_linear_408_11049)" stroke-width="0.4"/>
</g>
<g clip-path="url(#clip0_408_11049)">
<path d="M46.9229 8.33374H11.4078C10.5921 8.33374 9.80974 8.6578 9.23292 9.23462C8.65609 9.81145 8.33203 10.5938 8.33203 11.4096V46.9246C8.33203 47.7403 8.65609 48.5227 9.23292 49.0995C9.80974 49.6763 10.5921 50.0004 11.4078 50.0004H46.9229C47.7386 50.0004 48.521 49.6763 49.0978 49.0995C49.6746 48.5227 49.9987 47.7403 49.9987 46.9246V11.4096C49.9987 10.5938 49.6746 9.81145 49.0978 9.23462C48.521 8.6578 47.7386 8.33374 46.9229 8.33374ZM20.751 40.6963C20.751 42.4262 19.3487 43.8285 17.6188 43.8285C15.8889 43.8285 14.4865 42.4262 14.4865 40.6963V27.062C14.4865 25.3322 15.8889 23.9298 17.6188 23.9298C19.3487 23.9298 20.751 25.3322 20.751 27.062V40.6963ZM17.6144 21.1723C16.9038 21.1683 16.2104 20.9539 15.6215 20.5561C15.0326 20.1584 14.5748 19.5951 14.3058 18.9374C14.0367 18.2797 13.9686 17.557 14.1099 16.8606C14.2512 16.1642 14.5956 15.5252 15.0997 15.0243C15.6037 14.5235 16.2449 14.1832 16.9422 14.0463C17.6395 13.9095 18.3617 13.9823 19.0177 14.2556C19.6737 14.5288 20.234 14.9903 20.628 15.5817C21.0219 16.1731 21.2319 16.8679 21.2313 17.5785C21.238 18.0543 21.1489 18.5265 20.9692 18.9671C20.7895 19.4076 20.523 19.8075 20.1855 20.1429C19.8479 20.4782 19.4464 20.7422 19.0046 20.9191C18.5629 21.0959 18.0901 21.182 17.6144 21.1723ZM43.842 40.7155C43.8416 42.4445 42.4399 43.8459 40.7109 43.8459C38.9816 43.8459 37.5797 42.444 37.5797 40.7147V32.9749C37.5797 29.7689 36.2169 28.7793 34.4576 28.7793C32.6 28.7793 30.7771 30.1798 30.7771 33.056V40.7137C30.7771 42.4435 29.3747 43.8459 27.6448 43.8459C25.9149 43.8459 24.5126 42.4435 24.5126 40.7137V26.9564C24.5126 25.2929 25.8612 23.9443 27.5247 23.9443H29.1581C29.9196 23.9443 30.5369 24.5616 30.5369 25.323V26.6518C30.5369 26.6794 30.5593 26.7018 30.5869 26.7018C30.6059 26.7018 30.6229 26.6917 30.6315 26.6747C31.2538 25.4472 33.3644 23.3858 36.5728 23.3858C40.0681 23.3858 43.8442 25.4605 43.8442 31.5369L43.842 40.7155Z" fill="#0A66C2"/>
</g>
<defs>
<filter id="filter0_b_408_11049" x="-13.0567" y="-13.0567" width="70.756" height="67.7802" filterUnits="userSpaceOnUse" color-interpolation-filters="sRGB">
<feFlood flood-opacity="0" result="BackgroundImageFix"/>
<feGaussianBlur in="BackgroundImageFix" stdDeviation="6.52837"/>
<feComposite in2="SourceAlpha" operator="in" result="effect1_backgroundBlur_408_11049"/>
<feBlend mode="normal" in="SourceGraphic" in2="effect1_backgroundBlur_408_11049" result="shape"/>
</filter>
<linearGradient id="paint0_linear_408_11049" x1="-3.18878" y1="3.78788" x2="57.9898" y2="37.6323" gradientUnits="userSpaceOnUse">
<stop stop-color="white"/>
<stop offset="1" stop-color="white" stop-opacity="0"/>
</linearGradient>
<clipPath id="clip0_408_11049">
<rect x="8.33203" y="8.33374" width="41.6667" height="41.6667" rx="8" fill="white"/>
</clipPath>
</defs>
</svg>
