<svg width="47" height="50" viewBox="0 0 47 50" fill="none" xmlns="http://www.w3.org/2000/svg">
<rect width="46.4286" height="50" rx="8" fill="url(#paint0_linear_562_10803)"/>
<path opacity="0.45" d="M29.3214 6L23.2143 16.8571H11L17.1071 6H29.3214Z" fill="#C1C1C1"/>
<path opacity="0.45" d="M17.165 44L23.2722 33.1428H35.4865L29.3793 44H17.165Z" fill="#C1C1C1"/>
<path opacity="0.8" d="M23.2116 16.8571H35.4259L29.3188 6H17.1045L23.2116 16.8571Z" fill="#C0CFFF"/>
<path opacity="0.8" d="M23.2748 33.1428H11.0605L17.1677 44H29.382L23.2748 33.1428Z" fill="#C0CFFF"/>
<path opacity="0.8" d="M17.1071 27.7143L23.2143 16.8571L17.1071 6L11 16.8571L17.1071 27.7143Z" fill="#8BA4F9"/>
<path opacity="0.8" d="M29.3796 22.2856L23.2725 33.1428L29.3796 43.9999L35.4867 33.1428L29.3796 22.2856Z" fill="#8BA4F9"/>
<defs>
<linearGradient id="paint0_linear_562_10803" x1="13.3929" y1="10.9375" x2="49.5437" y2="22.4815" gradientUnits="userSpaceOnUse">
<stop stop-color="#6D8FFF"/>
<stop offset="1" stop-color="#2148C9"/>
</linearGradient>
</defs>
</svg>
