<svg width="44" height="50" viewBox="0 0 44 50" fill="none" xmlns="http://www.w3.org/2000/svg">
<circle cx="21.5432" cy="38.0173" r="11.9826" fill="url(#paint0_linear_548_11171)"/>
<mask id="path-2-inside-1_548_11171" fill="white">
<path fill-rule="evenodd" clip-rule="evenodd" d="M15.3872 6.15532C15.3872 2.75583 18.143 0 21.5425 0C24.942 0 27.6978 2.75583 27.6978 6.15532C27.6978 7.73434 27.1033 9.17449 26.1258 10.2641C32.5959 11.7288 37.4311 17.1286 38.1741 23.7222L39.2125 32.9383C39.2473 33.2473 39.2595 33.5531 39.2504 33.8542H39.784C41.6083 33.8542 43.0873 35.3331 43.0873 37.1575C43.0873 38.7958 41.8845 40.1897 40.2613 40.4114C26.2576 42.3242 17.2013 42.308 2.83576 40.4004C1.20942 40.1845 0 38.7907 0 37.1501C0 35.3298 1.4756 33.8542 3.29585 33.8542H3.83627C3.82715 33.5531 3.8393 33.2473 3.87412 32.9383L4.91255 23.7222C5.65544 17.1291 10.4901 11.7295 16.9595 10.2644C15.9819 9.17476 15.3872 7.73449 15.3872 6.15532Z"/>
</mask>
<path fill-rule="evenodd" clip-rule="evenodd" d="M15.3872 6.15532C15.3872 2.75583 18.143 0 21.5425 0C24.942 0 27.6978 2.75583 27.6978 6.15532C27.6978 7.73434 27.1033 9.17449 26.1258 10.2641C32.5959 11.7288 37.4311 17.1286 38.1741 23.7222L39.2125 32.9383C39.2473 33.2473 39.2595 33.5531 39.2504 33.8542H39.784C41.6083 33.8542 43.0873 35.3331 43.0873 37.1575C43.0873 38.7958 41.8845 40.1897 40.2613 40.4114C26.2576 42.3242 17.2013 42.308 2.83576 40.4004C1.20942 40.1845 0 38.7907 0 37.1501C0 35.3298 1.4756 33.8542 3.29585 33.8542H3.83627C3.82715 33.5531 3.8393 33.2473 3.87412 32.9383L4.91255 23.7222C5.65544 17.1291 10.4901 11.7295 16.9595 10.2644C15.9819 9.17476 15.3872 7.73449 15.3872 6.15532Z" fill="#A8DDCA"/>
<path d="M26.1258 10.2641L25.828 9.997C25.7333 10.1026 25.7016 10.2504 25.7447 10.3856C25.7877 10.5207 25.8992 10.6229 26.0375 10.6542L26.1258 10.2641ZM38.1741 23.7222L38.5716 23.6774V23.6774L38.1741 23.7222ZM39.2125 32.9383L39.61 32.8935V32.8935L39.2125 32.9383ZM39.2504 33.8542L38.8505 33.8421C38.8473 33.9503 38.8879 34.0551 38.9633 34.1328C39.0386 34.2104 39.1422 34.2542 39.2504 34.2542V33.8542ZM40.2613 40.4114L40.3154 40.8077L40.2613 40.4114ZM2.83576 40.4004L2.88842 40.0039L2.83576 40.4004ZM3.83627 33.8542V34.2542C3.94446 34.2542 4.04803 34.2104 4.12337 34.1328C4.1987 34.0551 4.23937 33.9503 4.23609 33.8421L3.83627 33.8542ZM3.87412 32.9383L4.2716 32.9831L3.87412 32.9383ZM4.91255 23.7222L5.31004 23.767L4.91255 23.7222ZM16.9595 10.2644L17.0478 10.6545C17.1862 10.6232 17.2976 10.521 17.3406 10.3858C17.3837 10.2507 17.3519 10.1029 17.2572 9.99729L16.9595 10.2644ZM21.5425 -0.4C17.9221 -0.4 14.9872 2.53492 14.9872 6.15532H15.7872C15.7872 2.97675 18.3639 0.4 21.5425 0.4V-0.4ZM28.0978 6.15532C28.0978 2.53492 25.1629 -0.4 21.5425 -0.4V0.4C24.7211 0.4 27.2978 2.97675 27.2978 6.15532H28.0978ZM26.4235 10.5312C27.4643 9.37105 28.0978 7.8367 28.0978 6.15532H27.2978C27.2978 7.63198 26.7422 8.97792 25.828 9.997L26.4235 10.5312ZM38.5716 23.6774C37.8096 16.9146 32.8502 11.3762 26.2141 9.87398L26.0375 10.6542C32.3415 12.0813 37.0527 17.3426 37.7766 23.767L38.5716 23.6774ZM39.61 32.8935L38.5716 23.6774L37.7766 23.767L38.815 32.9831L39.61 32.8935ZM39.6502 33.8663C39.6599 33.5463 39.6469 33.2214 39.61 32.8935L38.815 32.9831C38.8477 33.2732 38.8591 33.56 38.8505 33.8421L39.6502 33.8663ZM39.784 33.4542H39.2504V34.2542H39.784V33.4542ZM43.4873 37.1575C43.4873 35.1122 41.8293 33.4542 39.784 33.4542V34.2542C41.3874 34.2542 42.6873 35.5541 42.6873 37.1575H43.4873ZM40.3154 40.8077C42.1391 40.5586 43.4873 38.9934 43.4873 37.1575H42.6873C42.6873 38.5982 41.6299 39.8207 40.2071 40.0151L40.3154 40.8077ZM2.78311 40.7969C17.1828 42.709 26.275 42.7255 40.3154 40.8077L40.2071 40.0151C26.2401 41.9228 17.2198 41.9069 2.88842 40.0039L2.78311 40.7969ZM-0.4 37.1501C-0.4 38.9893 0.955983 40.5543 2.78311 40.7969L2.88842 40.0039C1.46287 39.8146 0.4 38.5921 0.4 37.1501H-0.4ZM3.29585 33.4542C1.25469 33.4542 -0.4 35.1089 -0.4 37.1501H0.4C0.4 35.5507 1.69651 34.2542 3.29585 34.2542V33.4542ZM3.83627 33.4542H3.29585V34.2542H3.83627V33.4542ZM3.47663 32.8936C3.43969 33.2214 3.42676 33.5463 3.43646 33.8663L4.23609 33.8421C4.22754 33.56 4.23892 33.2732 4.2716 32.9831L3.47663 32.8936ZM4.51507 23.6774L3.47663 32.8936L4.2716 32.9831L5.31004 23.767L4.51507 23.6774ZM16.8711 9.87429C10.2357 11.377 5.27702 16.9151 4.51507 23.6774L5.31004 23.767C6.03386 17.343 10.7444 12.0821 17.0478 10.6545L16.8711 9.87429ZM14.9872 6.15532C14.9872 7.83685 15.6208 9.37134 16.6618 10.5315L17.2572 9.99729C16.3429 8.97818 15.7872 7.63212 15.7872 6.15532H14.9872Z" fill="url(#paint1_linear_548_11171)" mask="url(#path-2-inside-1_548_11171)"/>
<defs>
<linearGradient id="paint0_linear_548_11171" x1="14.8905" y1="34.5505" x2="37.9242" y2="54.7752" gradientUnits="userSpaceOnUse">
<stop stop-color="#92D5BD"/>
<stop offset="1" stop-color="#289A71"/>
</linearGradient>
<linearGradient id="paint1_linear_548_11171" x1="7.69415" y1="12.3106" x2="33.8543" y2="41.5484" gradientUnits="userSpaceOnUse">
<stop stop-color="white"/>
<stop offset="1" stop-color="white" stop-opacity="0"/>
</linearGradient>
</defs>
</svg>
